<?xml version="1.0" encoding="UTF-8"?>
<svg width="24px" height="12px" viewBox="0 0 24 12" version="1.1" xmlns="http://www.w3.org/2000/svg" xmlns:xlink="http://www.w3.org/1999/xlink">
    <title>arrow-right-white</title>
    <g id="Style---Terms---Sitemap---404---Media-Corner" stroke="none" stroke-width="1" fill="none" fill-rule="evenodd">
        <g id="Styleguide-2021" transform="translate(-747.000000, -3796.000000)" fill="#FFFFFF">
            <g id="arrow-right-white" transform="translate(747.000000, 3796.000000)">
                <path d="M23.9026999,3.94746587 C23.9100999,3.98778884 23.8980999,4.09586202 23.8760999,4.18747685 C23.8520999,4.29078313 23.8597999,4.38549895 23.8975999,4.43583743 C23.9148999,4.46305393 23.9259999,4.49371264 23.9301999,4.52564586 C23.9342999,4.55758912 23.9313999,4.59004419 23.9215999,4.620733 C23.9009999,4.67751432 23.8774999,4.8566896 23.8692999,5.01892482 C23.8412999,5.58983905 23.3658999,6.3198875 22.5960999,6.97049429 C22.4212999,7.11864959 21.9883999,7.49536527 21.6339999,7.80718084 C20.6484999,8.67536907 19.6674999,9.47460283 18.6763999,10.2187513 C17.3714999,11.1969195 17.3479999,11.2062525 17.0358999,10.9029773 C16.7987999,10.672761 16.7841999,10.4460572 16.9938999,10.2636103 C17.1286999,10.146194 17.1324999,10.1314417 17.0468999,10.0621962 C16.9212999,9.9606361 16.9308999,9.83579346 17.0790999,9.63849392 C17.1475999,9.54737083 17.1935999,9.44120441 17.1813999,9.40255739 C17.1521999,9.3090358 17.5198999,8.76674305 17.7996999,8.49094518 C17.9223999,8.37022717 18.0302999,8.27121611 18.0393999,8.27121611 C18.0484999,8.27121611 18.1297999,8.19487544 18.2201999,8.10135385 C18.3105999,8.00783226 18.6696999,7.67764154 19.0179999,7.36725102 C19.3663999,7.05686051 19.6681999,6.77342556 19.6892999,6.7366853 C19.7161999,6.6889661 19.6477999,6.6806165 19.4399999,6.70829464 C18.9578999,6.77271304 16.1385999,6.8354555 14.0146999,6.82901265 C12.2166999,6.82352319 9.92675991,6.77986841 9.85603991,6.74981184 C9.84140991,6.74359981 9.62109991,6.73812039 9.36625991,6.73763868 C9.11141991,6.73716701 8.88917991,6.71234901 8.87239991,6.68229244 C8.86833991,6.67523743 8.86280991,6.66912576 8.85617991,6.66435886 C8.84955991,6.65960199 8.84198991,6.65630028 8.83398991,6.65467452 C8.82597991,6.65304876 8.81771991,6.65313908 8.80974991,6.65493545 C8.80177991,6.65673181 8.79428991,6.66020413 8.78776991,6.66511153 C8.75780991,6.68563429 8.67772991,6.66940675 8.60964991,6.62908379 C8.54155991,6.58877085 8.44494991,6.57493179 8.38956991,6.60117483 C8.33418991,6.62741788 8.10188991,6.6510316 7.86933991,6.65676192 C7.54137991,6.66487067 7.42966991,6.64650556 7.37500991,6.57540346 C7.31195991,6.49333247 7.30763991,6.49476756 7.33472991,6.58900167 C7.35126991,6.64721808 7.34719991,6.68444006 7.32585991,6.67417366 C7.30452991,6.66391729 7.22181991,6.6181149 7.14269991,6.57445008 C7.03122991,6.51290185 6.98183991,6.51075424 6.92333991,6.56443457 C6.88186991,6.60259989 6.75360992,6.62622365 6.63853992,6.61716151 C6.46064992,6.60308159 6.43283992,6.58304054 6.45201992,6.48331696 C6.46664992,6.40744796 6.45873992,6.39074875 6.42804992,6.43559776 C6.36787992,6.52792512 6.10368992,6.57874531 6.06316992,6.50550563 C6.04302992,6.4699596 6.00107992,6.47567988 5.95144992,6.5210106 C5.88528992,6.5818463 5.87497992,6.57612602 5.89007992,6.4861771 C5.89990992,6.42677649 5.88072992,6.36688413 5.84716992,6.35448015 C5.81359992,6.34207618 5.78986992,6.37500292 5.79418992,6.42915492 C5.79921992,6.49071318 5.75486992,6.53604391 5.67575992,6.55011379 C5.56739992,6.56944232 5.55899992,6.55989848 5.61701992,6.48260443 C5.67503992,6.40530034 5.67143992,6.39790412 5.61078992,6.4222404 C5.57026992,6.43845791 5.47748992,6.39838583 5.40460992,6.33038472 C5.33172992,6.26239365 5.29720992,6.22302407 5.32765992,6.23972327 C5.34760992,6.24745067 5.36916992,6.25015024 5.39041992,6.2475711 C5.41166992,6.24499195 5.43194992,6.23721438 5.44944992,6.22493083 C5.50170992,6.18938479 5.50026992,6.16553022 5.44344992,6.11328498 C5.34036992,6.01784659 5.10781992,6.19558678 5.19172992,6.30581762 C5.23391992,6.36211723 5.22456992,6.39170213 5.15576992,6.42080532 C5.09654992,6.44609498 5.03805992,6.4222404 4.99370992,6.35520272 C4.94935992,6.28815499 4.94407992,6.24282427 4.97931992,6.22970776 C5.04596992,6.20585318 4.99729992,6.10206519 4.91914992,6.10206519 C4.88629992,6.10206519 4.87695992,6.16218837 4.89660992,6.24879544 C4.92753992,6.38454676 4.91602992,6.39528483 4.74030992,6.39528483 C4.55378992,6.39528483 4.52190992,6.28290638 4.70577992,6.27336254 C4.75516992,6.27074326 4.76787992,6.25619166 4.73430992,6.24115836 C4.69594992,6.22374663 4.72040992,6.16123499 4.80047992,6.0724803 C4.92585992,5.93386884 4.97859992,5.76733839 4.87503992,5.83844049 C4.84578992,5.85824069 4.82205992,5.91263355 4.82205992,5.95891765 C4.82205992,6.00520176 4.80167992,6.04361796 4.77698992,6.04361796 C4.75228992,6.04361796 4.64632992,6.13594532 4.54131992,6.24879544 C4.31812992,6.48737133 4.24452992,6.51385523 4.36559992,6.30939028 C4.47635992,6.12210625 4.47371992,6.10660128 4.33682992,6.14620168 C4.24092992,6.17412067 4.22702992,6.15956908 4.25243992,6.0526801 C4.29055992,5.89116744 4.25507992,5.89259249 4.13017992,6.05816956 C4.00526992,6.22374663 4.00143992,6.28815499 4.11458992,6.26596632 C4.13575992,6.26024604 4.15834992,6.26308611 4.17742992,6.27385429 C4.19650992,6.28462247 4.21054992,6.3024557 4.21647992,6.32347021 C4.22462992,6.3645057 4.22031992,6.37500292 4.20688992,6.34732478 C4.19346992,6.31964665 4.12657992,6.30772438 4.05825992,6.32203512 C3.91440992,6.35233254 3.81995992,6.23686313 3.94437992,6.18413618 C4.03475992,6.14573001 4.06016992,5.92695432 3.97434992,5.92695432 C3.94509992,5.92695432 3.92423992,5.94675453 3.92639992,5.97084996 C3.94173992,6.07845147 3.91584992,6.16171669 3.86718992,6.16171669 C3.83793992,6.16171669 3.81419992,6.10445366 3.81419992,6.03478665 C3.81419992,5.87207976 3.74635992,5.94317182 3.73484992,6.11781102 C3.72765992,6.22946691 3.68282992,6.25785757 3.44212992,6.30367 C3.23427992,6.34327041 3.15252993,6.33945689 3.13742993,6.28910837 C3.12591993,6.25117387 3.05903993,6.22040478 2.98854993,6.22040478 C2.91806993,6.22040478 2.86052993,6.19654016 2.86052993,6.16577107 C2.86052993,6.13499194 2.82001993,6.06651916 2.77038993,6.0116446 C2.68528993,5.91765134 2.68743993,5.91430949 2.80754993,5.95653922 C2.88224993,5.9839765 2.95041993,6.0265374 3.00772993,6.08155246 C3.08444993,6.16672445 3.32130992,6.13594532 3.41695992,6.02834381 C3.45267992,5.98803088 3.43781992,5.98063465 3.37116992,6.00711855 C3.29588992,6.03669341 3.28030992,6.02381776 3.30499992,5.95247481 C3.31921992,5.91477113 3.33004992,5.87589328 3.33736992,5.83629287 C3.33736992,5.8238889 3.37308992,5.82889665 3.41695992,5.84750262 C3.53682992,5.8978411 3.51285992,5.77282785 3.37716992,5.63278131 C3.27695992,5.52924421 3.25513992,5.52423645 3.24075992,5.60128965 C3.21845992,5.72058261 3.14485993,5.71890667 3.10410993,5.59842951 C3.07605993,5.51755275 3.05831993,5.51540514 2.98231993,5.58387792 C2.92094993,5.63875248 2.90559993,5.64090009 2.93292993,5.59032076 C2.98902993,5.48701448 2.88713993,5.49894678 2.80754993,5.60511321 C2.75216993,5.67906541 2.76175993,5.69314533 2.86724993,5.69385786 C2.95858993,5.69385786 2.97320993,5.70865031 2.92070993,5.74539057 C2.85980993,5.78810201 2.85980993,5.80097766 2.92070993,5.82841494 C2.96049993,5.84607757 2.91494993,5.85347379 2.81953993,5.84488333 C2.72411993,5.83629287 2.59945993,5.77330956 2.54287993,5.70674355 C2.45393993,5.60105883 2.41893993,5.59342175 2.28276993,5.65020308 C2.19621993,5.68646163 2.13724993,5.73704097 2.15186993,5.7630532 C2.16649993,5.78905539 2.14227993,5.81076235 2.09864993,5.81076235 C2.07494993,5.80945773 2.05190993,5.80254321 2.03142993,5.79059083 C2.01095993,5.77864849 1.99364993,5.76199946 1.98093993,5.74204872 C1.95552993,5.69648718 1.92819993,5.71580568 1.90038993,5.79979346 C1.87641993,5.87422738 1.82846993,5.91311526 1.78459993,5.89522181 C1.72297993,5.86921962 1.72489993,5.83175679 1.79585993,5.66523638 C1.86682993,5.49870593 1.89175993,5.48152501 1.93970993,5.55095117 C2.00682993,5.64637952 2.26022993,5.64208429 2.33478993,5.54284242 C2.42205993,5.4264096 2.43068993,5.11721331 2.34605993,5.08166728 C2.31671993,5.06710565 2.28605993,5.05536402 2.25447993,5.04660296 C2.24608993,5.04660296 2.24152993,5.13033986 2.24440993,5.2324519 C2.24728993,5.33456395 2.22570993,5.42737301 2.19645993,5.43810105 C2.16721993,5.44883912 2.14299993,5.3426727 2.14155993,5.19498907 C2.13892993,4.85835551 2.09960993,4.82114357 1.91021993,4.97598257 C1.80089993,5.06544978 1.74839993,5.08119561 1.72969993,5.03037542 C1.71458993,4.98933993 1.70164993,5.00246647 1.69924993,5.06115455 C1.69445993,5.18043748 1.71674993,5.18640865 1.86514993,5.09836649 C1.96271993,5.04087264 1.97206993,5.04731548 1.94689993,5.15419443 C1.93107993,5.2210013 1.94545993,5.28779814 1.97877993,5.30283144 C2.04590993,5.33312886 1.78698993,5.36390799 1.60622993,5.34720878 C1.54293993,5.34123761 1.47509993,5.36534308 1.45543993,5.4004074 C1.43146993,5.44383137 1.38878993,5.433575 1.32429993,5.36891575 C1.25980993,5.30426653 1.21689993,5.29472269 1.19388993,5.33575818 C1.17470993,5.37010998 1.10374993,5.39825979 1.03637993,5.39825979 C0.940485931,5.39825979 0.913634931,5.36581475 0.913634931,5.24963282 C0.913634931,5.11244641 0.922265931,5.10648528 1.02630993,5.18067833 C1.09822993,5.23221105 1.19939993,5.24556841 1.31183993,5.21909454 C1.41060993,5.19522993 1.49882993,5.20286701 1.51704993,5.23579375 C1.56787993,5.32668602 1.64122993,5.15109344 1.61006993,5.01367621 C1.58609993,4.91299925 1.61989993,4.87816575 1.79777993,4.81326564 C1.91596993,4.77008253 2.01354993,4.70185061 2.01354993,4.66153767 C2.01354993,4.61740119 2.05549993,4.60069194 2.11950993,4.61930795 C2.17799993,4.63600715 2.22594993,4.67966194 2.22642993,4.7164022 C2.22690993,4.75314247 2.25039993,4.74312696 2.27844993,4.69469524 C2.30649993,4.64626352 2.33023993,4.6357663 2.33071993,4.67084066 C2.33119993,4.70590498 2.40814993,4.73740668 2.50164993,4.74050767 C2.62510993,4.74432119 2.65051993,4.73096383 2.59442993,4.69278848 C2.47742993,4.61095834 2.57668993,4.62622246 2.78357993,4.72189167 C2.88665993,4.76961086 2.96721993,4.78154317 2.96721993,4.74932895 C2.96721993,4.71712476 2.93173993,4.67775518 2.88809993,4.65819583 C2.84446993,4.63862644 2.82288993,4.59973856 2.84015993,4.56920028 C2.85741993,4.53866201 2.92333993,4.58089174 2.98710993,4.66320358 C3.09858993,4.80635112 3.10697993,4.80873959 3.22996992,4.71425459 C3.35294992,4.61977962 3.35486992,4.62216809 3.32273992,4.71425459 C3.26088992,4.89247649 3.37620992,4.81684834 3.46298992,4.62216809 C3.53898992,4.45182412 3.57805992,4.47711378 3.55408992,4.68085617 C3.54953992,4.72117914 3.59436992,4.75410588 3.65381992,4.75410588 C3.71327992,4.75410588 3.76217992,4.72857536 3.76217992,4.69732456 C3.76217992,4.62575079 3.91129992,4.68443887 4.07215992,4.82090272 C4.17883992,4.91156417 4.20712992,4.91490602 4.27065992,4.8447573 C4.31141992,4.79966743 4.34497992,4.74241443 4.34497992,4.71736562 C4.34497992,4.69230677 4.31620992,4.70375737 4.28144992,4.74265528 C4.19298992,4.8404721 4.08006992,4.83044656 4.08006992,4.72499266 C4.08167992,4.70353659 4.07476992,4.68230129 4.06082992,4.66584294 C4.04689992,4.64939462 4.02703992,4.63901783 4.00550992,4.63696053 C3.95756992,4.63696053 3.94077992,4.59592504 3.95756992,4.51981519 C3.97266992,4.45540682 4.02948992,4.40267987 4.08342992,4.40267987 C4.14887992,4.40267987 4.17140992,4.43178306 4.15102992,4.49047114 C4.13424992,4.53819034 4.14695992,4.5785133 4.17907992,4.5785133 C4.21120992,4.5785133 4.23781992,4.53389511 4.23781992,4.4792614 C4.23781992,4.39289518 4.24764992,4.39480194 4.31548992,4.49405385 C4.38333992,4.59329572 4.39364992,4.5930649 4.39507992,4.51146558 C4.39647992,4.48396809 4.40508992,4.45731358 4.42006992,4.43417153 C4.43503992,4.41101944 4.45585992,4.39218265 4.48042992,4.37953782 C4.60029992,4.32919934 4.60892992,4.33372539 4.57632992,4.42724698 C4.52837992,4.56514591 4.65255992,4.59187066 4.75084992,4.46494062 C4.80191992,4.39909717 4.88606992,4.34565769 4.93784992,4.34565769 C5.04380992,4.34565769 5.05459992,4.39337689 4.97811992,4.52149113 C4.93376992,4.59616589 4.91890992,4.59711927 4.87814992,4.52721141 C4.84362992,4.4678108 4.83259992,4.48832353 4.83835992,4.60117365 C4.84674992,4.76221463 5.03493992,4.89223564 5.07377992,4.76388054 C5.08113992,4.74445165 5.09423992,4.72769223 5.11135992,4.7158101 C5.12846992,4.70392797 5.14879992,4.69748513 5.16966992,4.69732456 C5.21114992,4.69732456 5.24470992,4.67345995 5.24470992,4.64220914 C5.24470992,4.61095834 5.19555992,4.59736013 5.13514992,4.61023578 C5.06658992,4.62479741 5.03349992,4.60713478 5.04692992,4.56252662 C5.05412992,4.54240528 5.06699992,4.52477276 5.08400992,4.51173654 C5.10101992,4.49871036 5.12142992,4.49083242 5.14281992,4.48904609 C5.15215992,4.48911634 5.16138992,4.48709919 5.16983992,4.48313513 C5.17827992,4.47916104 5.18571992,4.47335044 5.19158992,4.46613486 C5.19746992,4.45890924 5.20162992,4.45045928 5.20376992,4.44141722 C5.20590992,4.43237516 5.20596992,4.42296178 5.20395992,4.41388962 C5.19484992,4.36617042 5.25045992,4.34589855 5.37056992,4.35496068 C5.50457992,4.36474537 5.54317992,4.39050671 5.52112992,4.45421259 C5.50026992,4.51433576 5.51225992,4.52578636 5.56139992,4.4923779 C5.60646992,4.46136796 5.61893992,4.46708824 5.59591992,4.50789291 C5.53742992,4.61262425 5.63140992,4.62717584 5.80065992,4.53962542 C5.95935992,4.45755443 5.95935992,4.45755443 5.81383992,4.49047114 C5.64602992,4.52816479 5.61869992,4.43727252 5.77020992,4.3473236 C5.80442992,4.3291893 5.84225992,4.31883258 5.88097992,4.31702618 C5.91970992,4.31520974 5.95834992,4.32197372 5.99412992,4.33682638 C6.06340992,4.36521704 6.19286992,4.36331028 6.29307992,4.33253115 C6.40095992,4.29961444 6.49445992,4.29961444 6.53280992,4.33253115 C6.62175992,4.40912272 6.83991991,4.46183963 6.80443992,4.39814379 C6.76894992,4.33444795 6.81425992,4.32657002 7.21342991,4.31917379 C7.37859991,4.3160728 7.50350991,4.33181863 7.49079991,4.35448901 C7.48580991,4.36841839 7.48590991,4.38366244 7.49107991,4.39754165 C7.49624991,4.41141083 7.50616991,4.42303203 7.51908991,4.43034797 C7.54713991,4.4496765 7.59340991,4.41747232 7.62169991,4.3587742 C7.66148991,4.27670321 7.74683991,4.24927596 7.99591991,4.23829704 C8.17356991,4.23065996 8.36918991,4.25404287 8.43080991,4.29054228 C8.51542991,4.34064994 8.55234991,4.3394557 8.58207991,4.28624705 C8.60796991,4.23996294 8.73694991,4.22231036 8.95942991,4.23471433 C9.14521991,4.24498073 9.32214991,4.23639028 9.35234991,4.21539584 C9.42762991,4.16314056 10.4258999,4.13762008 10.4701999,4.18676432 C10.4898999,4.20847129 10.5365999,4.19845578 10.5737999,4.16290974 C10.6217999,4.11900407 10.6751999,4.12092087 10.7576999,4.16958341 C10.8451999,4.22135697 10.8830999,4.22159783 10.9113999,4.17077764 C10.9395999,4.11995745 11.0043999,4.12305845 11.1649999,4.18532924 C11.3296999,4.24808173 11.3747999,4.25046016 11.3552999,4.19463222 C11.3358999,4.13881431 11.4238999,4.12306848 11.6909999,4.12592862 C12.0428999,4.129983 13.4992999,4.07415506 14.4073999,4.02214064 C14.6562999,4.0078299 15.3008999,3.98206856 15.8398999,3.96488764 C17.4990999,3.91167898 18.5140999,3.86110969 18.5416999,3.8300897 C18.5562999,3.81386217 17.8178999,3.8186391 16.9008999,3.84082777 C15.2764999,3.88018733 14.7969999,3.8596746 15.7604999,3.79310858 C16.0224999,3.77474347 16.6899999,3.74301096 17.2429999,3.72272904 L18.2498999,3.68550707 L17.5975999,3.34124646 C17.2379999,3.15252734 16.7855999,2.86910243 16.5906999,2.71116244 C16.2324999,2.42009042 15.7307999,2.17411831 15.4948999,2.17411831 C15.3375999,2.17411831 15.0127999,1.87017063 15.0668999,1.77330719 C15.0877999,1.7358544 15.2121999,1.70507527 15.3433999,1.70507527 C15.6168999,1.70507527 15.6120999,1.62348599 15.3306999,1.4932141 C15.1309999,1.40088674 15.0959999,1.26371037 15.2586999,1.20692905 C15.3389999,1.17876921 15.3569999,1.13535528 15.3332999,1.03085476 C15.3092999,0.929455242 15.3315999,0.871720538 15.4125999,0.816133449 C15.4734999,0.774144574 15.5233999,0.712114641 15.5233999,0.67847537 C15.5233999,0.535327827 15.8551999,0.416039881 16.4808999,0.329912509 C17.4376999,0.19893311 17.6299999,0.210623559 18.2450999,0.440135314 C18.8602999,0.669644058 20.7591999,1.52733508 21.5364999,1.92790534 C22.2575999,2.29937241 23.6166999,3.09860616 23.8275999,3.2749213 C23.9699999,3.39420423 23.9999999,3.45838178 23.9999999,3.64661919 C23.9999999,3.77164247 23.9759999,3.87398534 23.9445999,3.87398534 C23.9141999,3.87422619 23.8951999,3.90715294 23.9026999,3.94746587 Z M23.3111999,2.78320789 C22.9626999,2.51075187 21.8042999,1.84941705 21.0938999,1.51874462 C19.7240999,0.878404236 18.6473999,0.414607804 18.3776999,0.348282642 C18.2211999,0.309633608 18.0458999,0.243547293 17.9883999,0.201079721 C17.9140999,0.153347482 17.8280999,0.126626741 17.7397999,0.12378065 C17.6606999,0.12378065 17.5810999,0.0975376029 17.5630999,0.0650915626 C17.4546999,-0.128873157 18.4514999,0.133086645 19.4238999,0.554174651 C21.9036999,1.62778122 23.6624999,2.63934782 23.8999999,3.126766 C23.9416999,3.21216881 23.9179999,3.20788361 23.7494999,3.09955954 C23.6396999,3.02680157 23.4423999,2.88580164 23.3111999,2.78320789 Z M18.3119999,0.82686562 C18.2788999,0.82686562 18.6092999,0.987430799 19.0465999,1.18330529 C20.7536999,1.94818725 22.5255999,2.84882052 22.9110999,3.14776044 C22.9693999,3.19285031 23.0412999,3.2286372 23.0712999,3.22744296 C23.1949999,3.22266603 22.7669999,2.91442312 22.1455999,2.55942444 C21.1499999,1.99375883 18.5653999,0.824723907 18.3119999,0.82686562 Z M18.3546999,1.77736157 C18.3431999,1.7900064 18.8995999,2.06008399 19.5907999,2.37762987 C20.2818999,2.69517576 21.1192999,3.09598687 21.4515999,3.2682376 C22.0962999,3.60225188 22.4375999,3.69768023 21.9070999,3.39420423 C21.7322999,3.29448065 21.2449999,3.05017444 20.8210999,2.8497739 C19.7837999,2.35949558 18.3800999,1.74921176 18.3546999,1.77736157 Z M17.3777999,2.32251446 C16.6788999,1.9646456 16.2600999,1.82984766 16.7683999,2.12568659 C17.0878999,2.31154557 19.2716999,3.31857608 19.8129999,3.52948388 C20.4180999,3.76543045 19.9599999,3.51659819 18.9932999,3.08429542 C18.4397999,2.83664736 17.7126999,2.49381181 17.3777999,2.32251446 Z M14.9973999,3.90095095 C14.9903999,3.90517593 14.9825999,3.90786546 14.9743999,3.90884895 C14.9662999,3.90983244 14.9579999,3.90907977 14.9501999,3.90664112 C14.9423999,3.90420247 14.9351999,3.90013806 14.9290999,3.89471885 C14.9228999,3.8892896 14.9180999,3.88263601 14.9146999,3.87517957 C14.8964999,3.84225283 14.9184999,3.81553811 14.9640999,3.81553811 C15.0570999,3.81553811 15.0707999,3.85084329 14.9973999,3.90095095 Z M12.9011999,5.45695791 C12.9636999,5.48653277 12.9761999,5.50896229 12.9318999,5.51135076 C12.8874999,5.51373923 12.8711999,5.53139182 12.8886999,5.55071032 C12.9365999,5.60319641 13.0399999,5.51587681 13.0046999,5.4528935 C12.9881999,5.42331864 12.9353999,5.40064826 12.8848999,5.40231416 C12.8126999,5.40565601 12.8145999,5.41568156 12.9011999,5.45695791 Z M12.9274999,5.04660296 C12.9122999,5.04793769 12.8981999,5.05519342 12.8882999,5.06680459 C12.8783999,5.07840572 12.8733999,5.09343902 12.8745999,5.10863289 C12.8745999,5.14274383 12.8984999,5.15443529 12.9274999,5.13439423 C12.9564999,5.11435317 12.9804999,5.08667504 12.9804999,5.0723643 C12.9804999,5.05805356 12.9564999,5.04660296 12.9274999,5.04660296 Z M11.5499999,4.28458114 C11.5209999,4.28458114 11.4969999,4.29603174 11.4969999,4.31034248 C11.4969999,4.32466326 11.5209999,4.35257221 11.5499999,4.37238245 C11.5789999,4.39218265 11.6029999,4.38073205 11.6029999,4.34661107 C11.6040999,4.3314172 11.5991999,4.31639394 11.5892999,4.30478277 C11.5793999,4.2931716 11.5652999,4.28591587 11.5499999,4.28458114 Z M11.1263999,4.57754989 C11.0971999,4.57754989 11.0733999,4.58924134 11.0733999,4.60332126 C11.0733999,4.61740119 11.0973999,4.64555099 11.1263999,4.66559205 C11.1553999,4.68563311 11.1793999,4.6737008 11.1793999,4.63957982 C11.1804999,4.62440602 11.1754999,4.60941286 11.1655999,4.59782176 C11.1556999,4.58623067 11.1415999,4.57895487 11.1263999,4.57754989 Z M10.9674999,6.01379221 C10.9381999,5.99375116 10.9144999,6.0037767 10.9144999,6.03622174 C10.9158999,6.05498828 10.9212999,6.073243 10.9304999,6.08972143 C10.9395999,6.10618982 10.9521999,6.12050056 10.9674999,6.13165009 C10.9964999,6.15169115 11.0203999,6.14143478 11.0203999,6.10922056 C11.0189999,6.09046406 11.0134999,6.07223944 11.0043999,6.05577105 C10.9951999,6.0393127 10.9825999,6.02499192 10.9674999,6.01379221 Z M9.81710991,5.23502101 C9.80796991,5.2514894 9.80251991,5.26974413 9.80113991,5.2885207 C9.80113991,5.32072488 9.82510991,5.33074039 9.85411991,5.31070937 C9.86935991,5.2995498 9.88197991,5.2852491 9.89112991,5.26877067 C9.90026991,5.25229225 9.90571991,5.23404756 9.90709991,5.21527099 C9.90709991,5.1830668 9.88312991,5.17304126 9.85411991,5.1928515 C9.83888991,5.20424188 9.82625991,5.21854259 9.81710991,5.23502101 Z M9.67095991,5.00818675 C9.62612991,5.02727443 9.58920991,5.07092921 9.58920991,5.10529104 C9.58920991,5.14871501 9.62300991,5.14775159 9.69972991,5.1024309 C9.82270991,5.0296629 9.79945991,4.95355304 9.67095991,5.00699252 L9.67095991,5.00818675 Z M9.69493991,4.28458114 C9.67970991,4.28597609 9.66563991,4.29325188 9.65573991,4.30484298 C9.64582991,4.31644411 9.64088991,4.33142724 9.64194991,4.34661107 C9.64194991,4.38073205 9.66592991,4.39241347 9.69493991,4.37238245 C9.72393991,4.35234139 9.74791991,4.32466326 9.74791991,4.31034248 C9.74791991,4.29603174 9.72393991,4.28458114 9.69493991,4.28458114 Z M9.50721991,5.86515521 C9.46478991,5.82626733 9.42834991,5.80408869 9.42618991,5.81601096 C9.37823991,6.08202414 9.37823991,6.08131161 9.53766991,6.05458686 C9.62900991,6.03979441 9.69493991,5.9935103 9.69493991,5.94436606 C9.69493991,5.89522181 9.67095991,5.87661584 9.63955991,5.8966569 C9.60934991,5.91883554 9.54965991,5.90405312 9.50721991,5.86515521 Z M9.47053991,6.35591524 C9.43409991,6.37214278 9.46382991,6.38550014 9.53670991,6.38550014 C9.60958991,6.38550014 9.63931991,6.37214278 9.60287991,6.35591524 C9.56026991,6.33968771 9.51314991,6.33968771 9.47053991,6.35591524 Z M9.48372991,5.45695791 C9.46849991,5.45835285 9.45442991,5.46562865 9.44452991,5.47721975 C9.43462991,5.48881085 9.42967991,5.50380401 9.43074991,5.51898784 C9.43074991,5.55309878 9.45471991,5.56479024 9.48372991,5.54474918 C9.51273991,5.52470812 9.53670991,5.49702999 9.53670991,5.48271925 C9.53670991,5.46840851 9.51273991,5.45695791 9.48372991,5.45695791 Z M9.43074991,5.66212535 C9.40173991,5.64208429 9.37775991,5.65377574 9.37775991,5.68789672 C9.37669991,5.70307052 9.38164991,5.71806368 9.39154991,5.72966482 C9.40144991,5.74125591 9.41551991,5.74853171 9.43074991,5.74992666 C9.45998991,5.74992666 9.48372991,5.7382352 9.48372991,5.72415528 C9.48372991,5.71008539 9.45974991,5.68193559 9.43074991,5.66212535 Z M9.31494991,5.00652084 C9.27251991,5.02512681 9.28522991,5.03920673 9.34683991,5.04182602 C9.40269991,5.04445534 9.43409991,5.03061628 9.41635991,5.01104689 C9.39861991,4.99148754 9.35306991,4.98958078 9.31494991,5.00652084 Z M9.32477991,4.51910266 C9.29577991,4.51910266 9.27179991,4.53055326 9.27179991,4.54487403 C9.27179991,4.55918477 9.29577991,4.58686291 9.32477991,4.60690397 C9.35378991,4.62693499 9.37775991,4.61525357 9.37775991,4.58113259 C9.37888991,4.56593872 9.37396991,4.55091545 9.36404991,4.53930429 C9.35413991,4.52770315 9.34002991,4.52043739 9.32477991,4.51910266 Z M9.03349991,5.97419181 C9.04788991,5.99017849 9.03349991,6.03836936 9.00041991,6.08155246 C8.92609991,6.18079434 8.98698991,6.18461789 9.08719991,6.08704193 C9.18740991,5.98945593 9.18525991,5.94531944 9.08719991,5.94531944 C9.04308991,5.94531944 9.01911991,5.95820513 9.03349991,5.97419181 Z M9.03613991,6.41436247 C8.99370991,6.41436247 8.97164991,6.436792 8.98698991,6.46398843 C8.99065991,6.47047141 8.99565991,6.47609134 9.00167991,6.48048692 C9.00769991,6.48488251 9.01459991,6.4879534 9.02189991,6.48948884 C9.02920991,6.49102428 9.03675991,6.49099418 9.04404991,6.48938848 C9.05133991,6.48779283 9.05820991,6.48466172 9.06418991,6.48021596 C9.13346991,6.43249677 9.12555991,6.41436247 9.03613991,6.41436247 Z M8.63625991,6.30604844 C8.60724991,6.28624823 8.58327991,6.29769883 8.58327991,6.33206066 C8.58220991,6.34723446 8.58715991,6.36222762 8.59705991,6.37381872 C8.60695991,6.38541985 8.62102991,6.39268562 8.63625991,6.3940906 C8.66550991,6.3940906 8.68923991,6.38239914 8.68923991,6.36807837 C8.68923991,6.35376763 8.66526991,6.32608949 8.63625991,6.30604844 Z M8.26873991,6.10087096 C8.29942991,6.10087096 8.30925991,6.1285491 8.29031991,6.16242922 C8.26634991,6.2044181 8.23229991,6.20202963 8.18123991,6.15527385 C8.13017991,6.10850804 8.10667991,6.10516619 8.10667991,6.15240367 C8.10602991,6.16920324 8.11210991,6.18557127 8.12356991,6.19791504 C8.13502991,6.2102588 8.15093991,6.21757474 8.16781991,6.21825716 C8.20353991,6.21825716 8.19178991,6.26454127 8.13784991,6.3296722 C8.08390991,6.39480312 8.06856991,6.45587968 8.09756991,6.47592073 C8.12657991,6.49596179 8.16205991,6.4716255 8.17835991,6.42390631 C8.19657991,6.37190192 8.24620991,6.35090749 8.30326991,6.37117936 C8.38285991,6.39981088 8.38525991,6.39504398 8.31836991,6.34088194 C8.26850991,6.30056901 8.25867991,6.26048689 8.29199991,6.23280876 C8.34641991,6.18771889 8.47227991,5.96416626 8.45573991,5.94221844 C8.45046991,5.93530393 8.39364991,5.94507858 8.32939991,5.96369459 C8.21096991,5.99780553 8.16541991,6.10087096 8.26873991,6.10087096 Z M8.30853991,6.4711438 C8.26634991,6.48999062 8.27880991,6.50382969 8.34065991,6.50669986 C8.39651991,6.5090783 8.42768991,6.49523923 8.41018991,6.47592073 C8.39268991,6.4565922 8.34689991,6.45420373 8.30853991,6.4711438 Z M8.29511991,5.39754726 C8.28216991,5.39754726 8.25699991,5.42403116 8.23901991,5.45623535 C8.22103991,5.48844957 8.23158991,5.51469261 8.26298991,5.51469261 C8.27820991,5.51431126 8.29265991,5.5079487 8.30316991,5.49699988 C8.31368991,5.48604103 8.31940991,5.47137904 8.31908991,5.45623535 C8.31908991,5.42403116 8.30877991,5.39754726 8.29511991,5.39754726 Z M8.19010991,5.63612316 C8.12849991,5.57934183 8.12010991,5.588414 8.14335991,5.68741502 C8.15918991,5.75374018 8.19298991,5.80814307 8.21863991,5.80814307 C8.29055991,5.80814307 8.27473991,5.71462148 8.19010991,5.63612316 Z M8.13185991,4.98743317 C8.09085991,4.98743317 8.03188991,5.04016011 8.00071991,5.10456848 C7.93071991,5.24915111 7.98824991,5.2584541 8.09133991,5.11936093 C8.13328991,5.06282046 8.15222991,5.04970395 8.13376991,5.09001689 C8.09924991,5.16564503 8.16876991,5.19212893 8.22966991,5.12580377 C8.27760991,5.07212344 8.22055991,4.98885822 8.13376991,4.98743317 L8.13185991,4.98743317 Z M8.13304991,4.75291165 C8.11506991,4.78511583 8.12561991,4.81159973 8.15702991,4.81159973 C8.17228991,4.81115817 8.18675991,4.80475547 8.19730991,4.7937665 C8.20785991,4.78278758 8.21361991,4.76810552 8.21336991,4.75291165 C8.21336991,4.72069743 8.20281991,4.69445438 8.18938991,4.69445438 C8.17620991,4.69445438 8.15102991,4.72069743 8.13304991,4.75291165 Z M8.15966991,5.30974596 C8.13041991,5.28994575 8.10667991,5.30163721 8.10667991,5.33575818 C8.10554991,5.35095206 8.11047991,5.36597532 8.12038991,5.37758649 C8.13030991,5.38918762 8.14440991,5.39644335 8.15966991,5.39778812 C8.18866991,5.39778812 8.21264991,5.38609666 8.21264991,5.37201674 C8.21264991,5.35794686 8.18866991,5.32978701 8.15966991,5.30974596 Z M7.99064991,4.5369961 C7.94845991,4.55584292 7.96091991,4.56968199 8.02276991,4.57254213 C8.07862991,4.5749306 8.10979991,4.56109153 8.09229991,4.541763 C8.07479991,4.52244451 8.02900991,4.52005604 7.99064991,4.5369961 Z M7.88324991,6.38359338 C7.84512991,6.42558225 7.84200991,6.45277868 7.87533991,6.45277868 C7.94725991,6.45277868 8.00862991,6.38359338 7.97314991,6.34446464 C7.95828991,6.32776544 7.91776991,6.34446464 7.88324991,6.38359338 Z M7.66076991,6.3723736 C7.63271991,6.45277868 7.64063991,6.45635135 7.70871991,6.39456227 C7.80077991,6.31010281 7.81012991,6.27527934 7.74203991,6.27527934 C7.71542991,6.27694525 7.67898991,6.32036921 7.66076991,6.3723736 Z M7.68282991,5.13392256 C7.65357991,5.11411232 7.62984991,5.12580377 7.62984991,5.15992475 C7.62871991,5.17511862 7.63363991,5.19014189 7.64355991,5.20175306 C7.65346991,5.21335419 7.66757991,5.22061995 7.68282991,5.22195468 C7.71183991,5.22195468 7.73580991,5.21026323 7.73580991,5.19595249 C7.73580991,5.18163172 7.71183991,5.15396362 7.68282991,5.13392256 Z M7.52387991,6.21849802 C7.50862991,6.21983275 7.49452991,6.22708848 7.48460991,6.23869964 C7.47469991,6.25030078 7.46976991,6.26533408 7.47089991,6.28052795 C7.47089991,6.31463889 7.49487991,6.32633035 7.52387991,6.30628929 C7.55288991,6.28624823 7.57686991,6.2585701 7.57686991,6.24425936 C7.57686991,6.22994862 7.55288991,6.21849802 7.52387991,6.21849802 Z M7.11297991,6.17554573 C7.03194991,6.19750358 6.99310991,6.1815169 6.99310991,6.1254481 C6.99310991,6.08011738 6.96912991,6.04313626 6.94179991,6.04313626 C6.91446991,6.04313626 6.90559991,6.08704193 6.92429991,6.1404814 C6.94707991,6.206084 6.93772991,6.2242183 6.89600991,6.19582764 C6.81353992,6.13928717 6.81665992,5.88377121 6.90032991,5.85084447 C6.93676991,5.83629287 6.94827991,5.80312528 6.92813991,5.7792707 C6.90799991,5.75541612 6.85333991,5.76686672 6.80826992,5.80766136 C6.75696992,5.85538055 6.72747992,5.8587224 6.72747992,5.8188711 C6.72747992,5.78427845 6.76894992,5.73036731 6.81977992,5.69958818 C6.95306991,5.61703548 6.87227991,5.56168924 6.71500992,5.6280144 C6.60832992,5.67286342 6.58698992,5.71413977 6.60784992,5.83485779 C6.62510992,5.93506307 6.61048992,5.98564241 6.56421992,5.98564241 C6.51123992,5.98564241 6.50931992,6.00210076 6.55558992,6.05340266 C6.60185992,6.10469452 6.63805992,6.10111181 6.70374992,6.0417112 C6.78189992,5.97013743 6.78740992,5.98301308 6.75959992,6.17698081 C6.73562992,6.34541802 6.74449992,6.38501843 6.80227992,6.36045133 C6.84254991,6.34351126 6.88905991,6.3530551 6.90511991,6.38215829 C6.92118991,6.41126148 7.00796991,6.42319378 7.09690991,6.40864219 C7.21677991,6.38884199 7.24554991,6.36378314 7.20550991,6.31034366 C7.17602991,6.27098411 7.16930991,6.21730378 7.19088991,6.19106074 C7.21461991,6.16409513 7.17865991,6.15765228 7.11297991,6.17554573 Z M7.09978991,4.40077311 C7.08787991,4.39951866 7.07586991,4.40187702 7.06534991,4.40755716 C7.05481991,4.4132373 7.04626991,4.42195822 7.04081991,4.43256583 C7.03537991,4.44318348 7.03328991,4.45518604 7.03483991,4.46699792 C7.03638991,4.47881983 7.04150991,4.48988908 7.04950991,4.4987505 C7.05750991,4.50761192 7.06801991,4.51385405 7.07965991,4.51665398 C7.09129991,4.51944387 7.10351991,4.51867113 7.11470991,4.51441604 C7.12588991,4.51016096 7.13550991,4.50262423 7.14230991,4.49281947 C7.14910991,4.48300467 7.15274991,4.47137343 7.15276991,4.45946119 C7.15348991,4.44469885 7.14832991,4.43025765 7.13840991,4.41926869 C7.12848991,4.40827973 7.11460991,4.40163617 7.09978991,4.40077311 Z M6.60209992,6.15932823 C6.59058992,6.15932823 6.56709992,6.20036372 6.54983992,6.25022049 C6.53256992,6.3000873 6.54048992,6.32608949 6.57068992,6.30557676 C6.62031992,6.27145578 6.64428992,6.16242922 6.60209992,6.15932823 Z M6.34821992,5.76757924 C6.30577992,5.78618521 6.31848992,5.80026514 6.38009992,5.80289446 C6.43595992,5.80551374 6.46736992,5.79167468 6.44962992,5.77211533 C6.43187992,5.75254594 6.38633992,5.75063918 6.34821992,5.76757924 Z M6.14635992,6.27742696 C6.24896992,6.35090749 6.30529992,6.35090749 6.30529992,6.27742696 C6.30529992,6.24569444 6.25279992,6.21992307 6.18543992,6.21968222 C6.09025992,6.21968222 6.08210992,6.23161452 6.14635992,6.27742696 Z M6.19933992,5.28112448 C6.18741992,5.27987003 6.17539992,5.28223843 6.16486992,5.2879286 C6.15433992,5.29360874 6.14577992,5.30234973 6.14034992,5.31297741 C6.13490992,5.32360509 6.13282992,5.33561769 6.13439992,5.3474396 C6.13596992,5.35926152 6.14110992,5.3703408 6.14913992,5.37919218 C6.15716992,5.38804357 6.16769992,5.39427566 6.17935992,5.39704548 C6.19101992,5.39980527 6.20323992,5.39899239 6.21441992,5.39469716 C6.22559992,5.39041196 6.23520992,5.3828351 6.24197992,5.37300023 C6.24874992,5.36315532 6.25234992,5.35149398 6.25231992,5.33957171 C6.25297992,5.32485954 6.24778992,5.31047855 6.23786992,5.29953977 C6.22795992,5.28860098 6.21411992,5.28198754 6.19933992,5.28112448 Z M6.00059992,6.1025469 C5.90661992,6.10469452 5.81815992,6.20488977 5.87593992,6.24425936 C5.89231992,6.25513793 5.91141992,6.26126967 5.93109992,6.26198219 C5.95077992,6.26270476 5.97026992,6.25796796 5.98740992,6.24831373 C6.04854992,6.20632486 6.05932992,6.10350028 6.00059992,6.1025469 Z M5.86945992,5.2801711 C5.83829992,5.2801711 5.84356992,5.31738303 5.88144992,5.36796237 C5.91932992,5.4185417 5.95576992,5.45599449 5.96583992,5.45599449 C5.97590992,5.45599449 5.97038992,5.41639409 5.95360992,5.36796237 C5.93682992,5.31953065 5.90038992,5.28159615 5.86945992,5.2801711 Z M5.46046992,5.65926521 C5.49642992,5.61155605 5.51033992,5.5552464 5.49163992,5.53449282 C5.47293992,5.51373923 5.45759992,5.53066926 5.45759992,5.57218646 C5.45759992,5.61847057 5.41707992,5.63565148 5.35162992,5.61680466 C5.29337992,5.5998646 5.24566992,5.60988011 5.24566992,5.63922415 C5.24683992,5.65431767 5.25392992,5.66833737 5.26541992,5.67825253 C5.27690992,5.68816768 5.29186992,5.69317544 5.30703992,5.69219195 C5.34227992,5.69219195 5.32885992,5.73991114 5.27539992,5.8057546 C5.16223992,5.9441252 5.20514992,6.04433049 5.35858992,6.00043486 C5.43050992,5.97944042 5.48827992,6.00210076 5.51992992,6.0646124 C5.57769992,6.17864672 5.70428992,6.19225497 5.73568992,6.08846698 C5.77020992,5.97658028 5.66376992,5.82198213 5.52112992,5.78165917 C5.41707992,5.75207427 5.40652992,5.73107983 5.46046992,5.65926521 Z M5.50817992,5.04445534 C5.55036992,5.07427106 5.60407992,5.08524998 5.62804992,5.06830992 C5.70188992,5.01773059 5.67407992,4.98790484 5.55108992,4.9886274 C5.45735992,4.98982164 5.44800992,5.00246647 5.50817992,5.04445534 Z M5.47584992,4.58499629 C5.46520992,4.59061622 5.45653992,4.59934717 5.45101992,4.61000496 C5.44548992,4.62066275 5.44335992,4.63274559 5.44490992,4.64463775 C5.44646992,4.65652992 5.45163992,4.66766942 5.45971992,4.67656094 C5.46780992,4.68545247 5.47842992,4.69168456 5.49015992,4.69441424 C5.50189992,4.69714392 5.51418992,4.69624072 5.52539992,4.6918351 C5.53660992,4.68742948 5.54619992,4.67972215 5.55288992,4.66974678 C5.55957992,4.65977141 5.56304992,4.64799967 5.56283992,4.63600715 C5.56349992,4.62126488 5.55830992,4.60685379 5.54840992,4.5958849 C5.53849992,4.58490597 5.52465992,4.57824234 5.50985992,4.57731907 C5.49860992,4.57709829 5.48648992,4.57936633 5.47584992,4.58499629 Z M5.45135992,4.7543367 C5.42235992,4.7543367 5.41324992,4.7808206 5.43122992,4.81303482 C5.43985992,4.82881076 5.45210992,4.84234876 5.46697992,4.85254491 C5.48184992,4.86273102 5.49891992,4.86930433 5.51680992,4.87172291 C5.54605992,4.87172291 5.55516992,4.845239 5.53718992,4.81303482 C5.52852992,4.79721874 5.51623992,4.78367071 5.50132992,4.77347456 C5.48641992,4.76327841 5.46929992,4.75671514 5.45135992,4.7543367 Z M5.24566992,5.16827436 C5.24566992,5.2023853 5.26772992,5.21599355 5.29361992,5.19690587 C5.31950992,5.17781819 5.37823992,5.20357953 5.42211992,5.25225211 C5.53526992,5.37726535 5.57554992,5.36176038 5.49738992,5.22338977 C5.46142992,5.15944304 5.39070992,5.1071978 5.33796992,5.10600357 C5.28761992,5.10600357 5.24566992,5.13415338 5.24566992,5.16827436 Z M4.95941992,5.81601096 C5.04500992,5.92098315 5.06298992,5.92527838 5.07736992,5.84535501 C5.08695992,5.79335062 5.11668992,5.74992666 5.14377992,5.74992666 C5.17086992,5.74992666 5.19172992,5.73680011 5.19172992,5.72058261 C5.19172992,5.70435508 5.11668992,5.69123857 5.02390992,5.69123857 C4.85777992,5.69219195 4.85777992,5.69219195 4.95941992,5.81601096 Z M5.01407992,5.25225211 C5.03086992,5.2999713 5.06586992,5.32526097 5.09199992,5.30736752 C5.16607992,5.25678819 5.14761992,5.16612674 5.06154992,5.16421998 C5.01407992,5.16469165 4.99609992,5.19905349 5.01407992,5.25225211 Z M4.73646992,5.15706461 C4.78441992,5.21431761 4.82205992,5.29233422 4.82205992,5.33002787 C4.82205992,5.36772151 4.84602992,5.3987415 4.87503992,5.3987415 C4.94695992,5.3987415 4.94143992,5.32048403 4.86160992,5.22839753 C4.80838992,5.16708012 4.81365992,5.13940199 4.88558992,5.08691589 C5.00664992,4.99959629 4.96445992,4.96595702 4.79208992,5.01343536 C4.66070992,5.05041648 4.65687992,5.05996032 4.73646992,5.15706461 Z M4.68228992,5.90930173 C4.70410992,5.93315631 4.74389992,5.91406864 4.77098992,5.8665903 C4.85249992,5.72344275 4.82804992,5.66045944 4.73238992,5.76638501 C4.68324992,5.8207879 4.66046992,5.88543712 4.68228992,5.90930173 Z M4.60916992,5.42593792 C4.63889992,5.44621984 4.66310992,5.4216427 4.66310992,5.37154507 C4.66310992,5.32143741 4.65351992,5.28374376 4.63913992,5.2801711 C4.58375992,5.2801711 4.56025992,5.39253951 4.60916992,5.42593792 Z M4.23925492,5.39730641 C4.18099992,5.43189906 4.13328992,5.47317541 4.13328992,5.48940295 C4.13328992,5.50562045 4.18123992,5.48940295 4.23925492,5.45599449 C4.29726992,5.42259608 4.34521992,5.37989467 4.34521992,5.36390799 C4.34521992,5.34792131 4.29726992,5.36271376 4.23925492,5.39730641 Z M4.14695992,5.06115455 C4.09373992,5.11459403 4.04674992,5.20859732 4.04242992,5.27014555 C4.03595992,5.36772151 4.05105992,5.3739235 4.15941992,5.31786474 C4.23325992,5.27944853 4.26082992,5.23698799 4.22750992,5.21407675 C4.19418992,5.19117555 4.18746992,5.12938647 4.20736992,5.07092921 C4.24140992,4.97096478 4.23733992,4.9704931 4.14695992,5.06115455 Z M3.95612992,5.65807097 C3.93646992,5.7148523 3.95244992,5.73235435 4.00407992,5.71055707 C4.08701992,5.67525189 4.10931992,5.57480575 4.03331992,5.57313984 C4.00694992,5.57313984 3.97242992,5.6113152 3.95612992,5.65807097 Z M3.99064992,5.07117006 C4.04290992,5.04922225 4.07215992,5.0162955 4.05585992,4.99817124 C4.03955992,4.98003694 3.99687992,4.99817124 3.95995992,5.03825335 C3.90889992,5.09621888 3.91512992,5.10290257 3.99064992,5.07117006 Z M3.89858992,5.16278489 C3.88588992,5.16278489 3.86070992,5.18926879 3.84248992,5.22147298 C3.82426992,5.25368719 3.83505992,5.2801711 3.86646992,5.2801711 C3.88170992,5.27972953 3.89615992,5.27331679 3.90665992,5.26231779 C3.91716992,5.25132883 3.92288992,5.23664678 3.92256992,5.22147298 C3.92256992,5.18926879 3.91201992,5.16278489 3.89858992,5.16278489 Z M3.55120992,5.89546267 C3.53533992,5.90836843 3.52244992,5.92453575 3.51342992,5.94286072 C3.50440992,5.96118569 3.49946992,5.98122675 3.49894992,6.00162909 C3.49894992,6.04361796 3.52028992,6.03622174 3.55120992,5.98349479 C3.61689992,5.87088553 3.61689992,5.85060361 3.55120992,5.89546267 Z M3.44524992,4.8404721 C3.41599992,4.86027231 3.39226992,4.91466516 3.39226992,4.96119012 C3.39226992,5.07331768 3.30332992,5.06878159 3.24530992,4.95403475 C3.20766992,4.8795908 3.18872993,4.87673066 3.14437993,4.9392423 C3.04704993,5.07641867 3.02930993,5.27324654 3.10769993,5.34482031 C3.14893993,5.38299567 3.19831992,5.39706556 3.21701992,5.37631197 C3.23571992,5.35555839 3.22324992,5.33861833 3.18920993,5.33861833 C3.15516993,5.33861833 3.12783993,5.29257507 3.12831993,5.23602457 C3.12831993,5.15014006 3.13694993,5.14727992 3.17817993,5.21980707 C3.20550992,5.26752626 3.24458992,5.28708561 3.26520992,5.26418441 C3.28582992,5.24128321 3.33856992,5.25488143 3.38171992,5.29472269 C3.44836992,5.35603006 3.45507992,5.34768046 3.42414992,5.24056065 C3.40424992,5.17089364 3.41288992,5.09741311 3.44308992,5.07641867 C3.47329992,5.05542424 3.49822992,4.98599808 3.49822992,4.92134886 C3.49822992,4.8566896 3.47425992,4.82043105 3.44524992,4.8404721 Z M3.15396993,5.86634944 C3.11009993,5.86634944 3.07437993,5.83986554 3.07437993,5.80766136 C3.07437993,5.77545718 3.11009993,5.74897328 3.15396993,5.74897328 C3.19783992,5.74897328 3.23331992,5.77545718 3.23331992,5.80766136 C3.23331992,5.83986554 3.19759993,5.86634944 3.15396993,5.86634944 Z M2.94060993,5.04683378 C2.89624993,5.08763845 2.87083993,5.13295914 2.88426993,5.14775159 C2.92094993,5.18831541 3.02139993,5.10576271 3.02139993,5.03491151 C3.02139993,4.9964953 2.99166993,5.00031885 2.94060993,5.04683378 Z M2.75336993,6.21801631 C2.72244993,6.21801631 2.71213993,6.19153241 2.72939993,6.15932823 C2.74665993,6.12711401 2.77254993,6.10064014 2.78549993,6.10064014 C2.79843993,6.10064014 2.80946993,6.12711401 2.80946993,6.15932823 C2.80978993,6.17449199 2.80407993,6.18917405 2.79356993,6.20017304 C2.78305993,6.21116201 2.76860993,6.21757474 2.75336993,6.21801631 Z M2.72483993,5.00460405 C2.69654993,4.99410683 2.67329993,5.03562403 2.67329993,5.09694144 C2.67329993,5.16517336 2.70038993,5.19666502 2.74353993,5.17828987 C2.82001993,5.14584483 2.80802993,5.03514232 2.72483993,5.00460405 Z M2.59010993,5.57313984 C2.62678993,5.57313984 2.64164993,5.60606659 2.62318993,5.64637952 C2.60472993,5.68670249 2.62798993,5.66714314 2.67497993,5.60319641 C2.76823993,5.47556388 2.68695993,5.3920578 2.58243993,5.50776806 C2.53904993,5.55572811 2.54119993,5.57313984 2.59010993,5.57313984 Z M2.49157993,4.95760742 C2.46256993,4.93780721 2.43859993,4.94925781 2.43859993,4.98360961 C2.43752993,4.99879345 2.44247993,5.01378661 2.45237993,5.0253777 C2.46227993,5.0369688 2.47634993,5.0442446 2.49157993,5.04563954 C2.52082993,5.04563954 2.54455993,5.03395813 2.54455993,5.01963735 C2.54455993,5.00532661 2.52058993,4.97764847 2.49157993,4.95760742 Z M2.41845993,5.78141831 C2.45369993,5.67978797 2.49037993,5.66212535 2.49037993,5.74563143 C2.48864993,5.76360515 2.48309993,5.78100685 2.47408993,5.79668243 C2.46507993,5.81235801 2.45281993,5.82593615 2.43811993,5.83653373 C2.40934993,5.85704646 2.40047993,5.83343273 2.41845993,5.78141831 Z M1.63763993,6.03383327 C1.57793993,5.92695432 1.61941993,5.9061907 1.78650993,5.97060911 C1.87507993,6.00489065 1.97303993,6.00649635 2.06268993,5.97514519 C2.21276993,5.91358693 2.23769993,5.92886108 2.17416993,6.04266458 C2.11470993,6.1483493 1.69732993,6.14071222 1.63763993,6.03383327 Z M1.52951993,4.92706914 C1.50673993,5.00222561 1.27251993,5.06210793 1.27251993,4.99268178 C1.27251993,4.91847868 1.38998993,4.83307588 1.55060993,4.7906053 C1.63068993,4.76937 1.69636993,4.72618689 1.69636993,4.69517695 C1.69584993,4.68781083 1.69681993,4.6804146 1.69921993,4.6734198 C1.70161993,4.66643504 1.70539993,4.6599922 1.71032993,4.65447263 C1.71526993,4.64896309 1.72126993,4.64448722 1.72796993,4.64131598 C1.73466993,4.63814473 1.74193993,4.63633833 1.74935993,4.63600715 C1.85171993,4.63600715 1.80113993,4.75529008 1.67527993,4.80945212 C1.60550993,4.8399904 1.53982993,4.89247649 1.52951993,4.92706914 Z M1.37847993,5.63373469 C1.36657993,5.63498913 1.35456993,5.63262074 1.34403993,5.62695063 C1.33350993,5.62127049 1.32495993,5.61254957 1.31950993,5.60194196 C1.31406993,5.59132432 1.31197993,5.57932176 1.31352993,5.56750988 C1.31508993,5.55568797 1.32019993,5.54461872 1.32819993,5.5357573 C1.33619993,5.52689588 1.34671993,5.52065375 1.35835993,5.51785382 C1.36999993,5.51505389 1.38220993,5.51583667 1.39339993,5.52009176 C1.40457993,5.52434684 1.41420993,5.53188356 1.42099993,5.54168833 C1.42779993,5.55150313 1.43144993,5.56313437 1.43146993,5.5750466 C1.43218993,5.58980894 1.42701993,5.60425015 1.41709993,5.61523911 C1.40717993,5.62622807 1.39329993,5.63287163 1.37847993,5.63373469 Z M1.23271993,6.0147456 C1.22086993,5.95280598 1.19638993,5.89394729 1.16079993,5.84178234 C1.08240993,5.75040836 1.10613993,5.69219195 1.22217993,5.69219195 C1.28210993,5.69219195 1.31806993,5.71604653 1.30128993,5.74587228 C1.29707993,5.75162267 1.29415993,5.75820601 1.29272993,5.76518074 C1.29128993,5.77215547 1.29136993,5.77935098 1.29295993,5.78628557 C1.29454993,5.79323019 1.29760993,5.79974329 1.30193993,5.80540335 C1.30626993,5.81107346 1.31176993,5.81574 1.31806993,5.81911196 C1.34419993,5.83009089 1.34084993,5.90381227 1.31039993,5.98611408 C1.26076993,6.11995864 1.25429993,6.12234711 1.23271993,6.0147456 Z M0.960377931,5.95590698 C0.930925931,5.95122036 0.900751931,5.95431132 0.872879931,5.96488882 C0.804075932,5.99423287 0.789451932,5.98468903 0.819897932,5.93029617 C0.850344931,5.87589328 0.830206932,5.86539606 0.735750932,5.8947401 L0.609888932,5.93410969 L0.739106932,5.81935281 C0.842432931,5.72726631 0.892298931,5.71699991 0.990589931,5.76638501 C1.05819993,5.80050599 1.11333993,5.87994766 1.11333993,5.94341268 C1.11333993,6.03407413 1.09798993,6.04433049 1.04140993,5.99113187 C1.01752993,5.97290725 0.989830931,5.96060363 0.960377931,5.95590698 Z M0.822055932,4.95140543 C0.778423932,4.93279946 0.742702932,4.90726894 0.742702932,4.8946241 C0.742702932,4.88197927 0.778423932,4.87076953 0.822055932,4.87076953 C0.865687931,4.87076953 0.901647931,4.89653086 0.901647931,4.92755085 C0.901647931,4.9585608 0.865927931,4.96929887 0.822055932,4.95140543 Z M0.688761932,5.49321647 C0.688761932,5.3739235 0.664788932,5.3739235 0.488102932,5.49965931 C0.357925933,5.59174581 0.350973933,5.59222752 0.414743933,5.50300116 C0.474677933,5.41902341 0.468923933,5.39373374 0.374947933,5.32883363 C0.314293933,5.28708561 0.264908933,5.23340528 0.264908933,5.20692138 C0.264908933,5.18043748 0.322684933,5.20286701 0.393406933,5.25464057 C0.480924932,5.31124126 0.581514932,5.34465975 0.685645932,5.35173483 C0.865447931,5.35746515 0.889660931,5.40446178 0.769073932,5.51492343 C0.703146932,5.57528746 0.688761932,5.57123308 0.688761932,5.49321647 Z M0.635780433,5.1336817 C0.606532932,5.1138815 0.582798932,5.0578127 0.582798932,5.00962184 C0.582798932,4.96143097 0.606772932,4.93804807 0.635780433,4.95784827 C0.664788932,4.97764847 0.688761932,5.03371727 0.688761932,5.08190814 C0.688761932,5.130099 0.664788932,5.15348191 0.635780433,5.1336817 Z M0.556667932,5.73012645 C0.504404932,5.81266911 0.441593933,5.84464248 0.371351933,5.82411971 C0.225351933,5.78213084 0.236379933,5.67715865 0.384057933,5.70078241 C0.418072933,5.70541885 0.452713933,5.70151501 0.484827932,5.68943217 C0.516941932,5.67734933 0.545510932,5.65746884 0.567934932,5.63158707 C0.659274932,5.50634301 0.651123932,5.58029521 0.556667932,5.73012645 Z M0.0795924336,5.63135625 C0.0357207337,5.59103329 -3.23039928e-10,5.53591787 6.00630656e-14,5.50872144 C3.23260085e-10,5.48152501 0.0357207337,5.47412879 0.0795924336,5.49273476 C0.102648934,5.5042255 0.122179933,5.52166734 0.136139933,5.54324384 C0.150100933,5.56482034 0.157976933,5.58972866 0.158944933,5.61536957 C0.158944933,5.68694334 0.144081933,5.69075686 0.0795924336,5.63135625 Z" id="Shape"></path>
            </g>
        </g>
    </g>
</svg>