<?xml version="1.0" encoding="UTF-8"?>
<svg width="15px" height="18px" viewBox="0 0 15 18" version="1.1" xmlns="http://www.w3.org/2000/svg" xmlns:xlink="http://www.w3.org/1999/xlink">
    <title>DAD48193-1D0C-4907-9C05-554FBB5E8E3E</title>
    <g id="Contact" stroke="none" stroke-width="1" fill="none" fill-rule="evenodd">
        <g id="Contact-Page-3" transform="translate(-535.000000, -549.000000)" fill="#000000">
            <g id="Contact-Form-Intro" transform="translate(0.000000, 220.000000)">
                <g id="CTA/upload" transform="translate(446.498311, 329.000000)">
                    <g id="upload-3" transform="translate(88.957782, 0.566071)">
                        <path d="M14.9310181,6.56609339 C14.9394753,6.61341048 14.925761,6.74022923 14.9006181,6.84773488 C14.8731895,6.9689599 14.8819895,7.08010443 14.9251895,7.13917425 C14.944961,7.17111152 14.9576467,7.20708805 14.9624467,7.24456017 C14.9671324,7.28204407 14.9638181,7.32012856 14.9526181,7.35614042 C14.9290753,7.42277061 14.9022181,7.6330243 14.8928467,7.82339963 C14.8608467,8.49334039 14.3175324,9.35001761 13.437761,10.1134738 C13.2379895,10.287327 12.7432467,10.729385 12.3382181,11.0952858 C11.2119324,12.1140635 10.0907895,13.0519264 8.95810379,13.9251493 C7.46678949,15.0729832 7.43993235,15.0839352 7.08324663,14.728056 C6.8122752,14.4579081 6.79558949,14.191882 7.03524663,13.9777892 C7.18930378,13.8400068 7.19364664,13.8226956 7.09581806,13.7414393 C6.95227521,13.6222634 6.96324663,13.4757664 7.13261806,13.2442448 C7.21090378,13.1373162 7.26347521,13.0127349 7.24953235,12.9673845 C7.21616092,12.8576413 7.6363895,12.2212865 7.95616093,11.8976508 C8.0963895,11.7559939 8.21970379,11.6398092 8.23010379,11.6398092 C8.24050379,11.6398092 8.33341807,11.550227 8.43673236,11.4404838 C8.54004664,11.3307407 8.95044665,10.9432776 9.34850379,10.579049 C9.74667522,10.2148205 10.0915895,9.88222301 10.1157038,9.83911005 C10.1464467,9.78311384 10.0682752,9.77331597 9.83078951,9.80579495 C9.27981808,9.88138689 10.3870867,9.88978338 10.3062638,9.85451342 C10.2895438,9.8472239 10.037761,9.84079406 9.74651526,9.84022879 C9.45526954,9.83967531 9.20128097,9.81055257 9.18210382,9.77528261 C9.17746382,9.76700389 9.17114382,9.75983213 9.16356668,9.7542384 C9.15600097,9.74865645 9.14734954,9.74478205 9.13820668,9.74287429 C9.12905239,9.74096653 9.11961239,9.74107252 9.11050382,9.74318048 C9.10139525,9.74528843 9.09283525,9.74936302 9.08538382,9.75512162 C9.05114382,9.77920411 8.95962382,9.76016187 8.88181811,9.71284478 C8.80400096,9.66553947 8.69358953,9.64929998 8.63029811,9.68009495 C8.56700668,9.71088992 8.30152096,9.7385995 8.03574953,9.74532376 C7.6609381,9.75483899 7.53326953,9.7332884 7.47080095,9.64985346 C7.39874381,9.55354705 7.39380667,9.55523106 7.42476667,9.66581032 C7.44366953,9.73412452 7.4390181,9.77780274 7.41462953,9.7657556 C7.39025238,9.75372025 7.29572667,9.69997331 7.20530381,9.64873471 C7.07790952,9.57651079 7.02146381,9.57399067 6.95460667,9.63698199 C6.90721238,9.68176718 6.76062952,9.94417958 6.62912095,9.9335456 C6.42581809,9.91702348 6.39403523,9.89350573 6.41595523,9.77648484 C6.43267523,9.68745617 6.0178638,9.88846587 5.97155523,9.80252258 C5.94853809,9.760811 5.90059523,9.76752351 5.84387523,9.82071696 C5.7682638,9.89210477 5.75648094,9.88539171 5.77373809,9.77984091 C5.78497237,9.71013712 5.61921237,9.83835761 5.52880094,9.85486795 C5.40496094,9.87754906 5.39536094,9.86634907 5.46166951,9.77564817 C5.49802935,9.72590651 4.94548052,9.92174592 4.07924661,9.83911005 C3.36575018,9.77104483 2.31139521,9.65485775 2.31139521,9.63855019 C2.31139521,9.60243234 2.26509806,9.28739282 2.20837806,9.22300013 C2.11112092,9.11270349 2.11357806,9.10878127 2.25084663,9.15833585 C2.33621806,9.1905322 2.14535569,9.49814323 1.7714189,9.52932874 C1.64653025,9.53974418 1.57048512,9.4548014 1.43917458,9.45235378 C1.16822043,9.4473032 0.903888667,9.40785107 0.729931743,9.30503385 C0.678068408,9.27438003 -0.413396216,9.22210835 -0.44374703,8.93204213 C-0.450506402,8.86744203 -0.749739035,9.0391368 -0.743336825,8.85337658 C-0.735607636,8.6277546 -0.851832643,8.17187901 -0.743336825,7.87958426 C-0.649933818,7.62795052 -0.332939814,7.52120933 -0.291725955,7.51124579 C-0.178845954,7.4832418 0.243863981,7.19507493 0.264686838,7.2337129 C0.286829542,7.27436763 0.473560623,7.07027902 0.665571894,7.06097834 C0.977302589,7.04587866 1.34341806,7.19860655 1.34341806,7.1693326 C1.34341806,7.11754052 1.39136091,7.0979327 1.4645152,7.1197777 C1.53136091,7.13937343 1.58616092,7.19059994 1.58670949,7.2337129 C1.58725806,7.27682586 1.61410377,7.26507309 1.64616092,7.20824076 C1.67821806,7.15140844 1.70534949,7.13909113 1.70589806,7.18024923 C1.70644663,7.22139555 1.79438949,7.25836128 1.90124663,7.26200015 C2.04234378,7.26647513 2.07138378,7.25080113 2.00728092,7.20600416 C1.87356663,7.10998038 2.26837806,7.09681355 2.28811521,7.06097834 C2.30784092,7.02514312 3.6473495,6.86557502 3.70899522,6.86557502 C3.78379522,6.86557502 4.07660665,6.92968549 4.09372665,6.90252939 C4.11083522,6.87536151 4.1346295,6.85325709 4.1627095,6.83841898 C4.29970379,6.77934916 4.30956665,6.78466008 4.2723095,6.89440323 C4.2175095,7.05622108 4.62629808,6.79866241 4.68547522,6.79866241 C4.80657237,6.79866241 4.99189808,6.88937518 4.98960094,6.87872942 C4.97918951,6.82273321 5.0427438,6.79894505 5.18001237,6.80957903 C5.33316665,6.82106091 5.46358951,6.90616817 5.6367438,6.80061738 C5.67585237,6.77933764 5.71908666,6.76718384 5.76333809,6.76506411 C5.80760094,6.76293261 5.85176094,6.77086958 5.89265237,6.78829847 C5.97182952,6.82161357 6.1197838,6.81937634 6.23430952,6.78325849 C6.35760095,6.7446323 6.46445809,6.7446323 6.50828666,6.78325849 C6.60994381,6.87313506 6.85926952,6.93499628 6.81872095,6.86025224 C6.77816095,6.78550819 6.82994381,7.01095412 7.2861381,7.002275 C7.47490381,6.99863613 7.6176581,7.01711311 7.60313238,7.04371573 C7.59742953,7.0600612 7.59754381,7.07794937 7.60345238,7.09423596 C7.60936096,7.11051078 7.6206981,7.12414771 7.63546381,7.13273262 C7.66752096,7.15541374 7.72040096,7.11762366 7.75273239,7.0487442 C7.79820667,6.95243778 7.89574953,6.92025321 8.18041239,6.90736996 C8.38344096,6.89840821 8.60700668,6.92584695 8.67742953,6.96867727 C8.77413811,7.02747624 8.81633239,7.02607486 8.85030954,6.96363703 C8.87989811,6.90932483 9.02730382,6.88861035 9.28156668,6.90316583 C9.49389811,6.91521297 9.69610383,6.90513247 9.73061811,6.88049649 C9.8166524,6.81917741 10.9575324,6.78923033 11.008161,6.84689877 C11.0306753,6.87237086 11.0840467,6.86061813 11.126561,6.81890655 C11.1814181,6.76738533 11.2424467,6.7696346 11.3367324,6.82673778 C11.4367324,6.8874916 11.4800467,6.88777423 11.5123896,6.82813916 C11.5446181,6.76850408 11.6186753,6.77214295 11.8022181,6.84521476 C11.9904467,6.91885184 12.0419896,6.92164281 12.0197038,6.85613137 C11.9975324,6.79063171 12.0981038,6.77215472 12.403361,6.77551096 C12.8055324,6.78026858 3.04141804,6.71475714 4.07924661,6.65372068 C4.36370376,6.63692771 5.10038948,6.606698 5.71638948,6.58653701 C7.61261807,6.52409917 8.77261807,6.4647585 8.80416093,6.42835802 C8.82084665,6.40931578 7.97696093,6.41492129 6.92896092,6.44095864 C5.07250376,6.48714521 4.52450376,6.46307449 5.62564663,6.38496243 C5.9250752,6.36341184 6.68793235,6.32617525 7.31993235,6.30237539 L8.47067522,6.25869717 L7.7251895,5.85472368 C7.31421806,5.63327074 6.79718949,5.30068506 6.57444663,5.11534998 C6.1650752,4.77379077 5.59170377,4.48515416 5.32210377,4.48515416 C5.14233234,4.48515416 4.77113233,4.12848599 4.83296091,4.01482134 C4.85684662,3.97087226 4.99901805,3.93475441 5.14896091,3.93475441 C5.46153234,3.93475441 5.45604662,3.83901326 5.13444662,3.68614538 C4.90621805,3.57780361 4.86621805,3.41683365 5.05216091,3.35020346 C5.14393234,3.31715922 5.16450376,3.26621503 5.13741805,3.14358864 C5.10998948,3.02460111 5.13547519,2.95685217 5.22804662,2.89162336 C5.29764662,2.84235141 5.35467519,2.76956223 5.35467519,2.73008814 C5.35467519,2.56211129 5.7338752,2.42213254 6.44896092,2.32106616 C7.54244664,2.16736805 7.76221807,2.18108624 8.4651895,2.45040739 C9.16827522,2.71972501 11.3384467,3.72618473 12.2267895,4.19623492 C13.0509038,4.6321339 14.604161,5.56999679 14.8451895,5.77689425 C15.0079324,5.9168671 15.0422181,5.99217641 15.0422181,6.21306408 C15.0422181,6.35977297 15.0147895,6.47986747 14.9789038,6.47986747 C14.944161,6.4801501 14.9224467,6.51878807 14.9310181,6.56609339 Z M14.2550181,5.19989189 C13.8567324,4.88017768 12.5328467,4.10413264 11.720961,3.71610423 C10.1554752,2.96469518 8.92496093,2.42045207 8.61673236,2.34262264 C8.43787522,2.29726983 8.23753236,2.21972067 8.17181807,2.16988699 C8.08690378,2.11387548 7.98861807,2.08251995 7.88770378,2.0791802 C7.79730378,2.0791802 7.70633235,2.04838523 7.68576092,2.01031134 C7.56187521,1.78270295 8.70107522,2.09010035 9.81238951,2.58422714 C12.6464467,3.84405351 14.6565038,5.03107892 14.9279324,5.60304103 C14.9755895,5.70325717 14.9485038,5.6982287 14.7559324,5.57111554 C14.6304467,5.48573752 14.404961,5.32028079 14.2550181,5.19989189 Z M8.54164664,2.90421705 C8.50381807,2.90421705 8.88141808,3.09263267 9.38118951,3.3224821 C11.3321609,4.22003478 13.3571895,5.2768852 13.797761,5.62767701 C13.8643895,5.68058783 13.946561,5.72258205 13.9808467,5.72118067 C14.1222181,5.71557516 13.6330753,5.35386674 12.9229038,4.93729263 C11.7850752,4.27351087 8.83124665,2.90170386 8.54164664,2.90421705 Z M8.59044664,4.01957895 C8.57730379,4.03441707 9.21318951,4.3513403 10.0031324,4.72396533 C10.7929609,5.09659036 11.7499895,5.56692319 12.129761,5.76905124 C12.866561,6.16100115 13.2566181,6.27298179 12.6503324,5.9168671 C12.450561,5.79984622 11.8936467,5.51316447 11.4091895,5.27800395 C10.2237038,4.70268559 8.61947522,3.98654649 8.59044664,4.01957895 Z M7.47398949,4.65929 C6.67524663,4.23934788 6.19661806,4.0811689 6.77753235,4.42832184 C7.14267521,4.64641853 9.63844665,5.82812106 10.2570752,6.07561135 C10.9486181,6.35248345 10.4250752,6.06049061 9.32027522,5.55320382 C8.68770379,5.26260057 7.85673235,4.86029932 7.47398949,4.65929 Z M4.75353233,6.51151033 C4.74553233,6.51646815 4.73661805,6.51962419 4.72724662,6.52077826 C4.71798948,6.52193234 4.70850376,6.52104912 4.69958948,6.51818748 C4.69067519,6.51532585 4.68244662,6.51055645 4.67547519,6.50419726 C4.66838948,6.49782629 4.66290376,6.49001862 4.65901805,6.48126885 C4.63821805,6.44263087 4.6633609,6.41128242 4.71547519,6.41128242 C4.82176091,6.41128242 4.83741805,6.45271137 4.75353233,6.51151033 Z M2.35787517,8.33741068 C2.42930375,8.37211537 2.44358946,8.39843536 2.39296089,8.40123811 C2.34221803,8.40404086 2.32358946,8.42475534 2.34358946,8.44742468 C2.39833232,8.50901462 2.51650375,8.40654921 2.47616089,8.33264128 C2.45730375,8.29793659 2.39696089,8.27133397 2.3392466,8.27328883 C2.25673232,8.27721034 2.25890375,8.28897484 2.35787517,8.33741068 Z M2.38793232,7.85587861 C2.37056089,7.85744486 1.3544466,7.86595911 1.34313232,7.87958426 C1.33181803,7.89319764 1.32610375,7.91083851 1.32747517,7.92866779 C1.32747517,7.96869537 2.35478946,7.98241473 2.38793232,7.9588975 C2.42107517,7.93538027 2.44850375,7.90290129 2.44850375,7.88610832 C2.44850375,7.86931535 2.42107517,7.85587861 2.38793232,7.85587861 Z M12.2422181,6.96168216 C12.2090753,6.96168216 12.1816467,6.9751189 12.1816467,6.99191187 C12.1816467,7.00871662 12.2090753,7.04146646 12.2422181,7.06471283 C12.275361,7.08794743 12.3027896,7.0745107 12.3027896,7.03447135 C12.3040467,7.01664206 12.2984467,6.99901297 12.2871324,6.98538781 C12.2758181,6.97176266 12.2597038,6.96324841 12.2422181,6.96168216 Z M11.7581038,7.30546709 C11.7247324,7.30546709 11.6975324,7.31918645 11.6975324,7.33570857 C11.6975324,7.35223069 11.724961,7.38526316 11.7581038,7.40878039 C11.7912467,7.43229762 11.8186753,7.41829562 11.8186753,7.37825627 C11.8199324,7.36045054 11.8142181,7.34285678 11.8029038,7.32925517 C11.7915896,7.31565357 11.7754753,7.30711577 11.7581038,7.30546709 Z M11.5765038,8.99082931 C11.5430181,8.96731208 11.5159324,8.97907659 11.5159324,9.0171493 C11.5175324,9.03917094 11.5237038,9.06059199 11.5342181,9.07992864 C11.5446181,9.09925352 11.5590181,9.11604649 11.5765038,9.12912994 C11.6096467,9.15264717 11.636961,9.14061181 11.636961,9.10280995 C11.635361,9.08080009 11.6290753,9.05941436 11.6186753,9.04008949 C11.608161,9.02077639 11.593761,9.00397164 11.5765038,8.99082931 Z M10.2617724,8.07697826 C10.2513267,8.09630313 10.2450981,8.11772418 10.243521,8.1397576 C10.243521,8.17754768 10.2709153,8.18930041 10.3040695,8.16579496 C10.3214867,8.15269973 10.3359095,8.13591853 10.3463667,8.11658188 C10.3568124,8.09724523 10.363041,8.07583596 10.3646181,8.05380254 C10.3646181,8.01601246 10.3372238,8.00424795 10.3040695,8.02749433 C10.2866638,8.04086041 10.2722295,8.05764161 10.2617724,8.07697826 Z M10.0947438,7.81079901 C10.081373,7.81664445 9.0686178,7.82445333 9.05706763,7.83351941 C9.02436001,7.85919262 10.0013153,7.89494734 10.0013153,7.92474629 C10.0013153,7.97570225 10.0399438,7.97457173 10.1276238,7.92139005 C10.2681724,7.83600025 10.241601,7.74668895 10.0947438,7.80939764 L10.0947438,7.81079901 Z M10.1221495,6.96168216 C10.1047438,6.96331907 10.0886638,6.97185687 10.0773495,6.98545847 C10.0660238,6.99907185 10.0603781,7.01665384 10.0615895,7.03447135 C10.0615895,7.0745107 10.0889953,7.08821829 10.1221495,7.06471283 C10.1552924,7.0411956 10.1826981,7.00871662 10.1826981,6.99191187 C10.1826981,6.9751189 10.1552924,6.96168216 10.1221495,6.96168216 Z M9.9076124,8.81641084 C9.85912097,8.77077776 9.81747526,8.74475218 9.81500668,8.7587424 C9.76020668,9.07089624 9.76020668,9.07006012 9.9424124,9.03869989 C10.046801,9.02134165 10.1221495,8.96702945 10.1221495,8.90936101 C10.1221495,8.85169257 10.0947438,8.82985935 10.0588581,8.85337658 C10.0243324,8.87940216 9.95611526,8.8620557 9.9076124,8.81641084 Z M9.8656924,9.39229445 C9.82404668,9.4113367 9.85802383,9.42701093 9.94131526,9.42701093 C10.0246067,9.42701093 10.0585838,9.4113367 10.0169381,9.39229445 C9.96824097,9.37325221 9.91438954,9.37325221 9.8656924,9.39229445 Z M9.88076669,8.33741068 C9.86336097,8.33904758 8.84728097,8.34758538 8.83596668,8.36118698 C8.8246524,8.37478859 8.81899526,8.39238235 8.82021811,8.41019986 C8.82021811,8.45022743 9.8476124,8.4639468 9.88076669,8.44042957 C9.91392097,8.41691234 9.94131526,8.38443336 9.94131526,8.36764038 C9.94131526,8.35084741 9.91392097,8.33741068 9.88076669,8.33741068 Z M8.82021811,8.57816493 C8.78706383,8.5546477 8.75965811,8.56836707 8.75965811,8.60840642 C8.75844668,8.62621215 8.76410383,8.64380591 8.77541811,8.65741929 C8.7867324,8.67102089 8.8028124,8.6795587 8.82021811,8.6811956 C8.85363526,8.6811956 9.88076669,8.66747623 9.88076669,8.65095411 C9.88076669,8.63444377 8.85336097,8.60141131 8.82021811,8.57816493 Z M8.68787526,7.80884415 C8.63938383,7.83067737 9.65390954,7.84719949 9.72432097,7.8502731 C9.78816097,7.85335849 9.82404668,7.837119 9.8037724,7.81415525 C9.78349811,7.79120328 8.73144097,7.78896579 8.68787526,7.80884415 Z M9.69910954,7.23688204 C9.66596668,7.23688204 8.63856097,7.25031877 8.63856097,7.26712352 C8.63856097,7.2839165 9.66596668,7.31639548 9.69910954,7.33991271 C9.73226383,7.36341816 9.75965811,7.34971057 9.75965811,7.30967122 C9.76094954,7.29184193 9.75532668,7.27421284 9.74398954,7.26058769 C9.73266383,7.24697431 9.71653811,7.23844828 9.69910954,7.23688204 Z M9.36621811,8.94436012 C9.38266382,8.96311973 9.36621811,9.01966942 9.3284124,9.07034275 C9.24347525,9.18679838 9.31306382,9.19128514 9.42758954,9.07678438 C9.54211525,8.96227184 9.53965811,8.91047976 9.42758954,8.91047976 C9.37717811,8.91047976 9.34978382,8.9256005 9.36621811,8.94436012 Z M9.36923525,9.46087951 C9.32074382,9.46087951 9.2955324,9.48719949 9.31306382,9.51911321 C9.31725811,9.52672068 9.3229724,9.5333154 9.3298524,9.53847341 C9.3367324,9.54363142 9.34461811,9.54723496 9.35296097,9.54903673 C9.36131525,9.5508385 9.36994382,9.55080318 9.37827525,9.54891897 C9.38660668,9.54704654 9.39445811,9.54337234 9.4012924,9.53815545 C9.48046954,9.48215924 9.47142954,9.46087951 9.36923525,9.46087951 Z M8.91222954,9.33377812 C8.87907525,9.31054352 8.85168096,9.32398026 8.85168096,9.36430224 C8.85045811,9.38210797 8.85611525,9.39970173 8.86742954,9.41330334 C8.87874382,9.42691672 8.89482382,9.43544274 8.91222954,9.43709142 C8.94565811,9.43709142 8.97277811,9.42337206 8.97277811,9.40656731 C8.97277811,9.38977433 8.94538382,9.35729535 8.91222954,9.33377812 Z M8.49220668,9.09301209 C8.52728096,9.09301209 8.53851525,9.12549107 8.51686953,9.16524779 C8.48947525,9.21451974 8.45056096,9.21171699 8.39220668,9.1568513 C8.33385239,9.10197384 8.30699525,9.09805234 8.30699525,9.15348328 C8.30625239,9.17319678 8.31320096,9.19240389 8.3262981,9.20688871 C8.33939525,9.22137354 8.3575781,9.22995844 8.37686953,9.23075923 C8.41769239,9.23075923 8.40426382,9.28507143 8.3426181,9.36149948 C8.28097239,9.43792754 8.26344096,9.50959797 8.29658382,9.5331152 C8.3297381,9.55663243 8.37028667,9.52807496 8.38891525,9.47207875 C8.4097381,9.41105407 8.4664581,9.38641809 8.53166953,9.41020618 C8.62262953,9.4438039 8.62537239,9.43821017 8.54892668,9.37465359 C8.49194382,9.32734827 8.48070953,9.28031381 8.51878953,9.24783484 C8.58098382,9.19492401 8.72482382,8.93259561 8.70592096,8.90684089 C8.69989811,8.89872703 8.63496096,8.91019713 8.56153239,8.93204213 C8.42618382,8.9720697 8.37412667,9.09301209 8.49220668,9.09301209 Z M8.53769239,9.52750969 C8.48947525,9.54962555 8.50371525,9.56586504 8.57440096,9.56923305 C8.63824096,9.57202403 8.67386382,9.55578454 8.65386382,9.5331152 C8.63386382,9.51043409 8.58153239,9.50763133 8.53769239,9.52750969 Z M8.52235525,8.2676951 C8.50755525,8.2676951 8.47878953,8.2987727 8.45824096,8.33656278 C8.43769239,8.37436464 8.44974953,8.40515961 8.48563525,8.40515961 C8.50302953,8.40471211 8.51954382,8.39724595 8.53155525,8.38439803 C8.5435781,8.37153833 8.55011525,8.35433319 8.54974953,8.33656278 C8.54974953,8.2987727 8.53796668,8.2676951 8.52235525,8.2676951 Z M8.40234382,8.54765259 C8.33193239,8.4810224 7.32234382,8.49166816 7.34891525,8.60784116 C7.36700667,8.68567059 8.40563525,8.7495098 8.43494953,8.7495098 C8.51714382,8.7495098 8.49906382,8.63976665 8.40234382,8.54765259 Z M8.1858981,7.9238984 C8.1058981,8.09355926 8.17164667,8.10447587 8.28946382,7.94125664 C8.33740667,7.87490908 8.35905239,7.85951748 8.33795525,7.9068228 C8.29850382,7.99556884 8.37795525,8.02664644 8.44755525,7.94881701 C8.50234382,7.88582569 8.43714382,7.7881179 8.33795525,7.78644567 C8.28891525,7.78644567 8.22152096,7.84831824 8.1858981,7.9238984 Z M8.33713239,7.51124579 C8.31658382,7.54903588 8.32864096,7.58011348 8.3645381,7.58011348 C8.3819781,7.57959532 8.39851525,7.57208205 8.41057239,7.55918703 C8.42262953,7.54630378 8.42921239,7.52907508 8.42892668,7.51124579 C8.42892668,7.47344394 8.41686953,7.44264897 8.40152096,7.44264897 C8.3864581,7.44264897 8.35768096,7.47344394 8.33713239,7.51124579 Z M8.36755525,8.16466443 C8.33412667,8.14142983 8.30699525,8.1551492 8.30699525,8.19518855 C8.30570382,8.21301784 8.3113381,8.23064693 8.32266382,8.24427208 C8.33400096,8.25788546 8.35011525,8.26639971 8.36755525,8.26797773 C8.4006981,8.26797773 8.42810382,8.25425837 8.42810382,8.23773625 C8.42810382,8.2212259 8.4006981,8.18818166 8.36755525,8.16466443 Z M8.17438953,7.25787914 C8.12617239,7.279995 8.14041239,7.29623449 8.2110981,7.29959072 C8.2749381,7.30239348 8.31056096,7.28615399 8.29056096,7.26347288 C8.27056096,7.24080354 8.21822953,7.23800078 8.17438953,7.25787914 Z M8.05164667,9.42477343 C8.00808096,9.47404539 8.00451524,9.5059591 8.04260667,9.5059591 C8.12480096,9.5059591 8.1949381,9.42477343 8.15438953,9.37885772 C8.13740667,9.35926199 8.0910981,9.37885772 8.05164667,9.42477343 Z M7.79738381,9.41160755 C7.76532667,9.5059591 7.7743781,9.51015146 7.85218381,9.43764491 C7.95739524,9.33853574 7.96808096,9.29767205 7.89026381,9.29767205 C7.85985239,9.29962691 7.81820667,9.35058287 7.79738381,9.41160755 Z M7.82259524,7.95834402 C7.78916667,7.93509764 6.76204667,7.94881701 6.76204667,7.98885636 C6.76075524,8.00668564 6.7663781,8.02431474 6.77771524,8.03793989 C6.78904096,8.05155327 7.80516667,8.0600793 7.82259524,8.06164554 C7.85574953,8.06164554 7.88314381,8.04792618 7.88314381,8.0311332 C7.88314381,8.01432845 7.85574953,7.98186125 7.82259524,7.95834402 Z M7.6409381,9.23104186 C7.62350953,9.23260811 7.60739524,9.24112236 7.5960581,9.25474751 C7.58473238,9.26836089 7.5790981,9.28600176 7.58038953,9.30383104 C7.58038953,9.34385862 7.60779524,9.35757798 7.6409381,9.33406075 C7.67409238,9.31054352 7.7014981,9.27806454 7.7014981,9.26127157 C7.7014981,9.2444786 7.67409238,9.23104186 7.6409381,9.23104186 Z M7.15626381,7.09802793 C7.14265238,7.09655589 7.12892667,7.09932332 7.11690381,7.10598869 C7.10486952,7.11265407 7.09509809,7.12288765 7.08886952,7.13533518 C7.08265238,7.14779448 7.08026381,7.16187891 7.08203524,7.17573959 C7.08380667,7.18961205 7.08965809,7.20260129 7.09880095,7.21299974 C7.10794381,7.2233982 7.11995524,7.23072304 7.1332581,7.23400862 C7.14656095,7.23728243 7.16052667,7.23637566 7.17331524,7.23138251 C7.18609238,7.22638937 7.19708667,7.21754539 7.2048581,7.20603996 C7.21262952,7.19452276 7.21678952,7.18087405 7.21681238,7.16689561 C7.21763524,7.1495727 7.2117381,7.13262664 7.20040095,7.11973161 C7.18906381,7.10683658 7.17320095,7.09904069 7.15626381,7.09802793 Z M5.29732666,8.70191008 C5.2488238,8.7237433 6.26334952,8.74026542 6.33376095,8.7433508 C6.39760095,8.74642441 5.34089238,8.68203172 5.29732666,8.70191008 Z M6.12717809,8.13107848 C6.11355523,8.12960645 6.09981809,8.13238565 6.0877838,8.1390628 C6.07574952,8.14572818 6.06596666,8.15598531 6.05976095,8.16845639 C6.0535438,8.18092747 6.05116666,8.19502368 6.05296095,8.20889614 C6.05475523,8.2227686 6.06062952,8.23576961 6.06980666,8.24615629 C6.0789838,8.25654296 6.09101809,8.26385603 6.1043438,8.26710629 C6.11766952,8.27034476 6.13163523,8.26939089 6.14441237,8.26435064 C6.15718952,8.25932217 6.16817237,8.25043108 6.17590952,8.23889032 C6.18364666,8.22733779 6.18776095,8.21365376 6.18772666,8.19966354 C6.18848095,8.18239951 6.18254952,8.1655241 6.17121237,8.15268796 C6.15988666,8.13985181 6.14406952,8.13209124 6.12717809,8.13107848 Z M5.75017237,8.12995974 C5.71456094,8.12995974 5.7205838,8.17362618 5.76387523,8.23297863 C5.80716666,8.29233108 5.84881237,8.33628015 5.86032094,8.33628015 C5.87182952,8.33628015 5.86552094,8.28981095 5.8463438,8.23297863 C5.82716666,8.17614631 5.78552094,8.13163197 5.75017237,8.12995974 Z M4.45532665,7.98550012 C4.51012665,8.05268379 4.55314379,8.14423259 4.55314379,8.18846429 C4.55314379,8.232696 4.58053808,8.26909648 4.61369236,8.26909648 C4.69588665,8.26909648 4.68957808,8.17726505 4.59834379,8.06920591 C4.53752093,7.99725285 4.54354379,7.96477387 4.62574951,7.90318393 C4.76410379,7.80071852 4.71588665,7.76124443 4.51889236,7.81695801 C4.36874379,7.8603536 4.36436665,7.87155284 4.45532665,7.98550012 Z M4.30984093,8.3010102 C4.34381808,8.32481006 4.37148665,8.29596995 4.37148665,8.23718276 C4.37148665,8.1783838 4.36052665,8.13415209 4.34409236,8.12995974 C4.28080093,8.12995974 4.25394379,8.26181874 4.30984093,8.3010102 Z M3.5635095,8.57340731 C3.54104093,8.6400375 3.55930379,8.66057533 3.6183095,8.63499726 C3.71309807,8.5935683 3.73858379,8.47569952 3.65172664,8.47374466 C3.6215895,8.47374466 3.58213807,8.51854163 3.5635095,8.57340731 Z M3.10074378,8.8519752 C3.08260664,8.8671195 3.06787521,8.88609108 3.05756664,8.90759457 C3.04725807,8.92909806 3.04161235,8.95261529 3.04101807,8.97655646 C3.04101807,9.02582842 3.06540664,9.0171493 3.10074378,8.95527673 C3.17581807,8.8231351 3.17581807,8.79933523 3.10074378,8.8519752 Z M2.97964664,7.61399383 C2.94621807,7.63722843 2.91909807,7.70105587 2.91909807,7.7556507 C2.91909807,7.88722707 2.81745235,7.88190419 2.75114378,7.74725421 C2.70812664,7.65989777 2.68648092,7.65654153 2.63579521,7.72989597 C2.52456092,7.89086594 2.50428664,8.1218341 2.59387521,8.20582253 C2.64100664,8.2506195 2.69744092,8.26712984 2.71881235,8.24277649 C2.74018378,8.21842315 2.72593235,8.19854479 2.68702949,8.19854479 C2.64812664,8.19854479 2.61689235,8.14451522 2.61744092,8.07815588 C2.61744092,7.97737449 2.62730378,7.97401825 2.67442378,8.05912542 C2.70565807,8.11512163 2.75032092,8.13807359 2.77388664,8.11120012 C2.79745235,8.08432665 2.85772664,8.10028351 2.90704092,8.14703534 C2.98321235,8.21897663 2.99088092,8.20917877 2.95553235,8.08347876 C2.9327895,8.00172783 2.94266378,7.91550191 2.97717807,7.89086594 C3.01170378,7.86622996 3.04019521,7.78476166 3.04019521,7.70889887 C3.04019521,7.6330243 3.01280092,7.5904766 2.97964664,7.61399383 Z M2.64675521,8.81781222 C2.59661806,8.81781222 2.55579521,8.78673462 2.55579521,8.74894453 C2.55579521,8.71115445 2.59661806,8.68007685 2.64675521,8.68007685 C2.69689235,8.68007685 2.73744092,8.71115445 2.73744092,8.74894453 C2.73744092,8.78673462 2.69661807,8.81781222 2.64675521,8.81781222 Z M2.40291521,7.85614947 C2.35221806,7.90403182 1.32317806,7.9572135 1.33852663,7.97457173 C1.38044663,8.02217145 2.49524664,7.92529978 2.49524664,7.84215925 C2.49524664,7.79707965 2.46126949,7.80156641 2.40291521,7.85614947 Z M2.18892663,9.69985721 C2.15358949,9.69985721 2.14180663,9.66877971 2.16153235,9.63098963 C2.18125806,9.59318777 2.21084663,9.56212205 2.22564663,9.56212205 C2.24043521,9.56212205 2.25304092,9.59318777 2.25304092,9.63098963 C2.25340663,9.64878359 2.24688092,9.6660125 2.23486949,9.6789193 C2.22285806,9.69181433 2.20634378,9.69933906 2.18892663,9.69985721 Z M1.00234378,8.47374466 C1.04426378,8.47374466 2.06124663,8.51238263 2.04014949,8.55968795 C2.01905235,8.60700504 2.0456352,8.58405307 2.09933806,8.50901462 C2.20592092,8.3592439 1.11302949,8.26125348 0.993578061,8.39703398 C0.943989489,8.45331282 0.946446632,8.47374466 1.00234378,8.47374466 Z M1.80617235,8.71814956 C1.84644663,8.59889118 1.88836663,8.57816493 1.88836663,8.67615535 C1.88638949,8.69724667 1.88004663,8.71766674 1.86974949,8.73606129 C1.85945235,8.75445583 1.84544092,8.77038914 1.82864092,8.78282489 C1.79576092,8.80689561 1.78562377,8.77918602 1.80617235,8.71814956 Z M0.913806625,9.01434654 C0.845578053,8.88892917 0.892983768,8.86456405 1.08394377,8.94015598 C1.18516663,8.98038375 1.29712091,8.98226796 1.39957806,8.94547886 C1.57109806,8.87324316 1.59958949,8.89116666 1.52698377,9.02470967 C1.45902949,9.14872567 0.982023768,9.13976392 0.913806625,9.01434654 Z M0.79024091,7.71561135 C0.764206624,7.8038039 0.496526622,7.63938267 0.496526622,7.55791437 C0.496526622,7.47084056 0.630778052,7.37062381 0.814343767,7.3207866 C0.905863768,7.29586799 0.980926625,7.24519507 0.980926625,7.20880637 C0.98033234,7.20016258 0.981440911,7.19148363 0.984183768,7.18327556 C0.986926625,7.17507927 0.991246625,7.16751911 0.996880911,7.16104216 C1.00252663,7.15457698 1.00938377,7.14932435 1.01704091,7.14560304 C1.02469805,7.14188174 1.03300663,7.1397618 1.04148663,7.13937318 C1.15846948,7.13937318 1.10066377,7.27934608 0.956823768,7.34290266 C0.877086625,7.37873788 0.802023767,7.67501851 0.79024091,7.71561135 Z M0.160480792,8.54484984 C0.146880791,8.54632187 0.133155077,8.54354267 0.121120791,8.53688907 C0.109086505,8.5302237 0.0993150767,8.51999011 0.0930865052,8.50754258 C0.0868693623,8.49508328 0.0844807908,8.48099885 0.0862522194,8.46713817 C0.0880350766,8.45326571 0.0938750767,8.44027648 0.103017934,8.42987802 C0.112160791,8.41947957 0.124183648,8.41215472 0.137486506,8.40886914 C0.150789363,8.40558356 0.164743649,8.40650211 0.17753222,8.41149525 C0.190309363,8.41648839 0.201315078,8.42533238 0.209075078,8.4368378 C0.216846506,8.448355 0.221017935,8.46200371 0.221040792,8.47598215 C0.221863649,8.49330506 0.215955078,8.51025113 0.204617935,8.52314615 C0.193280792,8.53604118 0.177417935,8.54383708 0.160480792,8.54484984 Z M0.139792905,8.92290373 C0.106133477,8.91740421 0.071648905,8.92103131 0.0397951905,8.9334435 C-0.0388379528,8.96787735 -0.0555510958,8.9566781 -0.020755667,8.89285067 C0.0140409047,8.82901146 -0.00897395264,8.81669347 -0.116923668,8.85112731 L-0.260765954,8.89732566 L-0.113088239,8.7626639 C0.00499861888,8.65460476 0.0619883336,8.64255763 0.174320906,8.7005087 C0.251589478,8.74054805 0.314606621,8.83376908 0.314606621,8.90824227 C0.314606621,9.01462917 0.297063764,9.02666453 0.232400906,8.96423847 C0.205109477,8.94285275 0.173453477,8.92841503 0.139792905,8.92290373 Z M-0.0182893813,7.74416882 C-0.0681545245,7.7223356 -0.108978525,7.69237675 -0.108978525,7.67753864 C-0.108978525,7.66270052 -0.0681545245,7.64954642 -0.0182893813,7.64954642 C0.0315757619,7.64954642 0.0726729051,7.67977613 0.0726729051,7.71617661 C0.0726729051,7.75256531 0.0318500476,7.76516593 -0.0182893813,7.74416882 Z M-0.170625382,8.37995837 C-0.170625382,8.23997374 -0.198023097,8.23997374 -0.399949955,8.38751874 C-0.548723671,8.49557788 -0.556668813,8.49614315 -0.483788813,8.39144025 C-0.415292813,8.29289634 -0.421868813,8.26322012 -0.529269956,8.18706292 C-0.598588814,8.13807359 -0.655028814,8.07508228 -0.655028814,8.04400467 C-0.655028814,8.01292707 -0.588999099,8.03924706 -0.508173956,8.10000088 C-0.408153384,8.1664191 -0.293193383,8.20563411 -0.174186525,8.21393639 C0.0313014762,8.22066064 0.0589734764,8.27580896 -0.0788402388,8.40543047 C-0.154185382,8.47626479 -0.170625382,8.47150717 -0.170625382,8.37995837 Z M-0.231175097,7.95806139 C-0.264601383,7.93482679 -0.291725955,7.86903271 -0.291725955,7.81248302 C-0.291725955,7.75593333 -0.264327097,7.7284946 -0.231175097,7.7517292 C-0.198023097,7.7749638 -0.170625382,7.84075787 -0.170625382,7.89730756 C-0.170625382,7.95385726 -0.198023097,7.98129599 -0.231175097,7.95806139 Z M-0.321589955,8.657961 C-0.381319098,8.7548209 -0.453103098,8.79234012 -0.53337967,8.76825763 C-0.700236814,8.71898568 -0.687633386,8.5958058 -0.518858527,8.62352716 C-0.479984242,8.6289678 -0.440394527,8.62438683 -0.403692812,8.61020819 C-0.366991098,8.59602955 -0.334340812,8.57270074 -0.308713383,8.54232971 C-0.204324811,8.39536175 -0.21364024,8.48214115 -0.321589955,8.657961 Z M-0.866819101,8.54205886 C-0.916958187,8.49474177 -0.957781884,8.43006644 -0.957781883,8.39815272 C-0.957781883,8.36623901 -0.916958187,8.35755989 -0.866819101,8.37939311 C-0.840468815,8.39287695 -0.818147672,8.41334412 -0.802193387,8.43866313 C-0.786237958,8.46398213 -0.777236815,8.49321085 -0.776130529,8.52329925 C-0.776130529,8.60728767 -0.793116815,8.61176266 -0.866819101,8.54205886 Z" id="upload" transform="translate(7.042218, 8.433929) scale(-1, 1) rotate(-86.000000) translate(-7.042218, -8.433929) "></path>
                    </g>
                </g>
            </g>
        </g>
    </g>
</svg>