<?xml version="1.0" encoding="UTF-8"?>
<svg width="72px" height="72px" viewBox="0 0 72 72" version="1.1" xmlns="http://www.w3.org/2000/svg" xmlns:xlink="http://www.w3.org/1999/xlink">
    <title>A56BB43F-B6F5-4340-825C-5458B31F6633</title>
    <g id="Style---Terms---Sitemap---404---Media-Corner" stroke="none" stroke-width="1" fill="none" fill-rule="evenodd">
        <g id="Styleguide-2021" transform="translate(-587.000000, -1495.000000)">
            <g id="slider/right" transform="translate(587.000000, 1495.000000)">
                <rect id="Rectangle-Copy-2" x="0" y="0" width="72" height="72"></rect>
                <g id="arrow/right" transform="translate(10.080000, 24.480000)" fill="#000000">
                    <path d="M51.6298319,8.75375819 C51.6458159,8.84317695 51.6198959,9.08283615 51.5723759,9.2859979 C51.5205359,9.51508619 51.5371679,9.72512459 51.6188159,9.83675339 C51.6561839,9.89710772 51.6801599,9.96509535 51.6892319,10.0359093 C51.6980879,10.1067455 51.6918239,10.1787167 51.6706559,10.2467711 C51.6261599,10.3726874 51.5753999,10.77002 51.5576879,11.129787 C51.4972079,12.3958258 50.4703439,14.014755 48.8075759,15.4575172 C48.4300079,15.786061 47.4949439,16.6214522 46.7294399,17.3129231 C44.6007599,19.2381861 42.4817999,21.0105381 40.3410239,22.6607349 C37.5224399,24.8298855 37.4716799,24.8505822 36.7975439,24.1780498 C36.2854079,23.6675306 36.2538719,23.1648004 36.7068239,22.7602127 C36.9979919,22.4998346 37.0061999,22.4671204 36.8213039,22.313564 C36.5500079,22.088348 36.5707439,21.8115015 36.8908559,21.3739771 C37.0388159,21.1719058 37.1381759,20.936475 37.1118239,20.8507727 C37.0487519,20.6433826 37.8429839,19.4408138 38.4473519,18.8292143 C38.7123839,18.5615144 38.9454479,18.3419511 38.9651039,18.3419511 C38.9847599,18.3419511 39.1603679,18.1726607 39.3556319,17.9652706 C39.5508959,17.7578805 40.3265519,17.0256615 41.0788799,16.3373506 C41.8314239,15.6490398 42.4833119,15.0205047 42.5288879,14.9390308 C42.5869919,14.8332104 42.4392479,14.8146946 41.9903999,14.8760727 C40.9490639,15.0189246 34.8593759,15.15806 30.2717519,15.1437726 C26.3880719,15.1315994 21.4418015,15.0347921 21.2890463,14.9681397 C21.2574455,14.9543642 20.7815759,14.9422132 20.2311215,14.941145 C19.6806671,14.940099 19.2006287,14.8850635 19.1643839,14.8184111 C19.1556143,14.8027662 19.1436695,14.7892132 19.1293487,14.7786423 C19.1150495,14.7680936 19.0986983,14.7607719 19.0814183,14.7571666 C19.0641167,14.7535614 19.0462751,14.7537617 19.0290599,14.7577452 C19.0118447,14.7617288 18.9956663,14.7694289 18.9815831,14.7803114 C18.9168695,14.8258219 18.7438967,14.7898363 18.5968439,14.7004175 C18.4497695,14.611021 18.2410919,14.580332 18.1214711,14.6385276 C18.0018503,14.6967233 17.5000823,14.7490882 16.9977743,14.7617956 C16.2893807,14.7797772 16.0480871,14.7390514 15.9300215,14.581378 C15.7938335,14.3993803 15.7845023,14.4025627 15.8430167,14.6115329 C15.8787431,14.7406315 15.8699519,14.8231736 15.8238575,14.8004072 C15.7777847,14.7776631 15.5991311,14.6760933 15.4282319,14.5792638 C15.1874567,14.4427767 15.0807743,14.4380142 14.9544143,14.5570538 C14.8648391,14.6416878 14.5877975,14.694075 14.3392463,14.6739791 C13.9550039,14.642756 13.8949343,14.5983137 13.9363631,14.3771703 C13.9679639,14.2089259 13.9508783,14.1718943 13.8845879,14.2713499 C13.7546207,14.4760917 13.1839703,14.5887887 13.0964471,14.4263751 C13.0529447,14.3475495 12.9623327,14.3602346 12.8551319,14.4607583 C12.7122263,14.5956654 12.6899567,14.5829803 12.7225727,14.3835128 C12.7438055,14.2517882 12.7023767,14.118973 12.6298871,14.0914664 C12.5573759,14.0639598 12.5061191,14.136977 12.5154503,14.2570625 C12.5263151,14.3935719 12.4305191,14.4940956 12.2596415,14.5252965 C12.0255839,14.5681588 12.0074399,14.5469947 12.1327631,14.3755902 C12.2580863,14.2041634 12.2503103,14.1877618 12.1193063,14.2417291 C12.0317831,14.2776924 11.8313783,14.18883 11.6739575,14.0380332 C11.5165367,13.8872587 11.4419735,13.7999541 11.5077455,13.8369857 C11.5508375,13.8541217 11.5974071,13.8601082 11.6433071,13.8543887 C11.6892071,13.8486693 11.7330119,13.831422 11.7708119,13.8041825 C11.8836935,13.7253569 11.8805831,13.6724578 11.7578519,13.5566007 C11.5351991,13.3449599 11.0328911,13.7391102 11.2141367,13.9835541 C11.3052671,14.1084021 11.2850711,14.1740085 11.1364631,14.2385467 C11.0085479,14.2946282 10.8822095,14.2417291 10.7864135,14.0930687 C10.6906175,13.9443861 10.6792127,13.8438623 10.7553311,13.8147756 C10.8992951,13.7618766 10.7941679,13.5317201 10.6253639,13.5317201 C10.5544079,13.5317201 10.5342335,13.6650471 10.5766775,13.8571038 C10.6434863,14.158141 10.6186247,14.1819534 10.2390695,14.1819534 C9.83618626,14.1819534 9.76732546,13.932747 10.1644847,13.9115829 C10.2711671,13.9057745 10.2986207,13.8735054 10.2261095,13.8401681 C10.1432519,13.8015564 10.1960855,13.6629329 10.3690367,13.4661137 C10.6398575,13.1587339 10.7537759,12.789442 10.5300863,12.9471154 C10.4669063,12.9910236 10.4156495,13.1116433 10.4156495,13.2142812 C10.4156495,13.3169192 10.3716287,13.4021096 10.3182983,13.4021096 C10.2649463,13.4021096 10.0360727,13.6068514 9.80925106,13.8571038 C9.32716066,14.3861611 9.16818466,14.4448908 9.42969586,13.9914767 C9.66893746,13.5761624 9.66323506,13.5417791 9.36755266,13.6295956 C9.16040866,13.6915077 9.13038466,13.6592386 9.18527026,13.4222055 C9.26760946,13.0640408 9.19097266,13.067201 8.92118866,13.4343787 C8.65138306,13.8015564 8.64311026,13.9443861 8.88751426,13.8951813 C8.93324146,13.8824962 8.98203586,13.8887943 9.02324866,13.9126734 C9.06446146,13.9365525 9.09478786,13.9760988 9.10759666,14.0226999 C9.12520066,14.1136987 9.11589106,14.136977 9.08688226,14.0755989 C9.05789506,14.0142209 8.91341266,13.9877825 8.76584146,14.0195175 C8.45512546,14.0867039 8.25111346,13.8306431 8.51986066,13.7137178 C8.71508146,13.6285496 8.76996706,13.1434005 8.58459586,13.1434005 C8.52141586,13.1434005 8.47635826,13.1873087 8.48102386,13.2407419 C8.51415826,13.4793551 8.45823586,13.6640011 8.35313026,13.6640011 C8.28995026,13.6640011 8.23867186,13.5370167 8.23867186,13.3825256 C8.23867186,13.0217127 8.09213746,13.1793639 8.06727586,13.5666375 C8.05174546,13.8142415 7.95491266,13.8771996 7.43500066,13.9787916 C6.98604466,14.0666081 6.80946466,14.0581514 6.77684866,13.9465003 C6.75198706,13.8623781 6.60752626,13.7941457 6.45526786,13.7941457 C6.30303106,13.7941457 6.17874466,13.7412244 6.17874466,13.6729919 C6.17874466,13.6047372 6.09124306,13.4528945 5.98404226,13.3312066 C5.80022626,13.1227706 5.80487026,13.1153598 6.06430786,13.2090069 C6.22565986,13.2698508 6.37290706,13.3642324 6.49669666,13.4862318 C6.66241186,13.6751061 7.17402946,13.6068514 7.38063346,13.3682382 C7.45778866,13.2788417 7.42569106,13.2624401 7.28172706,13.3211698 C7.11912226,13.386754 7.08546946,13.3582014 7.13879986,13.1999938 C7.16951506,13.1163835 7.19290786,13.0301694 7.20871906,12.942353 C7.20871906,12.9148463 7.28587426,12.9259514 7.38063346,12.9672113 C7.63955266,13.0788401 7.58777746,12.8016152 7.29468706,12.491053 C7.07823346,12.2614529 7.03110226,12.2503479 7.00004146,12.4212183 C6.95187346,12.685758 6.79289746,12.6820415 6.70487746,12.4148757 C6.64428946,12.2355263 6.60597106,12.2307639 6.44181106,12.3826066 C6.30925186,12.5042945 6.27609586,12.509057 6.33512866,12.396894 C6.45630466,12.1678058 6.23622226,12.1942664 6.06430786,12.4296972 C5.94468706,12.593691 5.96540146,12.6249141 6.19325986,12.6264942 C6.39055426,12.6264942 6.42213346,12.6592974 6.30873346,12.7407713 C6.17718946,12.8354866 6.17718946,12.8640392 6.30873346,12.9248831 C6.39467986,12.9640511 6.29629186,12.9804527 6.09020626,12.9614028 C5.88409906,12.942353 5.61483346,12.8026834 5.49262066,12.655069 C5.30051026,12.4207064 5.22491026,12.4037707 4.93078306,12.5296869 C4.74383506,12.6100926 4.61645986,12.7222555 4.64803906,12.7799393 C4.67963986,12.8376008 4.62732466,12.8857374 4.53308386,12.8857374 C4.48189186,12.8828443 4.43212546,12.8675109 4.38788866,12.8410058 C4.34367346,12.8145228 4.30628386,12.7776026 4.27883026,12.7333605 C4.22394466,12.6323249 4.16491186,12.6751649 4.10484226,12.8614132 C4.05306706,13.0264751 3.94949506,13.1127115 3.85473586,13.0730316 C3.72163666,13.0153701 3.72578386,12.9322939 3.87905746,12.5630242 C4.03235266,12.1937323 4.08620146,12.1556325 4.18977346,12.3095895 C4.33475266,12.5212079 4.88209666,12.511683 5.04314626,12.2916078 C5.23164946,12.0334106 5.25029026,11.347748 5.06748946,11.2689224 C5.00411506,11.2366311 4.93788946,11.2105932 4.86967666,11.191165 C4.85155426,11.191165 4.84170466,11.376857 4.84792546,11.603297 C4.85414626,11.829737 4.80753346,12.035547 4.74435346,12.0593371 C4.68119506,12.0831495 4.62887986,11.8477186 4.62576946,11.5202207 C4.62008866,10.7737143 4.53515746,10.6911944 4.12607506,11.0345598 C3.88994386,11.2329591 3.77654386,11.2678764 3.73615186,11.1551794 C3.70351426,11.0641806 3.67556386,11.0932895 3.67037986,11.2234341 C3.66003346,11.4879516 3.70817986,11.5011931 4.02872386,11.305954 C4.23947506,11.1784577 4.25967106,11.1927451 4.20530386,11.429756 C4.17113266,11.5779045 4.20219346,11.7260308 4.27416466,11.7593681 C4.41916546,11.8265546 3.85989826,11.8948092 3.46945666,11.8577777 C3.33275026,11.8445362 3.18621586,11.8979916 3.14375026,11.975749 C3.09197506,12.0720444 2.99978626,12.0493003 2.86048786,11.9059143 C2.72118946,11.7625505 2.62850386,11.7413864 2.57880226,11.8323852 C2.53737346,11.9085626 2.38409986,11.9709866 2.23858066,11.9709866 C2.03144962,11.9709866 1.97345146,11.8990376 1.97345146,11.6413967 C1.97345146,11.3371771 1.99209442,11.3239579 2.21682946,11.4884858 C2.37217666,11.6027628 2.59070386,11.6323836 2.83357426,11.5736762 C3.04691746,11.5207548 3.23747266,11.5376906 3.27682786,11.6107077 C3.38662066,11.8122671 3.54505666,11.4228794 3.47775106,11.1181479 C3.42597586,10.8948903 3.49898386,10.8176447 3.88320466,10.6737246 C4.13849506,10.5779633 4.34926786,10.4266546 4.34926786,10.3372581 C4.34926786,10.2393826 4.43987986,10.2023288 4.57814146,10.243611 C4.70447986,10.2806426 4.80805186,10.3774498 4.80908866,10.4589237 C4.81012546,10.5403976 4.86086386,10.5181876 4.92145186,10.4107871 C4.98203986,10.3033867 5.03331826,10.2801084 5.03435506,10.3578881 C5.03539186,10.4356455 5.20160386,10.5055025 5.40356386,10.5123791 C5.67023746,10.5208359 5.72512306,10.4912151 5.60396866,10.4065588 C5.35124866,10.2250952 5.56565026,10.2589444 6.01253266,10.471097 C6.23518546,10.5769173 6.40919506,10.603378 6.40919506,10.5319409 C6.40919506,10.460526 6.33255826,10.3732215 6.23829586,10.3298474 C6.14405506,10.286451 6.09744226,10.2002146 6.13474546,10.132494 C6.17202706,10.0647735 6.31441426,10.1584206 6.45215746,10.3409524 C6.69295426,10.6583912 6.71107666,10.6636878 6.97673506,10.4541612 C7.24237186,10.244657 7.24651906,10.2499535 7.17711826,10.4541612 C7.04352226,10.8493797 7.29261346,10.6816695 7.48005826,10.2499535 C7.64421826,9.87220488 7.72860946,9.92828633 7.67683426,10.3800981 C7.66700626,10.4695169 7.76383906,10.542534 7.89225106,10.542534 C8.02068466,10.542534 8.12630866,10.4859185 8.12630866,10.4166178 C8.12630866,10.2578984 8.44840786,10.388043 8.79586546,10.6906603 C9.02629426,10.8917079 9.08740066,10.8991186 9.22462546,10.7435594 C9.31266706,10.6435697 9.38515666,10.5166075 9.38515666,10.4610602 C9.38515666,10.4054906 9.32301346,10.430883 9.24793186,10.5171416 C9.05685826,10.7340567 8.81295106,10.7118244 8.81295106,10.4779736 C8.81642866,10.4303934 8.80150306,10.3833028 8.77139266,10.3468053 C8.74130386,10.3103301 8.69840626,10.2873189 8.65190146,10.2827567 C8.54835106,10.2827567 8.51208466,10.1917579 8.54835106,10.0229794 C8.58096706,9.88014975 8.70369826,9.76322437 8.82020866,9.76322437 C8.96158066,9.76322437 9.01024546,9.82776255 8.96622466,9.95790713 C8.92997986,10.0637275 8.95743346,10.1531463 9.02681266,10.1531463 C9.09621346,10.1531463 9.15369106,10.0542026 9.15369106,9.93304881 C9.15369106,9.74152619 9.17492386,9.74575455 9.32145826,9.96585201 C9.46801426,10.1859272 9.49028386,10.1854154 9.49337266,10.0044636 C9.49639666,9.94348619 9.51499426,9.88437812 9.54735106,9.83305913 C9.57968626,9.7817179 9.62465746,9.73994612 9.67772866,9.71190539 C9.93664786,9.60027659 9.95528866,9.61031339 9.88487266,9.8177035 C9.78130066,10.1235032 10.0495295,10.1827671 10.2618359,9.90129157 C10.3721471,9.7552795 10.5539111,9.63677404 10.6657559,9.63677404 C10.8946295,9.63677404 10.9179359,9.74259441 10.7527391,10.0266959 C10.6569431,10.192292 10.6248455,10.1944062 10.5368039,10.039381 C10.4622407,9.90765637 10.4384159,9.95314466 10.4508575,10.203397 C10.4689799,10.5605157 10.8754703,10.8488456 10.9593647,10.56421 C10.9752623,10.5211252 11.0035583,10.4839601 11.0405375,10.4576107 C11.0774951,10.4312613 11.1214079,10.4169739 11.1664871,10.4166178 C11.2560839,10.4166178 11.3285735,10.3636965 11.3285735,10.2943959 C11.3285735,10.2250952 11.2224095,10.1949403 11.0919239,10.2234929 C10.9438343,10.2557842 10.8723599,10.2166162 10.9013687,10.1176948 C10.9169207,10.0730744 10.9447199,10.0339732 10.9814615,10.0050645 C11.0182031,9.97617812 11.0622887,9.9587083 11.1084911,9.95474699 C11.1286655,9.95490277 11.1486023,9.95042961 11.1668543,9.94163906 C11.1850847,9.93282626 11.2011551,9.91994088 11.2138343,9.90393986 C11.2265351,9.88791659 11.2355207,9.86917826 11.2401431,9.84912692 C11.2447655,9.82907557 11.2448951,9.80820081 11.2405535,9.7880827 C11.2208759,9.68226233 11.3409935,9.63730815 11.6004311,9.65740401 C11.8898927,9.67910219 11.9732687,9.73622961 11.9256407,9.87750146 C11.8805831,10.0108284 11.9064815,10.0362209 12.0126239,9.9621355 C12.1099751,9.89336895 12.1369103,9.90605404 12.0871871,9.99654103 C11.9608487,10.2287895 12.1638455,10.2610586 12.5294255,10.0669099 C12.8722175,9.88491223 12.8722175,9.88491223 12.5578943,9.95790713 C12.1954247,10.0414952 12.1363919,9.83993579 12.4636535,9.6404683 C12.5375687,9.60025433 12.6192815,9.57728764 12.7029167,9.57328183 C12.7865735,9.56925375 12.8700359,9.58425332 12.9473207,9.61719004 C13.0969655,9.68014815 13.3765991,9.67591979 13.5930527,9.6076651 C13.8260735,9.53467019 14.0280335,9.53467019 14.1108695,9.6076651 C14.3030015,9.77751179 14.7742271,9.89441492 14.6975903,9.75316532 C14.6209319,9.61191572 14.7188015,9.5944459 15.5810087,9.5780443 C15.9377759,9.57116764 16.2075815,9.60608503 16.1801279,9.65635804 C16.1693495,9.68724735 16.1695655,9.72105201 16.1807327,9.75183004 C16.1918999,9.78258583 16.2133271,9.80835659 16.2412343,9.82458015 C16.3018223,9.86744241 16.4017655,9.79602757 16.4628719,9.66586073 C16.5488183,9.48386306 16.7331743,9.42304139 17.2711871,9.39869492 C17.6549111,9.38175921 18.0774503,9.4336123 18.2105495,9.51455208 C18.3933287,9.62566903 18.4730759,9.62302073 18.5372927,9.50502713 C18.5932151,9.40238917 18.8718119,9.36324343 19.3523687,9.39075004 C19.7536751,9.41351644 20.1358439,9.39446655 20.2010759,9.34791004 C20.3636807,9.23203063 22.5199439,9.17543732 22.6156319,9.28441783 C22.6581839,9.33255441 22.7590559,9.31034437 22.8394079,9.23151877 C22.9430879,9.13415513 23.0584319,9.13840575 23.2366319,9.24631804 C23.4256319,9.36112924 23.5074959,9.36166335 23.5686239,9.24896633 C23.6295359,9.13626932 23.7695039,9.14314597 24.1163999,9.28123543 C24.4721519,9.4203931 24.5695679,9.42566743 24.5274479,9.30186539 C24.4855439,9.17808561 24.6756239,9.14316823 25.2525599,9.14951077 C26.0126639,9.15850161 29.1584879,9.03469957 31.1199839,8.91935426 C31.6576079,8.88761928 33.0499439,8.83049186 34.2141839,8.79239208 C37.7980559,8.67439848 39.9904559,8.56225783 40.0500719,8.49346903 C40.0816079,8.45748343 38.4866639,8.46807659 36.5059439,8.51728139 C32.9972399,8.60456372 31.9615199,8.55907543 34.0426799,8.41146103 C34.6085999,8.37073521 36.0503999,8.30036633 37.2448799,8.2553899 L39.4197839,8.17284779 L38.0108159,7.40942786 C37.2340799,6.99093113 36.2568959,6.36241826 35.8359119,6.01217623 C35.0621999,5.36670539 33.9785279,4.82124648 33.4689839,4.82124648 C33.1292159,4.82124648 32.4276479,4.14722306 32.5445039,3.93242219 C32.5896479,3.84936823 32.8583519,3.78111353 33.1417439,3.78111353 C33.7325039,3.78111353 33.7221359,3.60018408 33.1143119,3.31129783 C32.6829599,3.10655601 32.6073599,2.80235863 32.9587919,2.67644241 C33.1322399,2.61399615 33.1711199,2.51772299 33.1199279,2.28598641 C33.0680879,2.06112648 33.1162559,1.93309608 33.2912159,1.80982815 C33.4227599,1.71671513 33.5305439,1.57915979 33.5305439,1.50456255 C33.5305439,1.18712372 34.2472319,0.922595062 35.5987439,0.731602102 C37.6654319,0.441146902 38.0807999,0.467071222 39.4094159,0.976028226 C40.7382479,1.48497855 44.8398719,3.38696328 46.5188399,4.27525346 C48.0764159,5.09900546 51.0120719,6.87135746 51.4676159,7.26234757 C51.7751999,7.5268651 51.8399999,7.66918292 51.8399999,8.08661143 C51.8399999,8.36385855 51.7881599,8.59081041 51.7203359,8.59081041 C51.6546719,8.59134452 51.6136319,8.66436168 51.6298319,8.75375819 Z M50.3521919,6.17194161 C49.5994319,5.56775295 47.0972879,4.10120066 45.5628239,3.36791339 C42.6040559,1.94791761 40.2783839,0.919419338 39.6958319,0.772339047 C39.3577919,0.686632342 38.9791439,0.540081709 38.8549439,0.445907149 C38.6944559,0.340057855 38.5086959,0.280802902 38.3179679,0.274491513 C38.1471119,0.274491513 37.9751759,0.216295877 37.9362959,0.144344706 C37.7021519,-0.285784473 39.8552399,0.295128153 41.9556239,1.22891775 C47.3119919,3.60970903 51.1109999,5.8529227 51.6239999,6.93380372 C51.7140719,7.1231899 51.6628799,7.11368721 51.2989199,6.87347164 C51.0617519,6.71212619 50.6355839,6.39944983 50.3521919,6.17194161 Z M39.5539199,1.83362743 C39.4824239,1.83362743 40.1960879,2.18969099 41.1406559,2.62405521 C44.8279919,4.3202299 48.6552959,6.31744183 49.4879759,6.98036023 C49.6139039,7.0803499 49.7692079,7.15970961 49.8340079,7.15706132 C50.1011999,7.14646815 49.1767199,6.46291979 47.8344959,5.6756875 C45.6839999,4.42128779 40.1012639,1.82887804 39.5539199,1.83362743 Z M39.6461519,3.94141303 C39.6213119,3.96945375 40.8231359,4.56836808 42.3161279,5.27254641 C43.8089039,5.97672473 45.6176879,6.86554903 46.3354559,7.24752604 C47.7280079,7.98822408 48.4652159,8.19984255 47.3193359,7.5268651 C46.9417679,7.30572168 45.8891999,6.76395703 44.9735759,6.31955601 C42.7330079,5.23233244 39.7010159,3.87898903 39.6461519,3.94141303 Z M37.5360479,5.15032444 C36.0264239,4.35672735 35.1218159,4.0578043 36.2197439,4.71384604 C36.9098639,5.12600023 41.6268719,7.35915484 42.7960799,7.82685637 C44.1030959,8.35008299 43.1135999,7.79828153 41.0255279,6.83962248 C39.8299679,6.29044706 38.2594319,5.53018728 37.5360479,5.15032444 Z M32.3943839,8.65060837 C32.3792639,8.65997753 32.3624159,8.66594175 32.3447039,8.6681227 C32.3272079,8.67030364 32.3092799,8.66863455 32.2924319,8.6632267 C32.2755839,8.65781884 32.2600319,8.64880575 32.2468559,8.6367883 C32.2334639,8.62474859 32.2230959,8.60999383 32.2157519,8.5934587 C32.1764399,8.52044153 32.2239599,8.46119993 32.3224559,8.46119993 C32.5233359,8.46119993 32.5529279,8.53949143 32.3943839,8.65060837 Z M27.8665919,12.1011534 C28.0015919,12.1667375 28.0285919,12.2164764 27.9329039,12.221773 C27.8369999,12.2270696 27.8017919,12.2662154 27.8395919,12.3090554 C27.9430559,12.4254466 28.1663999,12.2318098 28.0901519,12.0921403 C28.0545119,12.0265562 27.9404639,11.9762831 27.8313839,11.9799774 C27.6754319,11.9873882 27.6795359,12.0096204 27.8665919,12.1011534 Z M27.9233999,11.191165 C27.8905679,11.1941249 27.8601119,11.2102149 27.8387279,11.2359634 C27.8173439,11.2616897 27.8065439,11.295027 27.8091359,11.3287204 C27.8091359,11.4043636 27.8607599,11.4302901 27.9233999,11.3858478 C27.9860399,11.3414055 28.0378799,11.2800274 28.0378799,11.2482924 C28.0378799,11.2165575 27.9860399,11.191165 27.9233999,11.191165 Z M24.9479999,9.50133288 C24.8853599,9.50133288 24.8335199,9.52672532 24.8335199,9.5584603 C24.8335199,9.59021753 24.8853599,9.65210743 24.9479999,9.6960379 C25.0106399,9.73994612 25.0624799,9.71455368 25.0624799,9.63888823 C25.0648559,9.60519484 25.0542719,9.57187979 25.0328879,9.54613128 C25.0115039,9.52038277 24.9810479,9.50429273 24.9479999,9.50133288 Z M24.0330239,10.1510098 C23.9699519,10.1510098 23.9185439,10.1769364 23.9185439,10.2081595 C23.9185439,10.2393826 23.9703839,10.3018066 24.0330239,10.346249 C24.0956639,10.3906913 24.1475039,10.3642306 24.1475039,10.2885652 C24.1498799,10.2549163 24.1390799,10.221668 24.1176959,10.195964 C24.0963119,10.17026 24.0658559,10.1541255 24.0330239,10.1510098 Z M23.6897999,13.3359691 C23.6265119,13.2915268 23.5753199,13.3137591 23.5753199,13.385708 C23.5783439,13.427324 23.5900079,13.467805 23.6098799,13.504347 C23.6295359,13.5408667 23.6567519,13.5726017 23.6897999,13.5973265 C23.7524399,13.6417688 23.8040639,13.6190247 23.8040639,13.5475876 C23.8010399,13.5059938 23.7891599,13.4655796 23.7695039,13.4290599 C23.7496319,13.3925624 23.7224159,13.3608052 23.6897999,13.3359691 Z M21.2049575,11.6089941 C21.1852151,11.6455138 21.1734431,11.6859948 21.1704623,11.7276331 C21.1704623,11.7990479 21.2222375,11.821258 21.2848991,11.7768379 C21.3178175,11.7520908 21.3450767,11.7203781 21.3648407,11.6838362 C21.3845831,11.6472942 21.3963551,11.6068354 21.3993359,11.5651972 C21.3993359,11.4937823 21.3475607,11.47155 21.2848991,11.5154805 C21.2520023,11.5407394 21.2247215,11.5724522 21.2049575,11.6089941 Z M20.8892735,11.1059746 C20.7924407,11.1483028 20.7126935,11.24511 20.7126935,11.3213096 C20.7126935,11.417605 20.7857015,11.4154686 20.9514167,11.3149671 C21.2170535,11.1535994 21.1668335,10.9848209 20.8892735,11.1033263 L20.8892735,11.1059746 Z M20.9410703,9.50133288 C20.9081735,9.50442626 20.8777823,9.52056081 20.8563983,9.54626481 C20.8349927,9.57199106 20.8243223,9.6052171 20.8266119,9.63888823 C20.8266119,9.71455368 20.8784087,9.74045797 20.9410703,9.6960379 C21.0037103,9.65159557 21.0555071,9.59021753 21.0555071,9.5584603 C21.0555071,9.52672532 21.0037103,9.50133288 20.9410703,9.50133288 Z M20.5355951,13.006357 C20.4439463,12.9201207 20.3652359,12.8709381 20.3605703,12.8973765 C20.2569983,13.4872778 20.2569983,13.4856977 20.6013671,13.4264338 C20.7986615,13.3936306 20.9410703,13.2909927 20.9410703,13.1820122 C20.9410703,13.0730316 20.8892735,13.0317717 20.8214495,13.076214 C20.7561959,13.1253966 20.6272655,13.0926156 20.5355951,13.006357 Z M20.4563663,14.0946488 C20.3776559,14.1306344 20.4418727,14.1602552 20.5992935,14.1602552 C20.7567143,14.1602552 20.8209311,14.1306344 20.7422207,14.0946488 C20.6501831,14.0586632 20.5484039,14.0586632 20.4563663,14.0946488 Z M20.4848567,12.1011534 C20.4519599,12.1042468 20.4215687,12.1203813 20.4001847,12.1460853 C20.3788007,12.1717893 20.3681087,12.2050376 20.3704199,12.2387087 C20.3704199,12.3143519 20.4221951,12.3402785 20.4848567,12.2958362 C20.5475183,12.2513938 20.5992935,12.1900158 20.5992935,12.1582808 C20.5992935,12.1265458 20.5475183,12.1011534 20.4848567,12.1011534 Z M20.3704199,12.5561253 C20.3077583,12.511683 20.2559615,12.5376095 20.2559615,12.613275 C20.2536719,12.6469239 20.2643639,12.6801722 20.2857479,12.7058984 C20.3071319,12.7316024 20.3375231,12.747737 20.3704199,12.7508303 C20.4335783,12.7508303 20.4848567,12.7249038 20.4848567,12.6936807 C20.4848567,12.6624798 20.4330599,12.6000558 20.3704199,12.5561253 Z M20.1202919,11.1022804 C20.0286431,11.1435403 20.0560967,11.1747634 20.1891743,11.1805719 C20.3098319,11.1864026 20.3776559,11.1557135 20.3393375,11.1123172 C20.3010191,11.0689431 20.2026311,11.0647147 20.1202919,11.1022804 Z M20.1415247,10.0213994 C20.0788847,10.0213994 20.0270879,10.0467918 20.0270879,10.078549 C20.0270879,10.110284 20.0788847,10.171662 20.1415247,10.2161044 C20.2041863,10.2605244 20.2559615,10.2346202 20.2559615,10.1589547 C20.2584023,10.1252613 20.2477751,10.0919463 20.2263479,10.0661978 C20.2049423,10.0404715 20.1744647,10.0243592 20.1415247,10.0213994 Z M19.5123599,13.2481527 C19.5434423,13.2836042 19.5123599,13.3904705 19.4409071,13.4862318 C19.2803759,13.706307 19.4118983,13.714786 19.6283519,13.498405 C19.8448055,13.2820018 19.8401615,13.1841263 19.6283519,13.1841263 C19.5330743,13.1841263 19.4812991,13.2127012 19.5123599,13.2481527 Z M19.5180623,14.2242593 C19.4264135,14.2242593 19.3787639,14.2739982 19.4118983,14.334308 C19.4198255,14.3486844 19.4306255,14.361147 19.4436287,14.3708945 C19.4566319,14.380642 19.4715359,14.3874519 19.4873039,14.3908568 C19.5030935,14.3942618 19.5194015,14.394195 19.5351479,14.3906343 C19.5508943,14.3870958 19.5657335,14.3801524 19.5786503,14.3702936 C19.7282951,14.2644732 19.7112095,14.2242593 19.5180623,14.2242593 Z M18.6543215,13.984066 C18.5916599,13.9401578 18.5398847,13.9655502 18.5398847,14.0417498 C18.5375735,14.0753986 18.5482655,14.1086469 18.5696495,14.1343509 C18.5910335,14.1600772 18.6214247,14.1761895 18.6543215,14.1793051 C18.7175015,14.1793051 18.7687583,14.1533786 18.7687583,14.1216213 C18.7687583,14.0898863 18.7169831,14.0285083 18.6543215,13.984066 Z M17.8604783,13.5290718 C17.9267687,13.5290718 17.9480015,13.5904498 17.9070911,13.6655812 C17.8553159,13.7586942 17.7817679,13.7533976 17.6714783,13.6497137 C17.5611887,13.5460075 17.5104287,13.5385967 17.5104287,13.6433489 C17.5090247,13.680603 17.5221575,13.7169002 17.5469111,13.7442732 C17.5716647,13.7716463 17.6060303,13.7878699 17.6424911,13.7893832 C17.7196463,13.7893832 17.6942663,13.8920212 17.5777559,14.0364532 C17.4612455,14.1808852 17.4281111,14.3163263 17.4907511,14.3607687 C17.5534127,14.405211 17.6300495,14.3512437 17.6652575,14.2454234 C17.7046127,14.1301003 17.8118135,14.0835438 17.9350631,14.128498 C18.1069775,14.1919902 18.1121615,14.1814193 17.9676791,14.0613115 C17.8599815,13.971915 17.8387487,13.8830303 17.9107199,13.8216523 C18.0282671,13.7216626 18.3001247,13.2259204 18.2643983,13.1772497 C18.2530151,13.1619163 18.1302839,13.1835922 17.9915039,13.2248744 C17.7356951,13.3005176 17.6373071,13.5290718 17.8604783,13.5290718 Z M17.9464463,14.3501755 C17.8553159,14.3919695 17.8822295,14.4226586 18.0158255,14.4290234 C18.1364831,14.4342977 18.2038103,14.4036087 18.1660103,14.3607687 C18.1282103,14.3179064 18.0293039,14.3126098 17.9464463,14.3501755 Z M17.9174591,11.9694065 C17.8894871,11.9694065 17.8351199,12.0281362 17.7962831,12.0995511 C17.7574463,12.1709882 17.7802343,12.2291838 17.8480583,12.2291838 C17.8809335,12.2283381 17.9121455,12.2142287 17.9348471,12.189949 C17.9575703,12.1656471 17.9699255,12.1331332 17.9692343,12.0995511 C17.9692343,12.0281362 17.9469647,11.9694065 17.9174591,11.9694065 Z M17.6906375,12.4984638 C17.5575599,12.3725476 17.5394375,12.3926657 17.5896575,12.6122068 C17.6238503,12.7592871 17.6968583,12.879929 17.7522623,12.879929 C17.9076095,12.879929 17.8734383,12.6725388 17.6906375,12.4984638 Z M17.5648175,11.0599522 C17.4762575,11.0599522 17.3488823,11.1768776 17.2815551,11.3197073 C17.1303551,11.6403285 17.2546199,11.6609585 17.4772943,11.3525105 C17.5679063,11.2271284 17.6088167,11.1980417 17.5689431,11.2874382 C17.4943799,11.4551484 17.6445431,11.5138782 17.7760871,11.3667979 C17.8796375,11.2477583 17.7564095,11.0631124 17.5689431,11.0599522 L17.5648175,11.0599522 Z M17.5673879,10.5398858 C17.5285511,10.6113006 17.5513391,10.6700303 17.6191847,10.6700303 C17.6521463,10.6690511 17.6834015,10.6548527 17.7061895,10.630484 C17.7289775,10.6061375 17.7414191,10.5735791 17.7408791,10.5398858 C17.7408791,10.4684487 17.7180911,10.410253 17.6890823,10.410253 C17.6606135,10.410253 17.6062247,10.4684487 17.5673879,10.5398858 Z M17.6248871,11.7747015 C17.5617071,11.7307932 17.5104287,11.7567198 17.5104287,11.8323852 C17.5079879,11.8660786 17.5186367,11.8993937 17.5400423,11.9251422 C17.5614695,11.9508684 17.5919255,11.9669585 17.6248871,11.9699406 C17.6875271,11.9699406 17.7393239,11.944014 17.7393239,11.9127909 C17.7393239,11.88159 17.6875271,11.8191438 17.6248871,11.7747015 Z M17.2598039,10.0610792 C17.1686735,10.1028732 17.1955871,10.1335623 17.3291831,10.1399048 C17.4498407,10.1452014 17.5171679,10.1145124 17.4793679,10.0716501 C17.4415679,10.0288101 17.3426615,10.0235135 17.2598039,10.0610792 Z M17.0278199,14.1560268 C16.9454807,14.2491399 16.9387415,14.3094497 17.0107343,14.3094497 C17.1660815,14.3094497 17.2986407,14.1560268 17.2220039,14.0692564 C17.1899063,14.0322248 17.1023831,14.0692564 17.0278199,14.1560268 Z M16.5472631,14.1311463 C16.4866751,14.3094497 16.5037823,14.3173723 16.6508351,14.1803511 C16.8496847,13.9930568 16.8698807,13.9158335 16.7228063,13.9158335 C16.6653287,13.9195278 16.5866183,14.0158232 16.5472631,14.1311463 Z M16.5949127,11.3848018 C16.5317327,11.3408714 16.4804759,11.3667979 16.4804759,11.4424634 C16.4780351,11.4761567 16.4886623,11.5094718 16.5100895,11.5352203 C16.5314951,11.5609466 16.5619727,11.5770588 16.5949127,11.5800187 C16.6575743,11.5800187 16.7093495,11.5540922 16.7093495,11.5223572 C16.7093495,11.4905999 16.6575743,11.4292442 16.5949127,11.3848018 Z M16.2515807,13.7899173 C16.2186407,13.7928772 16.1881847,13.8089672 16.1667575,13.8347157 C16.1453519,13.860442 16.1347031,13.8937793 16.1371439,13.9274727 C16.1371439,14.0031159 16.1889407,14.0290424 16.2515807,13.9846001 C16.3142423,13.9401578 16.3660391,13.8787797 16.3660391,13.8470447 C16.3660391,13.8153098 16.3142423,13.7899173 16.2515807,13.7899173 Z M15.3640367,13.6946679 C15.1890119,13.7433608 15.1051175,13.7079093 15.1051175,13.5835732 C15.1051175,13.4830494 15.0533207,13.4010414 14.9942879,13.4010414 C14.9352551,13.4010414 14.9160959,13.498405 14.9564879,13.6169105 C15.0056927,13.7623884 14.9854967,13.8026024 14.8953815,13.7396443 C14.7172463,13.6142622 14.7239855,13.0476392 14.9047127,12.974622 C14.9834231,12.942353 15.0082847,12.8688017 14.9647823,12.8159026 C14.9212799,12.7630036 14.8032143,12.788396 14.7058631,12.8788607 C14.5950551,12.9846811 14.5313567,12.9920919 14.5313567,12.9037191 C14.5313567,12.8270076 14.6209319,12.7074562 14.7307247,12.6392015 C15.0186311,12.4561356 14.8441247,12.3334018 14.5044215,12.4804821 C14.2739927,12.5799377 14.2278983,12.6714706 14.2729559,12.9391706 C14.3102375,13.1613822 14.2786583,13.2735451 14.1787151,13.2735451 C14.0642783,13.2735451 14.0601311,13.3100426 14.1600743,13.4238078 C14.2600175,13.5375508 14.3382095,13.5296059 14.4800999,13.3978812 C14.6489039,13.2391618 14.6608055,13.2677144 14.6007359,13.6978503 C14.5489607,14.0713706 14.5681199,14.159187 14.6929247,14.1047079 C14.7799079,14.0671422 14.8803695,14.0883063 14.9150591,14.1528444 C14.9497703,14.2173826 15.1372151,14.2438433 15.3293255,14.2115742 C15.5882447,14.167666 15.6503879,14.1120964 15.5639015,13.9935909 C15.5002247,13.9063086 15.4857095,13.787269 15.5323223,13.7290734 C15.5835791,13.6692754 15.5059055,13.654988 15.3640367,13.6946679 Z M15.3355463,9.75899601 C15.3098207,9.75621419 15.2838791,9.76144401 15.2611559,9.77404008 C15.2384111,9.78663615 15.2199431,9.80597535 15.2081711,9.82949841 C15.1964207,9.85304372 15.1919063,9.87966015 15.1952543,9.90585375 C15.1986023,9.93206961 15.2096615,9.95661637 15.2269415,9.97626713 C15.2442215,9.9959179 15.2669231,10.0097602 15.2920655,10.0159692 C15.3172079,10.022156 15.3436031,10.0204424 15.3677735,10.0110065 C15.3919223,10.0015706 15.4127015,9.98485739 15.4273895,9.9631147 C15.4420775,9.94134975 15.4499399,9.91555673 15.4499831,9.88914059 C15.4515383,9.85640415 15.4403927,9.82437986 15.4189655,9.80001113 C15.3975383,9.77564241 15.3675575,9.7609099 15.3355463,9.75899601 Z M14.2605359,13.6587045 C14.2356743,13.6587045 14.1849359,13.7497034 14.1476543,13.8602639 C14.1103511,13.9708468 14.1274583,14.0285083 14.1926903,13.98302 C14.2998911,13.9073546 14.3516663,13.6655812 14.2605359,13.6587045 Z M13.7121551,12.7899761 C13.6204847,12.831236 13.6479383,12.8624591 13.7810159,12.8682898 C13.9016735,12.8740983 13.9695191,12.8434092 13.9312007,12.8000351 C13.8928607,12.7566388 13.7944943,12.7524104 13.7121551,12.7899761 Z M13.2761375,13.920596 C13.4977751,14.0835438 13.6194479,14.0835438 13.6194479,13.920596 C13.6194479,13.8502271 13.5060479,13.7930775 13.3605503,13.7925434 C13.1549615,13.7925434 13.1373575,13.819004 13.2761375,13.920596 Z M13.3905743,11.7112315 C13.3648271,11.7084497 13.3388639,11.7137018 13.3161191,11.7263201 C13.2933743,11.7389162 13.2748847,11.7582999 13.2631559,11.7818674 C13.2514055,11.805435 13.2469127,11.8320737 13.2503039,11.8582895 C13.2536951,11.8845054 13.2647975,11.9090744 13.2821423,11.9287029 C13.2994871,11.9483314 13.3222319,11.9621515 13.3474175,11.9682938 C13.3726031,11.9744138 13.3989983,11.9726111 13.4231471,11.9630862 C13.4472959,11.9535835 13.4680535,11.9367813 13.4826767,11.9149719 C13.4972999,11.8931402 13.5050759,11.8672804 13.5050111,11.840842 C13.5064367,11.8082168 13.4952263,11.776326 13.4737991,11.7520686 C13.4523935,11.7278111 13.4224991,11.7131454 13.3905743,11.7112315 Z M12.9612959,13.5327883 C12.7582991,13.5375508 12.5672255,13.7597402 12.6920303,13.8470447 C12.7274111,13.8711687 12.7686671,13.8847662 12.8111759,13.8863463 C12.8536847,13.8879486 12.8957831,13.8774444 12.9328055,13.8560356 C13.0648679,13.7629226 13.0881527,13.5349025 12.9612959,13.5327883 Z M12.6780335,11.7091173 C12.6107279,11.7091173 12.6221111,11.7916372 12.7039319,11.9038001 C12.7857527,12.015963 12.8644631,12.099017 12.8862143,12.099017 C12.9079655,12.099017 12.8960423,12.0112005 12.8597975,11.9038001 C12.8235527,11.7963996 12.7448423,11.7122775 12.6780335,11.7091173 Z M11.7946151,12.5497828 C11.8722887,12.4439847 11.9023343,12.3191144 11.8619423,12.273092 C11.8215503,12.2270696 11.7884159,12.264613 11.7884159,12.3566801 C11.7884159,12.459318 11.7008927,12.4974178 11.5595207,12.4556238 C11.4337007,12.4180581 11.3306471,12.4402682 11.3306471,12.5053404 C11.3331743,12.5388113 11.3484887,12.5699009 11.3733071,12.5918884 C11.3981255,12.6138759 11.4304391,12.6249809 11.4632063,12.6227999 C11.5393247,12.6227999 11.5103375,12.7286203 11.3948639,12.8746324 C11.1504383,13.181478 11.2431239,13.4036897 11.5745543,13.3063483 C11.7299015,13.2597918 11.8546847,13.3100426 11.9230487,13.4486661 C12.0478319,13.7015445 12.3212663,13.7317217 12.3890903,13.5015652 C12.4636535,13.2534492 12.2337431,12.910618 11.9256407,12.8211992 C11.7008927,12.7555928 11.6781047,12.7090363 11.7946151,12.5497828 Z M11.8976687,11.1864026 C11.9887991,11.2525208 12.1048127,11.2768673 12.1565879,11.2393016 C12.3160823,11.1271387 12.2560127,11.0609982 11.9903543,11.0626005 C11.7878975,11.0652488 11.7677015,11.0932895 11.8976687,11.1864026 Z M11.8278359,10.1675227 C11.8048535,10.1799852 11.7861263,10.1993467 11.7742031,10.222981 C11.7622583,10.2466154 11.7576575,10.2734098 11.7610055,10.2997815 C11.7643751,10.3261531 11.7755423,10.3508556 11.7929951,10.3705732 C11.8104695,10.3902907 11.8334087,10.4041108 11.8587455,10.410164 C11.8841039,10.4162172 11.9106503,10.4142143 11.9348639,10.4044446 C11.9590775,10.3946748 11.9797919,10.3775834 11.9942423,10.3554623 C12.0086927,10.3333413 12.0161879,10.3072367 12.0157343,10.2806426 C12.0171599,10.2479506 12.0059495,10.2159931 11.9845655,10.1916689 C11.9631599,10.1673224 11.9332655,10.1525454 11.9012975,10.150498 C11.8769975,10.1500084 11.8508183,10.1550379 11.8278359,10.1675227 Z M11.7749375,10.5430459 C11.7122975,10.5430459 11.6926199,10.6017756 11.7314567,10.6732127 C11.7500975,10.7081969 11.7765575,10.7382183 11.8086767,10.7608289 C11.8407959,10.7834172 11.8776671,10.797994 11.9163095,10.8033573 C11.9794895,10.8033573 11.9991671,10.7446276 11.9603303,10.6732127 C11.9416247,10.6381396 11.9150783,10.6080959 11.8828727,10.5854853 C11.8506671,10.5628747 11.8136879,10.5483202 11.7749375,10.5430459 Z M11.3306471,11.4609791 C11.3306471,11.5366223 11.3782967,11.5667995 11.4342191,11.5244714 C11.4901415,11.4821432 11.6169983,11.5392706 11.7117791,11.6472052 C11.9561831,11.92443 12.0431879,11.8900468 11.8743623,11.5832011 C11.7966887,11.4413951 11.6439335,11.325538 11.5300151,11.3228897 C11.4212591,11.3228897 11.3306471,11.3853137 11.3306471,11.4609791 Z M10.7123471,12.8973765 C10.8972215,13.1301591 10.9360583,13.139684 10.9671191,12.9624488 C10.9878335,12.8471258 11.0520503,12.7508303 11.1105647,12.7508303 C11.1690791,12.7508303 11.2141367,12.7217214 11.2141367,12.685758 C11.2141367,12.6497724 11.0520503,12.6206858 10.8516455,12.6206858 C10.4928047,12.6227999 10.4928047,12.6227999 10.7123471,12.8973765 Z M10.8304127,11.6472052 C10.8666791,11.7530255 10.9422791,11.809107 10.9987199,11.7694271 C11.1587327,11.6572642 11.1188591,11.4562167 10.9329479,11.4519883 C10.8304127,11.4530343 10.7915759,11.5292338 10.8304127,11.6472052 Z M10.2307751,11.4361208 C10.3343471,11.563083 10.4156495,11.7360898 10.4156495,11.8196779 C10.4156495,11.903266 10.4674247,11.9720548 10.5300863,11.9720548 C10.6854335,11.9720548 10.6735103,11.7985138 10.5010775,11.5943061 C10.3861223,11.4583308 10.3975055,11.3969528 10.5528743,11.2805615 C10.8143639,11.0869247 10.7232335,11.0123275 10.3509143,11.1176138 C10.0671335,11.1996218 10.0588607,11.2207858 10.2307751,11.4361208 Z M10.1137463,13.1042548 C10.1608775,13.1571538 10.2468239,13.1148257 10.3053383,13.0095394 C10.4813999,12.6921006 10.4285879,12.5524311 10.2219623,12.7873278 C10.1158199,12.9079697 10.0666151,13.0513335 10.1137463,13.1042548 Z M9.95580706,12.0323646 C10.0200239,12.077341 10.0723175,12.0228396 10.0723175,11.911745 C10.0723175,11.800628 10.0516031,11.7170399 10.0205423,11.7091173 C9.90092146,11.7091173 9.85016146,11.9583015 9.95580706,12.0323646 Z M9.15680146,11.9688724 C9.03095986,12.0455838 8.92790626,12.1371167 8.92790626,12.1731023 C8.92790626,12.2090657 9.03147826,12.1731023 9.15680146,12.099017 C9.28210306,12.0249538 9.38567506,11.9302607 9.38567506,11.8948092 C9.38567506,11.8593578 9.28210306,11.892161 9.15680146,11.9688724 Z M8.95743346,11.2234341 C8.84247826,11.3419396 8.74097986,11.5503979 8.73164866,11.686885 C8.71767346,11.903266 8.75028946,11.9170193 8.98434706,11.7927054 C9.14384146,11.707515 9.20339266,11.613356 9.13142146,11.5625489 C9.05945026,11.511764 9.04493506,11.3747428 9.08791906,11.24511 C9.16144546,11.0234325 9.15265426,11.0223866 8.95743346,11.2234341 Z M8.54524066,12.5471345 C8.50277506,12.6730507 8.53729186,12.7118626 8.64881266,12.6635258 C8.82796306,12.5852343 8.87613106,12.3624885 8.71197106,12.3587943 C8.65501186,12.3587943 8.58044866,12.4434506 8.54524066,12.5471345 Z M8.61980386,11.2456442 C8.73268546,11.1969735 8.79586546,11.1239563 8.76065746,11.0837646 C8.72544946,11.0435506 8.63326066,11.0837646 8.55351346,11.1726492 C8.44322386,11.3011915 8.45668066,11.316013 8.61980386,11.2456442 Z M8.42095426,11.4488059 C8.39352226,11.4488059 8.33913346,11.5075356 8.29977826,11.5789505 C8.26042306,11.6503876 8.28372946,11.7091173 8.35157506,11.7091173 C8.38449346,11.7081381 8.41570546,11.6939175 8.43838546,11.6695265 C8.46108706,11.6451578 8.47344226,11.6125994 8.47275106,11.5789505 C8.47275106,11.5075356 8.44996306,11.4488059 8.42095426,11.4488059 Z M7.67061346,13.0735658 C7.63633426,13.1021851 7.60849186,13.1380372 7.58900866,13.178674 C7.56952546,13.2193108 7.55885506,13.2637531 7.55773186,13.3089966 C7.55773186,13.4021096 7.60382626,13.385708 7.67061346,13.2687826 C7.81250386,13.0190644 7.81250386,12.9740879 7.67061346,13.0735658 Z M7.44173986,10.7340567 C7.37855986,10.7779649 7.32730306,10.8985845 7.32730306,11.0017566 C7.32730306,11.2504066 7.13519266,11.2403476 7.00986946,10.9858891 C6.92856706,10.8208049 6.88765666,10.8144623 6.79186066,10.9530859 C6.58162786,11.2572833 6.54330946,11.6937617 6.71263186,11.8524811 C6.80171026,11.9371374 6.90837106,11.9683383 6.94876306,11.9223159 C6.98915506,11.8762935 6.96221986,11.8387278 6.88869346,11.8387278 C6.81516706,11.8387278 6.75613426,11.7366239 6.75717106,11.6112196 C6.75717106,11.4207652 6.77581186,11.4144226 6.86486866,11.5752562 C6.92390146,11.6810766 7.00831426,11.7244507 7.05285346,11.6736658 C7.09739266,11.622881 7.21131106,11.6530359 7.30451506,11.7413864 C7.44847906,11.8773394 7.46297266,11.8588236 7.39616386,11.6212786 C7.35317986,11.4667876 7.37184226,11.3038398 7.43707426,11.2572833 C7.50232786,11.2107268 7.55617666,11.0567698 7.55617666,10.913406 C7.55617666,10.77002 7.50440146,10.6896143 7.44173986,10.7340567 Z M6.81257506,13.0090053 C6.71781586,13.0090053 6.64066066,12.9502756 6.64066066,12.8788607 C6.64066066,12.8074459 6.71781586,12.7487162 6.81257506,12.7487162 C6.90733426,12.7487162 6.98397106,12.8074459 6.98397106,12.8788607 C6.98397106,12.9502756 6.90681586,13.0090053 6.81257506,13.0090053 Z M6.35171746,11.1916769 C6.25589986,11.2821639 6.20101426,11.3826654 6.23002306,11.4154686 C6.30925186,11.5054215 6.52622386,11.3223556 6.52622386,11.1652385 C6.52622386,11.0800481 6.46200706,11.0885271 6.35171746,11.1916769 Z M5.94727906,13.7888491 C5.88049186,13.7888491 5.85822226,13.7301194 5.89550386,13.6587045 C5.93278546,13.5872674 5.98870786,13.5285599 6.01667986,13.5285599 C6.04463026,13.5285599 6.06845506,13.5872674 6.06845506,13.6587045 C6.06914626,13.6923311 6.05681266,13.7248895 6.03411106,13.7492805 C6.01140946,13.7736492 5.98019746,13.7878699 5.94727906,13.7888491 Z M5.88565426,11.0980298 C5.82454786,11.0747515 5.77432786,11.1668186 5.77432786,11.3027938 C5.77432786,11.4541025 5.83284226,11.5239372 5.92604626,11.4831892 C6.09124306,11.4112402 6.06534466,11.1657503 5.88565426,11.0980298 Z M5.59463746,12.3587943 C5.67386626,12.3587943 5.70596386,12.4318114 5.66609026,12.5212079 C5.62621666,12.6106267 5.67645826,12.5672526 5.77795666,12.4254466 C5.97939826,12.1424133 5.80383346,11.9572332 5.57807026,12.2138282 C5.48434786,12.3201826 5.48899186,12.3587943 5.59463746,12.3587943 Z M5.38181266,10.9938117 C5.31915106,10.9499035 5.26737586,10.9752959 5.26737586,11.0514732 C5.26506466,11.0851444 5.27575666,11.1183927 5.29714066,11.1440967 C5.31852466,11.1698007 5.34891586,11.1859352 5.38181266,11.1890286 C5.44499266,11.1890286 5.49624946,11.1631243 5.49624946,11.1313671 C5.49624946,11.0996321 5.44447426,11.038254 5.38181266,10.9938117 Z M5.22387346,12.8206651 C5.29999186,12.5952933 5.37922066,12.5561253 5.37922066,12.7413054 C5.37548386,12.7811633 5.36349586,12.8197527 5.34403426,12.8545143 C5.32457266,12.8892759 5.29809106,12.9193863 5.26633906,12.9428871 C5.20419586,12.9883754 5.18503666,12.9360104 5.22387346,12.8206651 Z M3.53730226,13.3804114 C3.40835026,13.1434005 3.49794706,13.0973559 3.85886146,13.2402078 C4.05017266,13.3162293 4.26176626,13.31979 4.45541026,13.2502668 C4.77958306,13.1137575 4.83343186,13.1476289 4.69620706,13.3999954 C4.56777346,13.634358 3.66623266,13.6174223 3.53730226,13.3804114 Z M3.30376306,10.9260911 C3.25455826,11.0927554 2.74864306,11.2255483 2.74864306,11.0715914 C2.74864306,10.9070412 3.00237826,10.7176551 3.34931746,10.6234738 C3.52229026,10.5763832 3.66415906,10.4806219 3.66415906,10.4118554 C3.66303586,10.3955205 3.66513106,10.3791189 3.67031506,10.3636075 C3.67549906,10.3481183 3.68366386,10.3338309 3.69431266,10.3215909 C3.70498306,10.3093732 3.71794306,10.2994476 3.73241506,10.2924152 C3.74688706,10.2853828 3.76259026,10.281377 3.77861746,10.2806426 C3.99971506,10.2806426 3.89046226,10.5451601 3.61860466,10.6652679 C3.46790146,10.7329884 3.32603266,10.8493797 3.30376306,10.9260911 Z M2.97751666,12.4931672 C2.95181266,12.495949 2.92587106,12.490697 2.90312626,12.4781231 C2.88038146,12.4655271 2.86191346,12.4461879 2.85014146,12.4226648 C2.83839106,12.3991195 2.83387666,12.3725031 2.83722466,12.3463095 C2.84059426,12.3200936 2.85163186,12.2955468 2.86891186,12.2758961 C2.88619186,12.2562453 2.90891506,12.242403 2.93405746,12.236194 C2.95919986,12.229985 2.98557346,12.2317208 3.00974386,12.2411567 C3.03389266,12.2505927 3.05469346,12.2673058 3.06935986,12.2890485 C3.08404786,12.3108135 3.09193186,12.3366065 3.09197506,12.3630226 C3.09353026,12.3957591 3.08236306,12.4277834 3.06093586,12.4521521 C3.03950866,12.4765208 3.00952786,12.4912533 2.97751666,12.4931672 Z M2.66267506,13.3380833 C2.63707906,13.2007282 2.58420226,13.0702053 2.50732786,12.9545262 C2.33800546,12.7518986 2.38926226,12.6227999 2.63990866,12.6227999 C2.76935746,12.6227999 2.84703106,12.675699 2.81078626,12.7418395 C2.80169266,12.7545914 2.79538546,12.7691903 2.79229666,12.7846572 C2.78918626,12.8001242 2.78935906,12.8160807 2.79279346,12.8314586 C2.79622786,12.8468587 2.80283746,12.8613019 2.81219026,12.8738535 C2.82154306,12.8864273 2.83342306,12.8967756 2.84703106,12.9042532 C2.90347186,12.9285996 2.89623586,13.0920815 2.83046386,13.2745911 C2.72326306,13.5713999 2.70928786,13.5766965 2.66267506,13.3380833 Z M2.07441634,13.2076049 C2.01080002,13.197212 1.94562418,13.2040664 1.88542066,13.2275227 C1.73680402,13.292595 1.70521618,13.2714309 1.77097954,13.1508113 C1.83674506,13.0301694 1.79324698,13.0068911 1.58922202,13.0719634 L1.3173601,13.159268 L1.59647098,12.9047873 C1.81965514,12.7005796 1.9273657,12.6778132 2.13967426,12.7873278 C2.28571186,12.8629932 2.40481426,13.0391602 2.40481426,13.179898 C2.40481426,13.3809455 2.37165826,13.4036897 2.24944546,13.2857183 C2.19786466,13.2453041 2.13803482,13.21802 2.07441634,13.2076049 Z M1.77564082,10.9800584 C1.6813957,10.9387985 1.60423834,10.8821829 1.60423834,10.8541422 C1.60423834,10.8261015 1.6813957,10.8012431 1.77564082,10.8012431 C1.86988594,10.8012431 1.94755954,10.8583706 1.94755954,10.9271594 C1.94755954,10.9959259 1.87040434,11.0197383 1.77564082,10.9800584 Z M1.48772578,12.1815591 C1.48772578,11.9170193 1.4359441,11.9170193 1.05430234,12.1958465 C0.773120017,12.4000542 0.758103697,12.4011224 0.895846897,12.2032572 C1.02530434,12.0170312 1.0128757,11.9609498 0.809887537,11.8170296 C0.678874897,11.7244507 0.572203297,11.6054111 0.572203297,11.5466814 C0.572203297,11.4879516 0.696999457,11.5376906 0.849758977,11.6525018 C1.03879786,11.7780174 1.25607226,11.852125 1.48099522,11.8678145 C1.86936754,11.8805218 1.92166762,11.9847399 1.6611997,12.2296956 C1.51879738,12.3635567 1.48772578,12.3545659 1.48772578,12.1815591 Z M1.37328682,11.3842677 C1.31011114,11.3403595 1.2588457,11.2160234 1.2588457,11.109157 C1.2588457,11.0022907 1.31062954,10.9504376 1.37328682,10.9943458 C1.4359441,11.038254 1.48772578,11.1625902 1.48772578,11.2694565 C1.48772578,11.3763228 1.4359441,11.4281759 1.37328682,11.3842677 Z M1.20240274,12.7069221 C1.08951466,12.8899658 0.953842897,12.9608687 0.802120177,12.9153582 C0.486760177,12.8222452 0.510580657,12.5894626 0.829565137,12.6418498 C0.903037537,12.6521314 0.977862097,12.6434744 1.04722834,12.6166799 C1.11659458,12.5898855 1.17830362,12.5457992 1.22673946,12.4884047 C1.42403386,12.210668 1.4064277,12.3746618 1.20240274,12.7069221 Z M0.171919657,12.4878929 C0.077156785,12.3984741 -6.97361058e-10,12.2762522 5.34905453e-13,12.2159423 C6.98647029e-10,12.1556325 0.077156785,12.1392309 0.171919657,12.1804908 C0.221721697,12.2059723 0.263908657,12.2446507 0.294062257,12.292498 C0.324218017,12.3403452 0.341230177,12.395581 0.343321057,12.4524414 C0.343321057,12.6111608 0.311216977,12.6196175 0.171919657,12.4878929 Z" id="Shape"></path>
                </g>
            </g>
        </g>
    </g>
</svg>