<?xml version="1.0" encoding="utf-8"?>
<!-- Generator: Adobe Illustrator 24.3.0, SVG Export Plug-In . SVG Version: 6.00 Build 0)  -->
<svg version="1.1" id="Layer_1" xmlns="http://www.w3.org/2000/svg" xmlns:xlink="http://www.w3.org/1999/xlink" x="0px" y="0px"
	 viewBox="0 0 543.82 625.02" style="enable-background:new 0 0 543.82 625.02;" xml:space="preserve">
<style type="text/css">
	.st0{fill:none;stroke:#000000;stroke-width:2;stroke-linecap:round;stroke-linejoin:round;stroke-miterlimit:10;}
	.st1{fill:#FFFFFF;}
	.st2{fill:url(#SVGID_1_);stroke:#000000;stroke-width:2;stroke-miterlimit:10;}
	.st3{fill:url(#SVGID_2_);stroke:#000000;stroke-width:2;stroke-miterlimit:10;}
	.st4{fill:url(#SVGID_3_);stroke:#000000;stroke-width:2;stroke-miterlimit:10;}
	.st5{fill:url(#SVGID_4_);stroke:#000000;stroke-width:2;stroke-miterlimit:10;}
	.st6{fill:url(#SVGID_5_);stroke:#000000;stroke-width:2;stroke-miterlimit:10;}
	.st7{fill:url(#SVGID_6_);stroke:#000000;stroke-width:2;stroke-miterlimit:10;}
	.st8{fill:url(#SVGID_7_);stroke:#000000;stroke-width:2;stroke-miterlimit:10;}
	.st9{fill:url(#SVGID_8_);stroke:#000000;stroke-width:2;stroke-miterlimit:10;}
	.st10{fill:url(#SVGID_9_);stroke:#000000;stroke-width:2;stroke-miterlimit:10;}
	.st11{fill:url(#SVGID_10_);stroke:#000000;stroke-width:2;stroke-miterlimit:10;}
	.st12{fill:url(#SVGID_11_);stroke:#000000;stroke-width:2;stroke-miterlimit:10;}
	.st13{fill:url(#SVGID_12_);stroke:#000000;stroke-width:2;stroke-miterlimit:10;}
	.st14{fill:url(#SVGID_13_);stroke:#000000;stroke-width:2;stroke-miterlimit:10;}
	.st15{fill:url(#SVGID_14_);stroke:#000000;stroke-width:2;stroke-miterlimit:10;}
	.st16{fill:url(#SVGID_15_);stroke:#000000;stroke-width:2;stroke-miterlimit:10;}
	.st17{fill:url(#SVGID_16_);stroke:#000000;stroke-width:2;stroke-miterlimit:10;}
	.st18{fill:url(#SVGID_17_);stroke:#000000;stroke-width:2;stroke-miterlimit:10;}
	.st19{fill:url(#SVGID_18_);stroke:#000000;stroke-width:2;stroke-miterlimit:10;}
	.st20{fill:url(#SVGID_19_);stroke:#000000;stroke-width:2;stroke-miterlimit:10;}
	.st21{fill:url(#SVGID_20_);stroke:#000000;stroke-width:2;stroke-miterlimit:10;}
	.st22{fill:url(#SVGID_21_);stroke:#000000;stroke-width:2;stroke-miterlimit:10;}
	.st23{fill:url(#SVGID_22_);stroke:#000000;stroke-width:2;stroke-miterlimit:10;}
	.st24{fill:url(#SVGID_23_);stroke:#000000;stroke-width:2;stroke-miterlimit:10;}
	.st25{fill:url(#SVGID_24_);stroke:#000000;stroke-width:2;stroke-miterlimit:10;}
	.st26{fill:url(#SVGID_25_);stroke:#000000;stroke-width:2;stroke-miterlimit:10;}
	.st27{fill:url(#SVGID_26_);stroke:#000000;stroke-width:2;stroke-miterlimit:10;}
	.st28{fill:url(#SVGID_27_);stroke:#000000;stroke-width:2;stroke-miterlimit:10;}
	.st29{fill:url(#SVGID_28_);stroke:#000000;stroke-width:2;stroke-miterlimit:10;}
	.st30{fill:url(#SVGID_29_);stroke:#000000;stroke-width:2;stroke-miterlimit:10;}
	.st31{fill:url(#SVGID_30_);stroke:#000000;stroke-width:2;stroke-miterlimit:10;}
	.st32{fill:url(#SVGID_31_);stroke:#000000;stroke-width:2;stroke-miterlimit:10;}
	.st33{fill:url(#SVGID_32_);stroke:#000000;stroke-width:2;stroke-miterlimit:10;}
	.st34{fill:url(#SVGID_33_);stroke:#000000;stroke-width:2;stroke-miterlimit:10;}
	.st35{fill:url(#SVGID_34_);stroke:#000000;stroke-width:2;stroke-miterlimit:10;}
	.st36{fill:url(#SVGID_35_);stroke:#000000;stroke-width:2;stroke-miterlimit:10;}
	.st37{fill:url(#SVGID_36_);stroke:#000000;stroke-width:2;stroke-miterlimit:10;}
	.st38{fill:url(#SVGID_37_);stroke:#000000;stroke-width:2;stroke-miterlimit:10;}
	.st39{fill:url(#SVGID_38_);stroke:#000000;stroke-width:2;stroke-miterlimit:10;}
	.st40{fill:url(#SVGID_39_);stroke:#000000;stroke-width:2;stroke-miterlimit:10;}
	.st41{fill:url(#SVGID_40_);stroke:#000000;stroke-width:2;stroke-miterlimit:10;}
	.st42{fill:url(#SVGID_41_);stroke:#000000;stroke-width:2;stroke-miterlimit:10;}
	.st43{fill:url(#SVGID_42_);stroke:#000000;stroke-width:2;stroke-miterlimit:10;}
	.st44{fill:url(#SVGID_43_);stroke:#000000;stroke-width:2;stroke-miterlimit:10;}
	.st45{fill:url(#SVGID_44_);stroke:#000000;stroke-width:2;stroke-miterlimit:10;}
	.st46{fill:url(#SVGID_45_);stroke:#000000;stroke-width:2;stroke-miterlimit:10;}
	.st47{fill:url(#SVGID_46_);stroke:#000000;stroke-width:2;stroke-miterlimit:10;}
	.st48{fill:url(#SVGID_47_);stroke:#000000;stroke-width:2;stroke-miterlimit:10;}
	.st49{fill:url(#SVGID_48_);stroke:#000000;stroke-width:2;stroke-miterlimit:10;}
	.st50{fill:url(#SVGID_49_);stroke:#000000;stroke-width:2;stroke-miterlimit:10;}
	.st51{fill:url(#SVGID_50_);stroke:#000000;stroke-width:2;stroke-miterlimit:10;}
	.st52{fill:url(#SVGID_51_);stroke:#000000;stroke-width:2;stroke-miterlimit:10;}
	.st53{fill:url(#SVGID_52_);stroke:#000000;stroke-width:2;stroke-miterlimit:10;}
	.st54{fill:url(#SVGID_53_);stroke:#000000;stroke-width:2;stroke-miterlimit:10;}
	.st55{fill:url(#SVGID_54_);stroke:#000000;stroke-width:2;stroke-miterlimit:10;}
	.st56{fill:none;stroke:#000000;stroke-miterlimit:10;}
	.st57{fill:none;stroke:#000000;stroke-width:2;stroke-miterlimit:10;}
	.st58{fill:#F15A29;}
	.st59{fill:#8DC63F;}
	.st60{fill:#871623;}
	.st61{fill:#27AAE1;}
</style>
<g>
	<path class="st0" d="M294.06,289.49c-0.75,4.85-0.72,9.74-0.91,14.63c-0.24,6.16-0.85,12.31-1.25,18.46
		c-0.45,6.95-0.7,13.91-1.33,20.85c-0.79,8.77-1.12,17.56-2.01,26.33c-1.06,10.42-1.49,20.9-2.32,31.35
		c-0.48,6.07-1.28,12.11-1.78,18.17c-0.65,7.85-1.4,15.69-2.28,23.52c-0.73,6.51-1.36,13.04-2.1,19.55
		c-0.44,3.86-0.98,7.7-1.52,11.55c-0.2,1.41-0.27,2.76,0.69,3.95"/>
	<path class="st0" d="M264.31,95.45c-1.72,2.58-4.71,3.38-7.17,4.77c-7.86,4.42-15.54,9.15-23.32,13.72
		c-5.51,3.24-10.87,6.73-16.34,10.04c-4.95,2.99-9.97,5.86-14.92,8.83c-7.02,4.21-14.04,8.44-21.01,12.72
		c-6.2,3.81-12.33,7.74-18.52,11.55c-4.6,2.83-9.07,5.85-13.61,8.76c-3.97,2.55-7.88,5.24-11.8,7.87c-2.66,1.79-4.77,4.68-8.29,5.17
		c-0.43,0.06-0.56,0.66-0.8,1.06c-1.81,3.01-3.67,5.99-5.5,8.99c-0.49,0.8-0.7,1.65-0.85,2.61c-0.18,1.19-1.34,1.91-2.27,2.59
		c-0.94,0.69-1.48,1.44-1.44,2.62c0.01,0.46-0.05,0.98-0.26,1.37c-3.52,6.36-6.25,13.13-10.18,19.28c-1.72,2.7-2.76,5.88-4.67,8.42
		c-3.98,5.3-5.11,11.95-8.7,17.4c-0.42,0.63-0.75,1.42-1.25,2c-0.41,0.49-0.72,1.06-0.59,1.52c1.1,4.01-1.22,7.31-2.24,10.85
		c-0.54,1.89-0.68,3.66-0.13,5.51"/>
	<path class="st0" d="M193.62,376.38c-1.8,0.11-3.12,0.78-4.41,2.27c-6.56,7.62-12.25,15.81-17.18,24.55
		c-1.14,2.02-2.57,3.84-3.63,5.96c-1.26,2.54-1.26,4.93-0.6,7.45c0.9,3.45,1.48,7.01,3.26,10.2c0.35,0.63,0.78,1.48,0.44,2.25
		c-1.17,2.62-0.25,5.12,0.67,7.44c1.22,3.06,1.57,6.29,2.04,9.44c0.4,2.66,1.12,5.23,1.59,7.86c1.35,7.53,2.89,15.02,4.13,22.58
		c0.33,2,0.68,4.02,1.27,5.96c2.07,6.85,3.24,13.91,4.73,20.88c1.67,7.83,2.99,15.75,4.12,23.67c1.27,8.84,2.54,17.68,3.06,26.61
		c0.22,3.77,0.86,7.53,0.73,11.32c-0.04,1.21,0.73,1.85,1.15,2.74"/>
	<path class="st0" d="M122.3,118.73c-0.31-1.36-0.66-2.72-0.93-4.09c-0.3-1.5,0.96-2.2,1.74-3.09c0.99-1.14,2.26-2.04,2.68-3.61
		c0.16-0.58,0.65-0.9,1.16-1.22c10-6.23,19.98-12.51,30-18.72c4.98-3.09,9.91-6.32,15.12-8.99c3.31-1.7,6.34-3.94,9.82-5.25
		c4.62-1.75,9.47-2.34,14.42-2.2c0.47,0.01,0.53,0.27,0.79,0.45c2.26,1.62,4.82,2.6,7.52,3.07c1.72,0.3,3.06,1.08,4,2.41
		c1.29,1.81,2.84,2.36,5.08,2.57c4.84,0.46,9.63,1.48,14.43,2.35c10.15,1.85,19.66,5.7,29.24,9.35c2.49,0.95,5.39,0.88,7.39,3.03
		c1.94-0.72,3.58,0.84,5.6,0.6c2.72-0.32,5.38,0.99,8.07,1.53c12.57,2.55,24.81,6.41,37.19,9.69c7.56,2,15.15,3.89,22.51,6.54
		c2.46,0.89,5.07,1.74,6.61,4.37c0.52,0.89,0.94,1.86,1.23,2.73c0.86,2.55,1.3,5.25,1.03,7.98c-0.06,0.59-0.11,1.22-0.59,1.7
		c-3.28,3.35-5.21,7.63-7.83,11.42c-4.44,6.42-9.05,12.72-13.54,19.1c-6.52,9.27-13.75,18.03-19.65,27.73
		c-0.52,0.85-1.24,1.6-1.97,2.28c-0.26,0.24-0.7,0.29-0.87,0.72c-0.45,1.17-0.62,2.47-0.22,3.55c0.45,1.19,1.76,0.51,2.66,0.42
		c2.35-0.24,4.63,0.37,6.91,0.65c8.18,0.99,16.39,1.48,24.59,2.18c7.58,0.64,15.16,1.24,22.75,1.76c5.84,0.4,11.69,0.74,17.53,1.15
		c1.13,0.08,1.99-0.32,1.94-1.45c-0.06-1.53,0.28-3.11-0.97-4.53c-1.73-1.97-1.67-4.74-2.65-7.08c-1.35-3.22-1.97-6.8-3.63-9.83
		c-1.66-3.03-1.96-6.52-3.82-9.42c-0.6-0.93,0.15-2.1-0.25-3.19c-1.64-4.47-3.13-9-4.86-13.45c-1.04-2.67-2.21-5.3-3.07-8.06
		c-0.99-3.14-2.48-6.12-3.62-9.22c-1.35-3.68-2.67-7.38-3.78-11.13c-0.54-1.84-1.57-3.45-2.02-5.31c-0.28-1.17-0.55-2.29-0.09-3.46"
		/>
	<path class="st0" d="M411.17,202.23c0.37-1.82-0.11-3.55-0.34-5.34c-0.61-4.79-1.72-9.41-3.8-13.75c-1.35-2.81-2-5.84-3.11-8.71
		c-0.38-0.99-0.76-2.11-1.49-2.82c-1.8-1.77-2.31-4.37-4.25-6.04c-0.99-0.85-0.49-2.31-0.18-3.13c0.69-1.8-0.03-2.91-1.04-4.14
		c-3.1-3.78-6.55-7.24-10.03-10.64c-5.54-5.4-11.43-10.47-16.86-15.98c-5.06-5.14-10.42-9.96-15.63-14.93
		c-1.1-1.05-2.19-2.13-3.88-2.19c-0.6-0.02-1-0.47-1.35-0.91c-0.04-0.05-0.03-0.14-0.06-0.2c-1.22-2.27-4.35-2.64-5.29-5.04
		c-1.06-2.69-3.63-3.5-5.64-4.89c-8.76-6.03-17.79-11.67-27.14-16.77c-8.98-4.9-18.46-8.44-28.37-10.92
		c-5.65-1.41-11.22-3.23-16.94-4.27c-9.9-1.8-19.91-2.94-29.99-2.84c-8.78,0.08-17.56,0.2-26.32,0.86
		c-3.21,0.24-6.43,0.55-9.65,0.49c-1.38-0.03-2.24,0.23-2.91,1.34"/>
	<path class="st0" d="M335.44,301.72c-1.3,2.15-0.61,4.5-0.2,6.6c0.71,3.69,0.7,7.39,0.78,11.08c0.07,2.88,0.42,5.71,1.02,8.45
		c1.19,5.46,2.68,10.86,3.96,16.31c1.25,5.3,3.03,10.48,4.38,15.75c1.85,7.18,3.29,14.46,5.49,21.55c0.35,1.11-0.01,1.92-0.7,2.84
		c-6.5,8.61-12.72,17.41-18.73,26.37c-4.14,6.18-8.17,12.43-12.33,18.59c-0.95,1.41-2.15,2.6-3.02,4.08
		c-0.93,1.58-1.87,3.08-2.07,4.97c-0.15,1.38-1.41,2.15-2.1,3.23c-6.63,10.43-13.9,20.39-21.54,30.08
		c-2.93,3.72-5.84,7.47-8.51,11.38c-1.76,2.58-3.37,5.37-3.21,8.72c0.01,0.26,0.27,0.5,0.41,0.75"/>
	<path class="st0" d="M328.67,287.84c0.96-0.14,1.8,0.16,2.22,1.01c0.52,1.05,1.54,1.58,2.2,2.44c0.63,0.82,1.33,0.94,2.25,0.88
		c2.95-0.19,4.01,0.47,4.8,3.2c0.36,1.25,1.14,2.1,2.12,2.64c8.42,4.69,16.51,9.94,24.95,14.61c7.04,3.9,13.97,8.03,20.97,12.01
		c8.16,4.63,16.46,9.05,24.88,13.22c12.81,6.35,25.44,13.03,38.2,19.46c8.52,4.3,17.02,8.63,25.31,13.37
		c2.59,1.48,5.08,3.09,7.93,4.05c1.16,0.39,2.26,0.74,3.1-0.65c0.75-1.23,1.69-0.67,2.58-0.09c2.29,1.5,4.11,3.5,5.92,5.51
		c1.38,1.54,2.98,2.88,4.44,4.31c1.1,1.08,3.4,0.95,5.22,0.58"/>
	<path class="st0" d="M344.11,109.44c-1.42,0.83-2.82,0.56-4.17-0.13c-4.35-2.24-8.63-4.63-13.05-6.73
		c-10.81-5.16-21.05-11.49-32.32-15.72c-10.9-4.1-22.11-6.79-33.68-8.1c-9.26-1.05-18.56-1.47-27.85-2.06
		c-6.63-0.42-13.3-0.4-19.95-0.45c-1.14-0.01-2.38,0.17-3.44,0.91c-2.28,1.57-4.78,1.68-7.48,1.31c-5.48-0.75-10.94-0.25-16.42,0.41
		c-3.06,0.37-5.03,2.35-7.1,4.1c-3.87,3.26-7.77,6.5-11.32,10.12c-0.22,0.22-0.42,0.52-0.7,0.62c-7.81,2.82-13.99,8.42-21.08,12.46
		c-5.66,3.22-11.19,6.69-16.76,10.07c-1,0.61-1.99,1.25-2.94,1.93c-1.01,0.72-2.05,1.13-3.42,0.66c-0.43,0.57-0.93,1.14-1.34,1.78
		c-0.53,0.84-1.02,1.37-2.18,1.58c-1.43,0.27-2.29,1.77-3.34,2.8c-3.54,3.46-7.28,6.72-10.29,10.72c-0.64,0.85-1.71,1.61-2.95,1.76
		c-1.3,0.16-2.28,0.89-2.92,1.94c-1.65,2.7-3.7,5.11-5.79,7.45c-1.41,1.58-1.69,3.05-0.98,4.92c0.28,0.74,0.58,1.44-0.18,2.27
		c-1.5,1.64-1.18,3.68-0.59,5.57c0.41,1.31,0.54,2.62,0.66,3.96c0.54,5.79,1.28,11.56,1.77,17.35c0.62,7.27,1.96,14.4,3.1,21.58
		c0.3,1.92-0.1,3.93,0,5.9c0.3,5.62,0.73,11.24,0.44,16.88c-0.08,1.6,0.39,3.13,1.98,4.01"/>
	<path class="st0" d="M194.8,378.22c1.08,0.6,1.77,1.51,2.39,2.58c3.34,5.73,7.44,10.95,11.11,16.46
		c4.51,6.77,9.29,13.35,13.89,20.06c0.41,0.59,0.83,1.29,1.38,1.52c2.5,1.03,1.94,3.54,2.78,5.36c0.05,0.12-0.01,0.32-0.08,0.45
		c-2.02,3.9-1.57,8.24-2.13,12.39c-0.94,6.92-1.91,13.84-2.57,20.79c-0.52,5.4-1.2,10.78-1.77,16.18
		c-0.76,7.18-1.45,14.36-2.18,21.54c-0.69,6.74-1.34,13.48-2.14,20.21c-0.4,3.38-1.16,6.71-1.68,10.08
		c-0.53,3.47-0.87,6.96-1.44,10.42c-0.38,2.28-1.06,4.51-1.53,6.77c-0.41,1.98,0.01,3.66,1.97,4.67"/>
	<path class="st0" d="M238.26,241.02c0.27,3.77,0.78,7.55,0.74,11.32c-0.03,3.05-0.42,6.07-1.64,9.05
		c-1.65,4.05-2.17,8.48-3.36,12.71c-2.1,7.5-6.09,13.84-10.85,19.77c-3.5,4.37-7.12,8.67-11.02,12.68
		c-2.85,2.92-6.27,5.28-9.49,7.82c-7.17,5.66-14.22,11.49-21.25,17.33c-6.4,5.31-12.82,10.6-18.94,16.24
		c-0.25,0.23-0.63,0.33-0.94,0.5"/>
	<path class="st0" d="M274.54,497.28c-0.27,2.08-1.5,3.63-2.96,4.96c-8.51,7.78-16.86,15.74-25.26,23.64
		c-9.11,8.56-18.31,17.04-27.16,25.88c-3.69,3.69-7.42,7.36-11.32,10.82c-5.72,5.07-10.99,10.59-16.36,16.01
		c-0.94,0.95-1.99,1.75-3.4,1.84"/>
	<path class="st0" d="M122.62,192.08c9.11,1.63,18.19,3.39,27.32,4.86c10.44,1.68,20.91,3.11,31.37,4.65
		c10.61,1.56,21.21,3.24,31.85,4.66c7.04,0.94,13.98,2.57,21.09,3.05c1.17,0.08,2.6,0.3,3.31,1.62"/>
	<path class="st0" d="M487.73,385.38c-0.03-1.91-0.77-3.2-2.65-4.08c-6.35-2.99-13.12-4.38-19.94-5.63
		c-8.78-1.61-17.65-2.63-26.52-3.52c-6.96-0.7-13.92-1.48-20.86-2.3c-8.69-1.04-17.32-2.57-25.97-3.91
		c-4.42-0.68-8.82-1.46-13.25-2.09c-1.02-0.14-2.16-0.26-3.13,0.42"/>
	<path class="st0" d="M247.1,286.02c0.52,1.51,0.3,3.12-0.33,4.41c-1.68,3.46-2.44,7.21-3.85,10.75c-0.63,1.57-0.99,3.26-1.97,4.68
		c-1.61,2.34-0.91,4.9-1.06,7.45c-0.36,5.99-1.43,11.93-2.2,17.89c-1.5,11.61-3,23.23-4.51,34.84c-1.34,10.34-2.72,20.67-4.06,31.01
		c-0.78,6.02-1.55,12.05-2.26,18.08c-0.19,1.65-0.59,3.15-1.71,4.4"/>
	<path class="st0" d="M245.28,285.01c-1,0.45-1.68,1.19-2.24,2.15c-3.65,6.3-7.82,12.28-11.68,18.45c-2.75,4.4-5.5,8.82-8.34,13.17
		c-5.5,8.42-10.73,17.05-16.68,25.14c-7.74,10.54-14.72,21.6-22.45,32.13c-3.5,4.76-6.92,9.74-11.21,13.71
		c-4.11,3.81-3.52,8.44-4.3,12.95"/>
	<path class="st0" d="M269.21,95.81c-0.61,2.94,0.95,5.46,1.95,7.93c1.29,3.2,2.06,6.55,3.44,9.72c3.61,8.3,5.67,17.19,9.56,25.41
		c1.03,2.17,1.83,4.56,2.46,6.91c1.83,6.85,4.52,13.39,6.83,20.08c0.85,2.45,1.93,4.83,2.68,7.3c1.26,4.15,2.49,8.31,3.96,12.39
		c0.14,0.38,0.15,0.86,0.22,1.25c0.28,1.59,0.78,3.15,2.21,4.16"/>
	<path class="st0" d="M119.52,198.84c4.64,2.74,9.91,3.61,14.97,5.12c12.37,3.71,24.74,7.39,37.13,11.05
		c8.09,2.39,16.17,4.79,24.14,7.55c3.88,1.35,8.02,2.14,11.59,4.17c5.08,2.88,10.75,3.72,16.17,5.41c4,1.24,8.44,1.09,11.98,3.77
		c9.15,2.68,17.02,8.05,25.39,12.32c12.27,6.26,24.06,13.47,35.84,20.65c4.56,2.78,9.14,5.52,13.85,8.04
		c5.63,3.02,10.72,6.93,16.46,9.74"/>
	<path class="st0" d="M172.36,486.59c-1.58,2.38-0.11,4.82-0.12,7.23c-0.02,6.49,1.62,12.79,2.32,19.2
		c0.81,7.47,1.81,14.95,3.28,22.36c1.12,5.67,1.61,11.47,2.34,17.21c1.1,8.71,1.88,17.45,2.07,26.24c0.04,1.74,0.13,3.77,1.44,5.22
		c0.64,0.71,0.15,1.2,0.01,1.75c-0.66,2.52-2.43,4.42-3.8,6.53"/>
	<path class="st0" d="M500.2,384.02c-1.31,1.92-3.09,2.39-5.34,1.98c-2.26-0.41-4.67-0.33-6.86-0.23c-1.97,0.09-4.12,0.71-6.23,0.87
		c-7.53,0.58-15.06,1.17-22.58,1.83c-4.52,0.4-9.02,1.03-13.54,1.41c-6.85,0.56-13.66,1.57-20.45,2.51
		c-4.41,0.61-8.86,1.46-13.28,2.24c-6.98,1.23-13.58,4.01-20.65,4.82c-0.13,0.01-0.23,0.2-0.35,0.3"/>
	<path class="st0" d="M124.05,313.94c0.48,0.66,0.9,1.38,1.45,1.98c1.54,1.69,2.83,3.36,1.7,5.88c-0.32,0.71-0.01,1.71,0.03,2.57
		c0.35,7.71,2.03,15.23,3.4,22.79c1.17,6.51,1.9,13.09,3.13,19.6c1.21,6.36,2.06,12.78,3.09,19.18c1.04,6.53,2.09,13.06,3.16,19.59
		c0.72,4.36-2.45,7.93-5.44,8.51"/>
	<path class="st0" d="M303.17,195.59c0.71,4.74,2.08,9.28,3.84,13.74c0.84,2.13,1.11,4.48,1.75,6.69c2.88,10.01,5.78,20.01,8.72,30
		c2.65,8.98,5.34,17.96,8.08,26.91c0.67,2.21,1.61,4.31,1.92,6.66c0.26,1.96,1.68,3.42,3.05,4.79"/>
	<path class="st0" d="M172.27,486.28c1.81-0.11,2.53,1.14,2.88,2.56c0.76,3.09,1.05,6.26,1.51,9.4c0.38,2.56,0.65,5.17,1.2,7.71
		c0.83,3.88,0.96,7.85,1.6,11.75c0.82,4.99,1.79,9.95,2.68,14.93c0.69,3.83,1.22,7.67,1.63,11.54c0.33,3.11,1.23,6.18,1.69,9.31
		c0.61,4.21,1.16,8.43,1.37,12.68c0.1,2.05-0.34,4.13-0.12,6.15c0.21,2,1.41,3.92,0.34,6c-0.05,0.09,0.08,0.26,0.1,0.4
		c0.63,3.45,0.38,3.93-2.98,5.64"/>
	<path class="st0" d="M131.76,306.53c-0.75,0.43-1.63,0.73-2.23,1.31c-2.56,2.52-5.11,5.05-7.11,8.07
		c-0.17,0.26-0.53,0.35-0.42,0.79c0.91,3.78-0.9,7.56,0.29,11.47c0.85,2.8,0.1,5.97,0.7,8.95c0.68,3.44,1.27,6.91,1.86,10.37
		c0.84,4.92,1.45,9.89,2.51,14.77c0.92,4.2,1.66,8.45,2.1,12.67c0.61,5.99,2.27,11.76,2.99,17.72c0.4,3.26,0.72,6.58,1.46,9.81"/>
	<path class="st0" d="M113.64,337.16c-1.13,2.95,0.21,5.72,0.7,8.52c0.8,4.51,1.57,9.02,2.11,13.57c0.32,2.64,1.09,5.22,1.51,7.84
		c0.92,5.69,2.38,11.26,3.15,16.99c0.77,5.7,2.13,11.32,2.97,17.01c0.54,3.69,1.26,7.35,1.87,11.03c0.4,2.42,2.26,4.44,1.69,7.19
		c-0.21,1.04,1.2,1.84,1.98,2.66"/>
	<path class="st0" d="M208.68,228.92c-1.01,1.32-2.4,1.72-3.99,2.07c-2.86,0.63-5.25,2.46-7.87,3.71c-1.41,0.67-2.95,1.4-4.38,1.33
		c-2.15-0.1-3.3,1-4.34,2.44c-1.25,1.72-2.77,2.8-4.97,2.45c-0.58-0.09-1.05,0.06-1.46,0.25c-4.16,1.95-8.69,2.68-13,4.11
		c-9.56,3.15-19.2,6.06-28.79,9.12c-5.99,1.92-11.97,3.89-18,5.68c-6.9,2.04-13.81,4.09-20.64,6.35c-1.72,0.57-3.47,1.15-5.13,1.88
		c-1.15,0.51-1.9,1.52-2.27,2.95c-1.57,6,0.34,11.81,0.71,17.7"/>
	<path class="st0" d="M188.83,455.54c2.2,0.35,2.57,2.37,3.22,3.89c1.63,3.8,2.94,7.73,4.46,11.58c0.58,1.48,0.52,3.05,0.8,4.57
		c1.46,7.88,2.93,15.75,4.23,23.66c0.61,3.72,1.42,7.43,2.16,11.14c0.85,4.27,1.46,8.6,2.17,12.9c0.77,4.72,1.52,9.45,2.28,14.17"/>
	<path class="st0" d="M153.49,342.43c-1.71,2-0.54,4.13-0.18,6.16c0.78,4.44,1.32,8.93,2.12,13.35c0.75,4.15,1.33,8.33,2.16,12.46
		c0.96,4.85,1.45,9.76,2.12,14.65c0.57,4.19,0.86,8.39,1.97,12.52c0.59,2.18,0.13,4.58,0.24,6.89c0.27,5.62,1.28,11.14,1.8,16.73
		c0.54,5.76,1.16,11.55,2.32,17.21c0.86,4.19,1.24,8.46,2.29,12.63c0.82,3.27,0.91,6.73,1.33,10.1c0.4,3.19,1.02,6.38,1.5,9.58
		c0.57,3.77,1,7.56,1.49,11.35"/>
	<path class="st0" d="M105.35,364.03c-1.54,0.88-1.22,2.42-1.09,3.69c0.67,6.4,1.42,12.8,2.26,19.19
		c0.68,5.17,1.56,10.31,2.28,15.48c0.41,2.95,0.47,5.95,1.04,8.86c1.51,7.71,1.6,15.6,3.06,23.32c0.31,1.67,0.43,3.42,0.35,5.12
		c-0.09,2.02,0.48,3.63,2.08,4.87"/>
	<path class="st0" d="M363.68,293.72c2.75-0.05,5.49-0.21,8.24-0.14c9.96,0.25,19.93,0.51,29.89,0.91
		c4.19,0.17,8.41-0.26,12.59,0.51c2.15,0.39,3.64-1.51,3.08-3.68c-0.18-0.68-0.38-1.35-0.57-2.02c-1.07-3.77-1.99-4.62-5.71-3.99
		c-4.83,0.82-9.71,1.03-14.56,1.61c-4.4,0.53-8.87,0.47-13.3,0.8c-6.61,0.5-13.26,0.55-19.85,1.44c-1.84,0.25-3.72,0.24-5.58,0.29
		c-4.47,0.13-8.95,0.36-13.42,0.27c-2.54-0.05-4.61,0.39-6.02,2.64"/>
	<path class="st0" d="M417.08,259.18c-3.23,0-6.15,1.39-9.22,2.06c-6.65,1.44-13.18,3.29-19.62,5.36
		c-6.19,1.98-12.48,3.76-18.45,6.43c-0.13,0.06-0.27,0.08-0.4,0.12c-2.88,0.87-5.73,1.88-8.59,2.77c-6.45,2.01-12.8,4.21-18.9,7.15
		c-2.38,1.15-5.01,1.76-7.53,2.62"/>
	<path class="st0" d="M226.9,425.35c3.02,1.66,4.11,4.92,5.72,7.57c3.01,4.95,6.11,9.86,9.14,14.8c4.69,7.63,9.53,15.17,14.27,22.77
		c2.97,4.77,6.27,9.32,9.09,14.19c0.96,1.66,1.52,3.34,1.65,5.21"/>
	<path class="st0" d="M333.94,292.56c-1.19,3.03,0.5,5.63,1.31,8.35c0.08,0.27,0.5,0.49,0.81,0.63c2.27,1.1,3.5,3.29,4.43,5.31
		c1.64,3.57,3.91,6.72,5.86,10.08c3.07,5.28,6.45,10.37,9.59,15.6c4.27,7.12,8.33,14.38,12.69,21.44c2.1,3.4,3.44,7.26,6.26,10.27
		c0.63,0.67,0.14,2.19,0.56,3.28c0.43,1.11-0.19,1.9-0.95,2.68c-1.67,1.72-1.91,4.15-2.76,6.25c-2.93,7.23-6.36,14.2-9.98,21.1
		c-1.42,2.71-2.8,5.45-4.23,8.17c-0.58,1.1-1.08,2.14-0.8,3.5c0.18,0.87-0.29,1.78-0.73,2.61c-1.25,2.41-2.53,4.79-2.91,7.56
		c-0.16,1.17-0.95,2.16-1.68,3.12c-2.25,2.97-4.11,6.23-6.85,8.84c-0.4,0.38-0.51,1.16-0.59,1.77c-0.4,2.82-2.22,4.63-4.34,6.25
		c-1.62,1.24-3.15,2.49-5.22,3.12c-1.24,0.38-2.17,1.89-3.03,2.98c-3.47,4.41-7.63,8.17-11.43,12.26c-2.33,2.5-5.29,4.39-7.86,6.68
		c-6.29,5.58-12.51,11.23-18.76,16.86c-3.76,3.39-7.29,7.1-11.38,10.04c-2.08,1.49-3.94,3.09-5.78,4.82
		c-1.42,1.34-1.91,1.19-3.45-0.74c-1.41-1.76-2.86-3.48-4.49-5.04"/>
	<path class="st0" d="M166.69,93.93c0.32,1.55-0.35,2.9-1,4.19c-3.93,7.82-8.01,15.57-11.84,23.44
		c-6.29,12.92-12.69,25.78-18.38,38.98c-2.17,5.02-4.27,10.07-6.39,15.11c-0.45,1.08-0.28,2.17,0.05,3.25"/>
	<path class="st0" d="M113.86,327.95c-0.92,3.14-0.55,4.06,1.96,6.22c1.77,1.52,2.02,3.84,2.03,5.92c0.01,1.49,0.16,2.8,0.59,4.22
		c0.88,2.88,1.22,5.9,1.81,8.85c0.87,4.4,1.77,8.81,2.58,13.23c0.85,4.62,1.9,9.2,2.79,13.81c0.81,4.21,1.55,8.43,2.28,12.65
		c0.53,3.04,1.08,6.07,1.91,9.05c0.87,3.1,2.6,5.94,2.65,9.28c0,0.27,0.07,0.59,0.23,0.8c0.8,1.04,2.26,1.86,1.59,3.46
		c-0.88,2.11-1.48,4.42-3.55,5.83c-0.78,0.53-1.48,1.21-1.54,2.18c-0.13,2.03-1.38,3.38-2.54,4.88c-3.16,4.08-5.83,8.49-8.31,13.01
		c-0.29,0.52-0.45,1.25-0.89,1.52c-2.28,1.38-2.8,3.67-3.3,5.99"/>
	<path class="st0" d="M377.42,201.55c-1.86,4.9-4.91,9.14-7.47,13.66c-3.02,5.33-6.16,10.6-9.2,15.92
		c-3.75,6.56-7.44,13.17-11.19,19.73c-5.09,8.88-10.24,17.71-14.85,26.86c-1.06,2.11-2.04,4.3-3.67,6.1c-1,1.1-0.8,2.63-1.06,3.98"
		/>
	<path class="st0" d="M184.55,241.43c-0.08,1.7-0.15,3.4-0.24,5.2c2.22,1.55,3.63,3.83,4.39,6.48c0.49,1.73,2.15,2.51,2.88,3.98
		c1.01,2.02,1.87,4.13,2.87,6.15c0.53,1.07,1.05,2.19,2.1,2.9c0.54,0.36,0.73,1.1,0.62,1.54c-0.61,2.39,0.84,3.77,2.52,4.7
		c1.58,0.87,2.02,2.13,2.01,3.61c-0.01,1.27-0.04,2.46-1.57,3.4c-2.33,1.42-3.48,4.12-5.22,6.2c-9.43,11.27-18.99,22.43-28.93,33.25
		c-3.21,3.5-6.37,7.05-9.34,10.75c-1.19,1.48-2.83,2.34-4.02,3.84c-2.28,2.91-1.9,2.77-0.41,5.88c1.7,3.53,4.59,5.51,7.42,7.61
		c1.83,1.36,2.22,3.13,2.61,4.99c0.68,3.23,1.34,6.49,1.66,9.77c0.31,3.25,0.63,6.48,1.28,9.67c0.08,0.41-0.04,0.85,0.33,1.22
		c1.72,1.76,1.97,3.99,2.33,6.32c0.43,2.83,0.92,5.6,0.87,8.48c-0.02,1.34,0.19,2.92,1.47,3.92"/>
	<path class="st0" d="M314.08,436.15c-1.61,0.09-2.81,0.9-3.75,2.15c-4.9,6.55-9.79,13.1-14.7,19.64
		c-4.32,5.74-8.66,11.47-12.99,17.2c-0.06,0.08-0.08,0.21-0.15,0.25c-3.84,2.32-4.6,7.11-7.89,9.86c-1.73,1.45-3.37,3.32-5.39,4.04
		c-4.97,1.76-7.48,6.09-10.75,9.56c-6.32,6.71-12.58,13.47-18.93,20.15c-6.22,6.55-12.11,13.42-18.37,19.94
		c-2.89,3.01-5.32,6.42-8.36,9.32c-1.71,1.63-2.56,4.23-4.24,6.07c-2.71,2.97-4.95,6.35-8.14,8.88c-1.79,1.42-2.72,3.81-5.29,4.42
		c-0.58,0.14-0.87,1.47-1.33,2.23c-1.42,2.39-3.76,3.76-5.88,5.38"/>
	<path class="st0" d="M433.59,326.63c-8.49-2.28-16.55-5.79-24.75-8.9c-9.95-3.77-19.85-7.64-29.82-11.35
		c-5.83-2.17-11.74-4.14-17.64-6.1c-1.31-0.44-2.75-0.82-4.16-0.16"/>
	<path class="st0" d="M417.9,293.6c3.93,3.84,6.78,8.54,10.17,12.81c3.86,4.86,7.86,9.62,11.5,14.63c2.64,3.63,6.22,6.26,9.13,9.58
		c3.73,4.25,7.21,8.73,11.2,12.76c0.46,0.46,1.1,1.1,1.08,1.63c-0.18,3.61,2.99,4.59,4.97,6.43c1.49,1.38,3.19,2.56,4.94,3.6
		c1.19,0.71,1.87,1.77,2.24,2.89c0.47,1.45,1.38,2.34,2.5,3.22c3.78,2.98,7.36,6.19,10.79,9.58c0.74,0.74,1.44,1.53,1.81,2.53"/>
	<path class="st0" d="M120.22,122.15c1.48,2.51,0.81,5.21,0.71,7.86c-0.32,8.37-0.61,16.74-0.95,25.11
		c-0.27,6.62-0.58,13.25-0.9,19.87c-0.16,3.39-0.54,6.75-1.02,10.11c-0.22,1.54-0.68,2.81-2.06,3.62"/>
	<path class="st0" d="M382.08,202.63c-0.26,1.57,0.2,2.89,0.94,4.32c1.48,2.87,2.64,5.92,3.9,8.91c2.62,6.23,5.2,12.47,7.82,18.7
		c1.83,4.35,3.65,8.71,5.56,13.03c1.65,3.75,3.36,7.49,5.16,11.17c0.38,0.78,0.53,1.6,0.85,2.38"/>
	<path class="st0" d="M238.96,310.34c-1.84,0.31-2.65,1.82-3.43,3.18c-4.43,7.63-9.2,15.04-14.2,22.29
		c-8.26,11.97-16.72,23.8-24.65,35.99c-0.62,0.96-1.4,1.82-2.03,2.77c-0.63,0.96-1,2.01-0.42,3.16"/>
	<path class="st0" d="M91.77,149.39c-2.77,0.19-3.91,2.59-5.53,4.23c-1.94,1.97-2.15,4.42-1.56,7.15c0.48,2.21,0.57,4.57,0.43,6.84
		c-0.18,3.02-0.05,6.06-0.22,9.09c-0.18,3.2-0.65,6.54,0.31,9.87c0.68,2.36,0.89,4.91-0.53,7.43c-0.77,1.38-0.6,3.38-0.57,5.09
		c0.06,3.7,0.19,7.39,0.83,11.08c0.47,2.68,0.1,5.51,0.04,8.28c-0.09,4.18-0.21,8.35-0.37,12.53c-0.21,5.65,0,11.3,0.31,16.93
		c0.17,3.09,0.18,6.04-0.48,9.09c-0.54,2.47-0.03,4.98,1.5,7.17c0.27,0.38,0.29,0.93,0.42,1.4"/>
	<path class="st0" d="M387.29,203.33c-0.51,2.91,1.57,4.94,2.52,7.35c1.96,4.91,4.63,9.51,6.34,14.55c0.77,2.26,1.92,4.4,2.92,6.58
		c2.45,5.34,4.85,10.7,7.39,15.99c1.39,2.9,2.94,5.74,4.62,8.49c0.61,1,0.83,2.13,1.47,3.09"/>
	<path class="st0" d="M201.4,278.93c1.68,1.87,1.91,3.95,1.04,6.26c-0.19,0.52-0.58,1.09-0.19,1.78c1.28,2.28-0.05,4.24-1.17,5.95
		c-5.54,8.49-12.16,16.14-18.66,23.9c-5.62,6.72-10.94,13.7-16.44,20.52c-2.07,2.57-4.77,4.65-6.05,7.83"/>
	<path class="st0" d="M298.87,196.58c-1.31-0.53-2.57-0.37-3.92-0.01c-6.71,1.76-13.53,3.08-20.37,4.24
		c-1.26,0.21-2.48,0.51-3.68,0.88c-7.12,2.23-14.5,3.2-21.78,4.68c-2.59,0.53-5.08,1.54-7.62,2.33"/>
	<path class="st0" d="M193.7,378.97c-1.56,2.39-2.06,5.04-2.41,7.85c-0.45,3.65-1.43,7.23-2.08,10.86
		c-1.84,10.36-3.59,20.73-4.3,31.26c-0.22,3.19-0.8,6.37-0.69,9.6c0.05,1.28-0.58,2.25-1.53,3.05"/>
	<path class="st0" d="M389.68,400.77c-0.65,1.29-2.11,1.3-3.14,1.98c-4.33,2.87-8.58,5.85-12.69,9.04
		c-3.74,2.91-7.61,5.65-11.25,8.68c-4.87,4.07-9.68,8.22-14.26,12.6c-1.37,1.31-2.82,1.77-4.42,2.25"/>
	<path class="st0" d="M95.88,272.24c2.06,0.08,3.73,0.77,4.51,2.86c0.1,0.26,0.23,0.54,0.22,0.81c-0.4,7.61,1.22,15.03,2.01,22.53
		c0.7,6.68,1.52,13.35,2.72,19.95c0.56,3.08,0.52,6.2,1.21,9.24c0.05,0.21,0.03,0.45-0.03,0.66c-1,3.35-0.55,6.67,0.25,9.96
		c0.31,1.29-0.3,2.46-0.09,3.73c0.53,3.35,1.04,6.71,1.33,10.08c0.45,5.22,1.85,10.21,3.25,15.21c0.4,1.43,0.5,2.85-0.58,4.09"/>
	<path class="st0" d="M414.09,209.46c-0.33,2.6,0.56,5.07,0.88,7.6c0.75,5.91,1.58,11.79,2.02,17.74c0.25,3.4,0.49,6.81,0.84,10.2
		c0.44,4.22,0.44,8.48-0.22,12.65c-0.18,1.14,0.07,2.1,0.19,3.06c0.37,3.11,0.42,6.19,0.2,9.31c-0.12,1.72,0.11,3.45,0.12,5.18
		c0,0.68,0.16,1.45-0.29,2.04c-1.19,1.55-0.97,3.25-0.79,5.02c0.13,1.29-0.5,2.47-1.38,3.45"/>
	<path class="st0" d="M106.18,279.34c-1.17,1.69-0.91,3.59-0.62,5.41c0.9,5.7,1.83,11.39,2.89,17.05c0.38,2.06,0.92,4.1,1.3,6.17
		c0.94,5.1,1.96,10.19,3.02,15.27c0.29,1.4,0.7,2.59,2.38,3.34c1.82,0.81,2.22,4.99,1.18,7.75"/>
	<path class="st0" d="M105.44,364.33c1.46,0.58,2.37,1.56,2.66,3.17c0.26,1.4,0.9,2.54,2.01,3.62c1.13,1.1,0.87,2.94,0.88,4.48
		c0.01,0.98,0.03,1.68,0.89,2.4c1.32,1.1,1.57,2.84,1.94,4.43c0.38,1.68,0.85,3.39-0.77,4.83c-0.62,0.55-0.19,1.44-0.05,2.16
		c1.07,5.36,2.26,10.7,3.21,16.09c0.65,3.68,0.96,7.43,1.46,11.14c0.48,3.57,1.02,7.12,1.49,10.69c0.11,0.85,0.19,1.75,0.07,2.59
		c-0.33,2.26,0.69,3.71,2.56,4.73"/>
	<path class="st0" d="M302.02,194.6c-1.75,0.74-2.81,1.91-3.57,3.79c-1.67,4.15-4.53,7.65-6.95,11.39
		c-4.58,7.07-9.19,14.12-13.83,21.14c-3.99,6.04-8.06,12.03-12.09,18.04"/>
	<path class="st0" d="M328.36,288.26c-1.31,1.62-3.2,2.09-5.07,2.05c-7.71-0.18-15.42-0.38-23.12-0.86
		c-5.34-0.33-10.65-1.21-15.98-1.72c-10.81-1.05-21.63-2.03-32.45-3.01c-1.35-0.12-2.67,0.01-3.96,0.64
		c-1.38,0.67-2.26,0.12-2.37-1.47"/>
	<path class="st0" d="M340.04,294.1c1.58-0.19,3.06,0.03,4.56,0.64c3.64,1.48,7.34,2.8,10.88,4.55c0.67,0.33,1.51,0.51,1.62,1.3
		c0.23,1.62,1.44,2.36,2.63,2.94c9.55,4.6,19.05,9.3,28.73,13.61c4.94,2.2,9.75,4.9,14.92,6.35c3.01,0.84,5.84,1.89,8.64,3.17
		c2.75,1.26,5.48,2.41,7.93,4.41c2.11,1.72,5.04,2.45,7.52,3.81c1.33,0.73,2.69,1.17,3.44,2.75c0.5,1.06,1.83,1.5,2.91,2.01
		c9.93,4.72,19.36,10.33,28.75,16.03c2.28,1.38,4.72,2.51,7.13,3.65c1.17,0.55,2.46,0.64,3.7,0.06"/>
	<path class="st0" d="M93.17,153.57c2.29,1.08,3.07,3.37,4.12,5.38c4.63,8.84,10.18,17.14,15.22,25.74
		c0.79,1.34,1.45,2.95,2.98,3.73c0.83,0.43,0.77,1.26,0.94,1.92c0.42,1.74,1.25,3.22,2.41,4.55"/>
	<path class="st0" d="M182.32,309.62c-7.04,8.27-15.07,15.55-22.84,23.09c-2.26,2.2-4.34,4.61-6.59,6.83"/>
	<path class="st0" d="M379.33,377.33c-2.6,2.67-3.88,6.14-5.33,9.41c-2.55,5.77-5.76,11.17-8.64,16.75
		c-2.45,4.74-5.15,9.35-7.79,13.99c-0.42,0.73-1.06,1.33-1.6,1.99"/>
	<path class="st0" d="M348.53,131.94c2.69,6.43,5.41,12.85,8.08,19.29c1.58,3.81,3.41,7.49,5.32,11.14
		c0.35,0.66,0.59,1.45,0.45,2.26"/>
	<path class="st0" d="M171.81,428.55c2.83,0.69,3.5,3.44,4.96,5.37c1.98,2.63,3.49,5.55,5.87,7.99c1.66,1.71,2.23,4.51,3.17,6.87
		c0.49,1.24,1.01,2.48,1.47,3.73c0.56,1.51,1.5,3.04,0.76,4.8c-0.25,0.59,0.16,1.11,0.25,1.67c0.93,5.47,3.19,10.58,4.33,15.99
		c0.04,0.2,0.24,0.37,0.36,0.55"/>
	<path class="st0" d="M93.95,290c-1.2,2.17-0.94,5.19,0.69,6.99c0.87,0.96,1.15,2.03,1.45,3.3c1.41,5.92,1.2,12.07,2.8,17.94
		c0.18,0.68,0.37,1.5,0.15,2.11c-1.32,3.61,0.2,6.87,1.25,10.13c0.41,1.28-0.17,2.32,0.01,3.48c0.59,3.91,1.06,7.84,1.62,11.75
		c0.75,5.23,0.99,10.54,2.19,15.72c0.21,0.91,0.83,1.66,0.82,2.6"/>
	<path class="st0" d="M356.23,408.07c-1.04,0.23-1.82,0.77-2.35,1.75c-4.21,7.81-9.04,15.24-14.09,22.52
		c-1.53,2.21-3.36,4.19-4.7,6.55c-0.6,1.06-0.9,2.07-0.59,3.24"/>
	<path class="st0" d="M192.35,274.31c-0.88-5.01-2.81-9.61-5.48-13.92c-0.6-0.97-1.15-1.94-1.56-3.04c-1.21-3.3-1.59-3.67-5.53-7.37
		c-3.14,2.15-5.89,4.82-9.17,6.8c-0.93,0.56-1.83,1.17-2.82,1.62c-0.69,0.32-1.49,0.58-1.78,1.38c-0.59,1.61-2.14,1.95-3.38,2.85
		c-1.45-1.7-3.12-2.15-5.26-1.78c-2.09,0.36-4.28,0-6.38,0.56"/>
	<path class="st0" d="M121.04,114.29c-1.46-0.09-2.51,0.65-3.46,1.63c-5.5,5.72-10.68,11.72-15.62,17.93
		c-0.91,1.14-1.3,2.33-0.89,3.75"/>
	<path class="st0" d="M100.92,275.39c1.61,0.22,2.8,1.1,4.15,2.01c3.1,2.1,4.17,5.15,5.15,8.43c1.73,5.77,3.12,11.61,4.51,17.47
		c0.13,0.54,0.43,1.04,0.65,1.56"/>
	<path class="st0" d="M430.44,336.25c1.4-0.48,2.63-0.32,4.06,0.33c5.73,2.63,11.55,5.09,17.36,7.53c1.8,0.75,3.44,1.75,5.1,2.73
		c1.32,0.77,2.64,1.23,4.15,0.77"/>
	<path class="st0" d="M395.04,156.89c-2.16,2.19-3,5.02-3.89,7.85c-0.3,0.95,0.44,1.5,0.84,1.92c2.21,2.35,2.24,3.51-0.18,6.42
		c-0.56,0.67-1.14,1.5-1.28,2.32c-1,6.04-4.68,10.85-7.2,16.2c-0.49,1.05-0.94,2.08-1.79,2.92c-0.76,0.75-1.53,1.4-2.61,1.59"/>
	<path class="st0" d="M125.18,281.8c0.99,1.66,1.72,3.38,1.8,5.39c0.04,0.93,0.44,1.98,0.99,2.75c1.8,2.51,1.36,5.72,2.88,8.38
		c1.16,2.04,1.19,4.62,1.23,7.03c0.01,0.53,1.81,4.51,2.25,4.8c0.05,0.04,0.24-0.13,0.37-0.2"/>
	<path class="st0" d="M237.1,213.88c-3.18-0.11-5.33,2.22-8,3.32c-3.75,1.55-7.09,3.9-10.89,5.35c-1.4,0.54-2.61,1.56-3.91,2.37"/>
	<path class="st0" d="M375.72,369.2c2.53,1.65,2.68,4.59,3.64,7.04c0.3,0.78,0.52,1.57,1.14,2.05c1.33,1.03,1.46,2.68,2.12,4.01
		c1.77,3.59,3.12,7.39,4.77,11.05c0.94,2.08,1.03,4.62,3.2,6.1c0.39,0.26-0.39,0.42-0.41,0.75"/>
	<path class="st0" d="M263.75,251.01c-4.26,6.79-8.53,13.56-12.53,20.51c-1.13,1.96-1.78,4.09-2.81,6.07"/>
	<path class="st0" d="M378.86,200.49c3,1.94,6.39,2.29,9.84,2.48c1.04,0.05,2.11,0.43,3.07,0.85c4.68,2.06,9.79,2.49,14.61,3.97
		c2.53,0.78,5.28,0.06,7.67,1.43c0.3,0.17,0.92-0.23,1.39-0.36"/>
	<path class="st0" d="M162.13,263.04c-1.13,2.16-3.42,2.6-5.35,3.43c-3.67,1.58-7.37,3.21-11.22,4.22
		c-3.21,0.85-6.18,2.29-9.35,3.16c-1.89,0.52-3.96,0.32-5.65,1.62c-0.59,0.45-1.38,0.08-1.96-0.12c-1.45-0.48-2.8-0.39-4.06,0.35
		c-0.76,0.45-1.46,0.48-2.29,0.43c-1.49-0.09-2.97-0.11-4.37,0.73c-0.73,0.44-1.64,0.3-2.58,0.18c-2.8-0.37-5.67-0.57-8.03,1.56"/>
	<path class="st0" d="M407.14,261.78c1.98,4.25,3.7,8.63,6.22,12.61c0.52,0.83,0.46,1.8,0.94,2.57c0.49,0.77,1,1.61,2.02,1.83"/>
	<path class="st0" d="M392.6,200.52c2.55-0.64,4.95,0.53,7.38,0.87c3.53,0.49,7.04,0.88,10.59,0.98c1.37,0.04,1.67,0.88,1.83,1.9
		c0.21,1.33,0.33,2.67,0.49,4"/>
	<path class="st0" d="M237.58,220.94c0.98,1.09,1.36,2.27,1.25,3.81c-0.13,1.83,0.13,3.71,0.34,5.55c0.23,2.05,0.22,4.06-0.49,6.02"
		/>
	<path class="st0" d="M187.2,240.02c1.79,1.45,3.23,2.96,3.63,5.52c0.4,2.59,2.2,4.91,1.87,7.74"/>
	<path class="st0" d="M231.29,237.98c0.15,4.9,0.3,9.79,0.47,14.69c0.01,0.41,0.22,0.81,0.33,1.21"/>
	<path class="st0" d="M163.37,381.9c-0.5,1.26,0.37,2.37,0.41,3.6c0.09,3.07,0.39,6.13,0.6,9.19"/>
	<path class="st0" d="M215.53,259.99c-2.7,2.09-5.43,3.96-8.78,5.14c-3.1,1.09-6.35,0.53-9.35,1.64"/>
	<path class="st0" d="M240.88,209.54c-3.68,1.33-3.89,1.95-3.24,5.71c0.41,2.35,0.05,4.44-1.61,6.73
		c-2.38,3.29-4.26,7.16-4.27,11.51"/>
	<path class="st0" d="M238.37,254.5c-4.6,1.47-8.96,3.61-13.67,4.8c-1.37,0.35-2.39,1.49-2.87,2.94"/>
	<path class="st0" d="M110.65,378.11c-0.63,3.38-0.08,6.49,2.17,9.19"/>
	<path class="st0" d="M134.17,310.42c-1.19,3.52-3.19,6.43-6.29,8.54"/>
	<path class="st0" d="M85.96,192.67c1.46,1.91,2.69,3.86,1.86,6.47c-0.18,0.57,0.04,1.28,0.08,1.92"/>
	<path class="st0" d="M94.01,289.44c1-0.85,1.54,0.05,1.9,0.67c1.33,2.3,2.24,4.69,0.56,7.24"/>
	<path class="st0" d="M164.46,372.66c-1.06,1.31-1.6,2.65-1.21,4.48c0.25,1.21,0.67,2.53,0.31,3.84"/>
	<path class="st0" d="M92.45,247.06c-0.98,0.24-1.82,0.79-2.37,1.57c-1.11,1.59-2.67,2.35-4.47,2.77"/>
	<path class="st0" d="M114.84,281.46c0.35,1.92,1.98,3.26,3.33,3.7c1.93,0.62,2.64,1.9,3.42,3.33c0.31,0.57,0.48,1.21,0.95,1.68"/>
	<path class="st0" d="M90.46,233.89c0.39,2.35,0.03,4.69-0.19,7.03"/>
	<path class="st0" d="M224.53,268.67c1.48,1.9,2.97,3.81,4.45,5.71"/>
	<path class="st0" d="M129.8,276.57c-0.68,1.91-1.74,3.59-3.48,4.66c-1.22,0.75-2.02,0.27-2.04-1.13c-0.02-1.3-0.54-2.46-0.84-3.69"
		/>
	<path class="st0" d="M126.24,297.85c-1.15,1.88-2.97,3.04-4.64,4.37"/>
	<path class="st0" d="M125.66,109.05c1.98,1.37,3.7-0.17,5.53-0.48"/>
	<path class="st0" d="M100.84,331.2c1.57-0.08,3.15-0.17,4.72-0.25"/>
	<path class="st0" d="M90.6,222.09c0.4,1.43,0,2.88,0.14,4.32"/>
	<path class="st0" d="M220.39,263.3c1.09,0.16,1.58,0.91,1.84,1.88c0.2,0.77,0.41,1.54,1.04,2.1"/>
	<path class="st0" d="M89.16,266.95c0.81,1.38,2.23,2.04,3.45,2.94"/>
	<path class="st0" d="M201.74,286.68c-0.86,0.17-1.64,0.51-2.31,1.09"/>
	<path class="st0" d="M124.14,281.22c-0.8,0.01-1.59,0.02-2.39,0.02"/>
</g>
</svg>
