<svg xmlns="http://www.w3.org/2000/svg" width="32" height="32" fill-rule="evenodd" xmlns:v="https://vecta.io/nano"><path d="M31.954 16.236c-.048-.102-.117-.39-.238-.702l-.172-.425-.092-.871c.051-.256.128-.509.19-.734-.048.067-.08.186-.128.109-.055-.351.128-.625.263-.456-.194-.351.154-1.373-.212-1.833l-.267-.312c-.188-.225-.391-.438-.607-.639l-.637-.572-.311-.232c.06.06.112.127.154.2-.124.186-.121.27-.253.2l-.201-.274.132.232-.095-.067a.59.59 0 0 0 .117.102c.074.124.158.241.252.351-.106-.032-.209 0-.231.168l-.073-.154-.413-.807c-.274-.453-.388-.678.124-.056l-.278-.351-.11-.137.238.137.143.091c-.095-.316-.3-.147-.476-.488.016.033.042.061.075.08s.07.029.108.028l-.095-.193-.128-.249c.249.298.417.516.498.53l-.256-.351a5.42 5.42 0 0 0-.494-.6l-.205-.334c-.009.031-.009.064 0 .095l-.567-.597-.329-.295c-.406-.463.732.509.172-.176l-.812-.702c-.055-.039-.11-.088-.165-.13l.538-.179.871-.246a.22.22 0 0 1 .121-.028c-.622-.6-.732.126-.926.021s-.344-.126-.388-.305h.124c-.446-.267-.278.067-.607-.242-.366-.126.223.228-.04.179-.337-.351-.487.13-.959-.435.07-.035.084-.249.457-.025l-.256-.369c.228.089.442.207.637.351.329-.018.366-.158.677-.151-.198-.091-.278.067-.505-.13-.263-.253.117-.056.187-.081-.549-.091-.307-.495-.809-.555-.08.253-.143.2 0 .506-.289-.112-.52-.449-.366-.618l-.165.133c-.037-.077-.241-.204-.227-.256l-.143.032a.86.86 0 0 0 .227.334c.102.093.225.161.359.2-.205.028-.022.383-.457.172-.176-.109.044-.109.066-.165-.201-.08-.39-.186-.56-.316-.119-.082-.227-.178-.322-.284l-.165-.169.124-.035a1.41 1.41 0 0 0 .388.119c-.143-.267-.52-.197-.732-.323.238 0 .307-.032.106-.221l-.154.067c-.143-.063-.41-.158-.406-.218-.026.039.026.095.143.183-.614-.052-1.215-.201-1.778-.442.124-.253.999.151.574-.193-.293-.053-.596.169-1.043-.088.241-.091-.187-.2-.165-.288l-.366.091-.366.098c-.333-.098-.684-.122-1.028-.07.134-.026.272-.026.406 0-.106.053-.223.083-.342.088a.85.85 0 0 1-.349-.059 1.73 1.73 0 0 0-.783-.046l.274-.109c-.397-.039-.797.028-1.156.193v-.186c0 .077-.084.144-.187.207l-.439-.035c.006-.013.009-.026.009-.04s-.003-.028-.009-.04a1.52 1.52 0 0 0-.366.063h-.366-.523a3.24 3.24 0 0 0-.732.091l.512-.035h.406l-.099.028-.951.186c-.285.056-.567.144-.776.2l-.154.042a2.17 2.17 0 0 0-.124-.807c-.04-.07-.483-.039-.446.19.227.098-.227.249.146.232.012.036.014.075.007.113a.23.23 0 0 1-.048.103c-.024.03-.056.054-.092.07s-.076.023-.116.02c0-.126.143-.116 0-.221-.077.165-.139.091-.066.246l-.574.119-.889.242c-.029-.116-.055-.235-.285-.112-.026-.263.256-.386.45-.369.267.169-.11.218-.07.449.179-.095.132-.126.172-.277.322-.042.56-.484.838-.2.216-.105.172-.211.274-.351 0-.109-.088-.133-.176-.14l.637-.165a6.39 6.39 0 0 1 1.061-.098l-.183.123c.128-.028 1.046-.19.856-.291l-.823.098-.6.105-1.156.218h-.044l.117-.046c.022.025.048 0 .077-.028l.71-.214c.416-.098.839-.166 1.266-.204l.07-.193c1.013-.277 2.056 0 3.077-.091l-.593-.105c-.15-.032-.3-.049-.41-.063l-.19-.021h.209c-.274 0-.531 0-.732.018a2.24 2.24 0 0 0-.413.063l-2.089.123c-.33.008-.66-.005-.988-.039-.863.112.256-.288.132-.379a5.18 5.18 0 0 0-1.302.449l-.494.242-.757.319c-.318.144-.253.032-.106-.049l-.366.193a3.26 3.26 0 0 0-.311.172l-.143.081a6.62 6.62 0 0 0-.999.4c-.395.179-.637.263-.04-.144a9.14 9.14 0 0 1 .827-.404 15.29 15.29 0 0 0-3.07 1.618C4.931 4.04 4.291 4.612 4.247 4.5c-.263.229-.497.487-.695.769-.157.232-.421.492-.922 1.204-.097.161-.129.351-.091.534-.059.301-.164.592-.311.864-.053.072-.093.153-.117.239l-.055.109.066-.102.241.197h.026-.022c-.03-.022-.058-.045-.084-.07-.012.024-.016.05-.013.076s.014.051.031.071c-.031.031-.059.064-.084.098l-.201.52c-.106.291-.04.207.029.123l.022-.028.069.028c0 .028 0 .067-.022.112s-.018 0-.026 0h.026c0 .028-.018.063-.026.098l-.099.351c-.03-.008-.062-.008-.091 0l.073.053-.022.06c-.006.023-.015.045-.026.067l-.055.133-.077-.084c-.026.032 0 .084.062.126l-.044.102c-.032-.01-.067-.01-.099 0 .013.034.031.066.055.095l-.095.204c-.029.056-.088.046-.143.028l.073.084c-.205.288-.194-.228-.366.07.366-1.404.315-1.404.249-1.453s-.059-.046 0-.253c.123-.465.299-.916.523-1.345-.216-.109-.948 1.004-1.463 2.682.479-1.032.113.776.776-.565l-.22.804c-.044.209-.076.42-.095.632-.036.326-.055.655-.055.983-.007.342-.039.684-.095 1.022 0 .204-.033.428-.066.702l-.117.895-.033-.07.08.565.059.386.04.176v.772a3.93 3.93 0 0 0 .022.534l.022.242c-.196-.485-.307-.997-.329-1.517l-.099-1.404c-.07.413-.098.832-.084 1.25.034.348.089.694.165 1.036l.666 2.422c.051.46.051.555-.029.446-.056-.097-.104-.198-.143-.302l-.154-.516-.172-.6-.132-.576c-.08-.351-.157-.6-.22-.59.076.323.12.652.132.983.022.351.055.621 0 .558-.117-.523-.132-.871-.187-1.123l-.128-.593a5.41 5.41 0 0 1-.08-.646l-.026-.52c-.026-.207.022-.456.044-.751.07 1.152.084-.172.194.046-.03-.186-.046-.374-.048-.562 0-.277.033-.628.062-1.022A12.39 12.39 0 0 1 .8 10.9c-.044-.193-.168.123-.326.611-.084.269-.153.542-.205.818l-.187.818-.055 1.404-.026.702v.351.351a7.13 7.13 0 0 0 .366 2.458c.505 1.98-.139.19-.132.309.165.916.3 1.095.366 1.12s.095-.102.212.168l1.123 2.633a7.69 7.69 0 0 0 .45.927 6.14 6.14 0 0 0 .567.857l.033.091c.128.351.307.744.476 1.109s.366.702.545 1.018l-.15-.144-.15-.144c.168.751.417 1.015.681 1.148a2.55 2.55 0 0 1 .834.481c-.582-.516.22.656.348.958a8.27 8.27 0 0 0 .874.558 7.36 7.36 0 0 1 .977.702c.07.277-.073.541.629 1.053l.059.021a2.16 2.16 0 0 0 .732.274l.326.179c.092.088.216.018.329 0l.337-.07.622-.116.487-.081-.11.046c.944-.168.874-.439.198-.274l.391-.172.267-.119.11-.067.048.042c.214-.131.42-.272.618-.425.173-.142.337-.295.49-.456l.443.046c.024.083.024.17 0 .253l-.329.063a.77.77 0 0 0-.234.081h-.073c.048.028-.084.133-.22.2s-.285.162.04.081a1.92 1.92 0 0 0 .168-.116c.15-.025.366-.035.552-.084a4.05 4.05 0 0 0 .655-.211l.07.327c.337-.067.337-.147.366-.221.026-.049.067-.089.117-.116l.366.07-.366.162h.058l.366-.158.187.025a2.76 2.76 0 0 1-.366.214c.732-.263.732-.154.732-.025s-.018.267.732-.053c-.151.216-.371.379-.626.467a4.97 4.97 0 0 1-.973.256c-.677-.077.494-.312.549-.579-.611.211-.487.221-.732.425-.516.063-1.021.26-1.511.33a4.57 4.57 0 0 1-.684.077 1.38 1.38 0 0 1-.563-.133c-.401.034-.797.114-1.178.239-.059.123.234.186.574.239a4.3 4.3 0 0 1 .768.102c-.029-.018-.048-.035-.029-.053l.344.025h.344c-.651-.035.073-.26.406-.312.121 0 .304-.039.45-.046s.249-.025.223 0l-.179.06-.183.046a2 2 0 0 0 .757-.169 2.54 2.54 0 0 1 .772-.168c.04.049-.135.126-.157.168.505-.319 1.039-.439 1.756-.86l-.366.404c.289-.221.602-.412.933-.569a6.45 6.45 0 0 0 1.979-.379c.654.016 1.309-.02 1.957-.109a1.74 1.74 0 0 0-.183.088 3.02 3.02 0 0 1-1.068.288l.794.077c-.234-.06.234-.228.699-.404l.366-.147c.543-.107 1.075-.257 1.592-.449-.048.091-.216.214-.761.442l.732-.253.703-.27a5.42 5.42 0 0 0 .695-.33c.252-.127.491-.278.713-.449a9.84 9.84 0 0 0 1.372-1.099l.417-.411c.139-.137.26-.291.366-.432.224-.248.427-.514.607-.793l-.315.439c-.102.137-.223.246-.329.351a4.8 4.8 0 0 1-.64.579c-.337.26-.694.495-1.068.702l.245-.246c.077-.084.19-.172.274-.249.221-.234.466-.446.732-.632l-.084.112-.091.112c.022 0 .732-.843.732-.843.128 0 .618-.565.966-.955l.326-.383c.04-.032 0 .119-.208.481.216-.255.376-.548.472-.864a.78.78 0 0 1 .07-.225c.044-.112.146-.274.278-.579l-.055.098c-.046.088-.097.174-.154.256l-.52.741c-.17.246-.359.481-.563.702l-.274.312-.117-.151a13.74 13.74 0 0 1 .827-1.127 9.89 9.89 0 0 0 .659-.73l.088-.39.615-.72c.194-.228.366-.474.527-.737l.172-.295a1.37 1.37 0 0 1 0 .491c.165-.421.304-.93.468-1.482l.249-.818a.38.38 0 0 0 .117-.246c.04-.176.212-.351.212-.544v.028c-.049.261-.126.516-.23.762-.053.12-.09.246-.11.376-.048.279-.114.554-.198.825l-.124.435c-.037.14-.095.256-.132.351l-.124.351-.07.274-.077.274.209-.4.402-.923c.135-.344.249-.702.315-.98l.113-.456c0 .2.08-.042.146-.277s.132-.435.113-.102a6.04 6.04 0 0 0 .099-.727c0-.274.022-.478-.018-.327l-.037.32c0 .077 0 .158-.026.218a.7.7 0 0 1 0 .098c.021-.439-.037-.879-.172-1.299-.022-.074-.037-.154-.055-.253l.07-1.008c0 .074.037.147.051.218l.113.484c.055.274.092.435.132.428-.101-.381-.152-.773-.15-1.166-.029-.385-.079-.768-.15-1.148v-.147c.256.811.516 2.078.362.948zm-.545.084v.811l-.077-.372c0-.088-.044-.179-.07-.274v-.126a2.52 2.52 0 0 0-.033-.291c.051 0 .051.109.08.133-.037-.172-.047-.348-.029-.523l.143.425c-.018.07-.015.14-.015.218zm-.231 1.71v.021l-.062-.474c-.048-.281-.128-.562-.19-.818.026-.046.051-.07.073-.049l-.018.218c.157-.197.051-.506.143-.744l.084.822c0 .151.026.295.037.432v.211c-.037.125-.059.253-.066.383zm-4.712 8.819l-.366.302-.483.379.238-.109.366-.295c-.29.333-.607.644-.948.93l-.106.06c.267-.295.307-.376.227-.319a2.64 2.64 0 0 0-.245.193l-.11.091-.988.569-.472.267c-.066 0-.088 0-.04-.056l.084-.042.732-.397.703-.425.315-.2-.304.123a6.22 6.22 0 0 0 .988-.811l.223-.239.432-.372c-.062.119-.15.235-.245.351zM14.18 30.224c-.113 0-.271-.039-.479-.077l.216-.225.337.035.216.056c-.329 0-.154.095-.062.165l-.227.046zM2.845 6.986l-.029.053-.037.025c.037-.049.059-.081.066-.077l.289-.544.128.281-.172.302c0-.018 0-.032-.04-.06s-.026.06 0 .102c-.033-.081-.143-.063-.212-.032l.044-.074-.037.025zM4.239 5.43l-.143.218c-.013-.024-.019-.051-.019-.078s.009-.054.023-.077.034-.043.059-.057.052-.022.08-.023v.018zm2.203.26c-.03.045-.043.098-.037.151l-.091.081-.066.06-.113-.056.073-.056-.073-.021c.048-.067.099-.116.15-.162a.39.39 0 0 1 .157.004zm1.01-.902l.04.021-.037.032.069.053c-.015.034-.038.065-.066.091v-.06l-.037-.028-.033.109c-.037.039-.066.07-.062.095l-.234.197v-.056l-.033-.095a.19.19 0 0 1 .048-.046l-.022.056a.51.51 0 0 0 .231-.139.48.48 0 0 0 .123-.233l.011.004zm.329-.288c.128-.102.08.162.201.116-.002.008-.002.017 0 .025l-.117.084-.084-.225zm.727-.292c.011.016.019.035.023.054l-.088.056c-.026-.046-.055-.105.022-.154.017.014.032.028.043.045zm2.665-1.33l.099-.042.088-.021h.062l-.238.095-.011-.032zm3.062-.102h.051l.289-.039v.032l-.34.07c-.009-.009-.014-.021-.014-.033s.005-.024.014-.033v.004zm.366-.274l.143-.021-.026.028-.117-.007zM30 11.402l.135.204c.025.044.053.086.084.126l.194.32.176.723.19.681.146.544c0 .07-.022.14-.029.214l-.304-.502a.97.97 0 0 0-.201-.618c.058-.197-.08-.491-.04-.744-.066.081-.231-.137-.249-.021v-.032l-.117-.351c-.13-.328-.218-.67-.263-1.018a.21.21 0 0 1 .048.035l.245.435-.015.004zm1.167 4.69c.014.085.022.17.026.256 0-.067-.04-.133-.062-.207l.037-.049zm-.018-.309l-.066-.414v.123l.059.351c0 .042-.029.084-.048.126.002-.009.002-.019 0-.028v.035l-.051.105c-.106.088-.154.088-.176.046 0-.225-.026-.456-.051-.702.092.039.179.032.23-.27l.154.376c-.006.084-.018.167-.037.249l-.015.004zM10.499 3.752v.035c-.073 0-.135.07-.201.126-.083.003-.163.026-.234.067a.49.49 0 0 1 .11.035c.011.033.018.067.022.102-.106.04-.207.092-.3.154a.36.36 0 0 1 .022-.077c.04-.032.066-.053.04-.053l-.051.028.022-.06c.102-.063.168-.109.15-.119l-.139.081.022-.067.553-.256-.015.004zm7.767-.818a.56.56 0 0 0-.366.063c-.026-.095.179-.105.209-.13h.08c.019.004.037.012.053.023s.029.025.039.041l-.015.004zm.966.028c-.033-.032.055-.049.073-.063l.366.032-.19.053-.234-.028-.015.007zm5.093 1.903a.16.16 0 0 0-.061.008c-.019.007-.037.017-.053.03l-.296-.197a.75.75 0 0 1-.099-.105l.457.207c.02.02.042.038.066.053l-.015.004zM17.685 2.85h.285a1.14 1.14 0 0 0-.198.035l-.088-.035zM3.354 10.458c-.002-.046.009-.091.031-.131s.056-.074.097-.097v.039c-.051.123-.051.197 0 .249v.049l-.128-.109zm.128-.506c.017.008.036.012.055.012s.038-.004.055-.012c.02.021.043.039.07.053-.001.012-.001.023 0 .035l-.04.056c-.016.012-.036.019-.057.019s-.041-.007-.057-.019c-.022-.009-.043-.021-.062-.035 0-.042.018-.084.037-.116v.007zM4.4 8.316c.029.028-.048.088-.069.133v-.032-.095l-.018.046c-.062-.074-.08-.147-.022-.147.044.032.08.067.11.095zm2.828-2.472l.022.123v.035c-.022-.048-.037-.099-.044-.151l.022-.007zm4.072-2.24c.106-.063.161-.042.209 0l-.135.098-.048.025v-.025c.018-.014.038-.026.059-.035l-.062.028a.25.25 0 0 0-.022-.098v.007zm15.531 6.825c-.102-.046-.128-.035-.15 0l-.121-.116c0-.063-.029-.102.059-.077l.07.046c-.003.015-.003.031 0 .046.004-.021.002-.027 0-.032l.073.049.07.084zM15.457 6.648l.26.042-.117.046c-.061-.027-.127-.043-.194-.046.016-.012.033-.021.051-.028v-.014zm.863.14a1.28 1.28 0 0 0-.176.063 1.56 1.56 0 0 0-.223 0 .65.65 0 0 1-.117-.039c-.07-.021-.132-.053-.194-.077.055 0 .143-.025.201-.035l.509.088zm1.511.572l.208-.032-.117.046-.091-.014zm-.593-.27h-.033.11-.077zm-.776-.214c.001-.019.001-.037 0-.056l.15.028-.15.028zm-.099 0c-.07 0-.143-.021-.209-.025l.194-.06h.037a.34.34 0 0 1-.022.098v-.014zm1.968.467a2.43 2.43 0 0 0 .274.077c-.102 0-.241 0-.406-.025l.132-.053zm-.86-.323a.86.86 0 0 0-.263-.025v-.042l.274.053-.011.014zm9.249 13.587v-.274c.026.006.05.021.066.042v.028a.42.42 0 0 0-.073.197l.007.007zm.359-.818l-.055.214a.5.5 0 0 0 0-.074c-.033.07-.055.063-.08.06.004-.057.004-.115 0-.172l-.059.186c-.031.03-.055.064-.073.102-.033-.112-.018-.372-.08-.369a.26.26 0 0 1 .018.132c-.006.045-.023.087-.05.124v-.133-.179c.028.004.056.004.084 0a3.51 3.51 0 0 0 .143-.369c.046-.139.123-.266.227-.372a1.23 1.23 0 0 1 .088.186c0 .077-.033.158-.051.239-.066-.067 0-.154-.084-.144-.005.032.001.064.015.092s.037.053.066.069l-.058.253c-.048.025-.081.007-.121-.077.049.069.072.149.073.232zM21.896 6.663l-.124-.06a.44.44 0 0 1 .135.039l-.011.021zM4.331 20.158l-.128-.074.128.074zM26.312 10.04l.062.035.055.035c.002.015.002.031 0 .046l-.117-.116zm-.135-.309c.032.064.074.123.125.176a.55.55 0 0 0-.157-.084c-.086-.282-.123-.433-.11-.453a1.32 1.32 0 0 1 .121.067c.007.07.048.232.022.284v.011zM3.01 11.96l-.018-.077.022-.14a.3.3 0 0 0 .077.035c-.04.053-.04.116-.08.172v.011zm1.152-3.202h-.029l-.044.028c.002-.025.002-.049 0-.074 0 0 0 .028.044.046l.059-.039-.029.039zm-1.065 2.977a.58.58 0 0 0-.091-.021c.002-.03.002-.061 0-.091l.11.021-.018.091zm20.383-5.249h-.022v.021a.5.5 0 0 0 0 .074l-.037-.025-.088-.126c.066-.081 0-.098-.099-.137l-.055-.077.216.049.161.06a.25.25 0 0 0-.062.14l-.015.021zM4.217 8.664c-.04-.021-.146 0-.132.042-.102 0-.139 0-.161-.042l.132-.298c.019.009.036.021.051.035.04.081 0 .116-.084.116a.8.8 0 0 0 .212.112l-.018.035zm-1.024 2.809c-.048.023-.1.035-.154.035 0-.098.037-.2.059-.302a.94.94 0 0 0 .135.032c.003.02.003.04 0 .06.011.042-.007.102-.026.158l-.015.018zm24.305 12.505a.23.23 0 0 1-.04.098c.029-.033.048-.073.055-.116l-.015.018zM22.482 4.008c.018 0 .04.035.062.046-.128 0-.179.039-.165.109a.58.58 0 0 0 .018.063c-.095-.027-.191-.048-.289-.063l.34.162c.041.068.086.134.135.197v.021l-.187-.06c-.271-.091-.607-.172-.885-.246l.3-.095.388-.123c.124-.028.172 0 .263 0l.018-.011zm-13.241.576l-.077.032c.021-.029.047-.055.077-.077.006.021.016.041.029.06l-.029-.014zm-5.964 6.498a.88.88 0 0 1-.176.046c0-.063.029-.13.048-.193l.077.07h.055v.039l-.004.039zm1.804 12.828l-.055-.039-.132-.147.402.291.084.232-.073-.074a.63.63 0 0 0-.201-.249l-.026-.014zM23.067 4.159c.061.029.12.064.176.102l-.454-.161v-.032h.033c.11.028.187.06.26.091h-.015zM11.623 3.58v-.025l.271-.14-.271.14c.033-.039.165-.098.07-.088l-.084.053a.64.64 0 0 1 .207-.14c.078-.033.162-.051.247-.053l-.168.088.23-.095-.326.211-.176.049zM8.202 5.177c.044.018 0 .084-.048.158-.002-.009-.002-.019 0-.028-.015-.016-.034-.029-.055-.035.002-.007.002-.014 0-.021l.102-.074zm-1.123.776c.004.044.004.089 0 .133a.65.65 0 0 0-.062-.077l.062-.056zm-3.772 4.855v.098l-.095-.042v-.07c.032.004.064-.002.091-.018l.004.032zm16.281 18.948c.054-.047.116-.083.183-.109l.366-.067.574-.151c-.251.121-.51.225-.776.312l-.348.014zm11.181-13.46v-.169a.36.36 0 0 1 .022.077.87.87 0 0 1-.022.091zm-.022-1.404l.095.042c0 .112-.037.193-.051.256l-.044-.298zm-.04-.246v-.021l.095.165-.113-.263-.033-.183.176.351c-.009.039-.02.078-.033.116-.038-.053-.069-.107-.091-.165zm-6.348-9.96l.161.091c-.033.005-.067 0-.097-.016s-.052-.041-.064-.071v-.004zm-.08-.046a.11.11 0 0 0-.022.04c-.004.014-.006.03-.004.045l-.391-.207a.19.19 0 0 1 .102-.053c.07.046.143.088.227.13l.088.046zm-5.02-1.92h-.073a.53.53 0 0 0 .088-.021c.127.001.253.031.366.088l-.38-.067zm-4.584.007c.07-.032.106-.035.124-.021l-.124.021zm-3.659.878c-.004-.016-.013-.031-.026-.042l.531-.158c-.146.081-.34.144-.487.204l-.018-.004zm4.65 26.545c-.089-.022-.177-.049-.263-.081.117 0 .267.025.391.042l-.095.021-.033.018zm.234 0h.026c.154 0 .099 0 0-.028 0-.018 0-.025-.047-.025s.212-.063.238-.095 0-.028-.084-.046h.234v.312l-.432-.028c.027-.031.049-.065.066-.102v.01zm.501.046a1.01 1.01 0 0 1 .198-.232h.135l.143.028-.476.204zm1.42-.074l.245.025-.428.06.183-.084zm5.726-1.675l.545-.281.205-.116-.231.151c-.165.099-.342.178-.527.235l.007.01zM18.457 2.818h.051l.53.063.227.021a1.16 1.16 0 0 0-.3.154c.004-.015.012-.03.022-.042l.037-.018h-.033c.01-.014.023-.026.038-.035s.032-.015.05-.017a2.01 2.01 0 0 1-.79 0c.005-.021.013-.041.026-.06h.037-.029c.038-.038.084-.068.135-.088v.021zm-2.846-.084a.88.88 0 0 1 .128-.046h.168c-.098.016-.197.024-.296.025v.021zm.703-.119c-.139.025-.179-.028-.154-.074l.26-.039-.106.112zm-.366.039h-.095l.004-.077.183-.025c-.04.004-.044.018-.077.081l-.015.021zm-2.953.386l.198-.053-.194.063.004-.011h-.007zm-2.561.193l-.205.091a2.27 2.27 0 0 1 .157-.253c.08.119.406-.025.637-.091l-.567.253h-.022zM8.132 4.507c-.034.001-.068.01-.099.025 0-.126.205-.137.201-.232.007.019.019.036.035.049s.036.022.056.025l-.194.133zM6.515 5.683c-.014-.024-.027-.048-.037-.074-.014.014-.026.029-.037.046l-.091-.039.051-.046.04-.028.073.14zm-1.076.681a.28.28 0 0 1-.022.056c-.002-.028-.009-.056-.022-.081l-.15.137a.86.86 0 0 1 .088.105l-.102.165c-.024-.039-.04-.082-.048-.126.003-.012.003-.024 0-.035v-.032l-.062-.046.037-.053a.39.39 0 0 1 .033.091l.08-.077c-.025-.025-.056-.042-.091-.049l.077-.112c.095-.14.198-.27.3-.397-.04.07.026.207.062.33a1.2 1.2 0 0 1-.157.123H5.44zm5.854 23.449h.135c-.205.088-.399.144-.457.053.079-.02.155-.048.227-.084l.095.032zm3.842.256l.49.084-.08.042c-.15-.053-.494-.105-.38-.126h-.029zm9.546-1.755l.106-.056-.058.042-.048.014zm2.349-2.3c.07-.049.099-.063.106-.053l-.117.07.011-.018zm4.025-12.467l-.256-.839c.001.008.001.016 0 .025a5.43 5.43 0 0 1 .289.776s-.004.028-.018.046l-.015-.007zm-1.167-3.237l-.227-.313c.113.063.205.091.296.39l-.033-.025-.037-.053zm-3.161-4.108l.366.379c.095.119-.249-.165-.41-.298.545.481 1.057.994 1.533 1.538l.026.028c0 .088 0 .144-.102.042-.018.144.231.404.366.397l-.161-.025c.052.025.096.066.124.115s.04.106.034.162l-.165-.179-.688-.702-.077-.077-.095-.165c.176.119.435.383.596.52l-.212-.242a4.59 4.59 0 0 0-.487-.509l-.146-.137c-.284-.408-.614-.784-.984-1.123l.084-.032.399.309zm-2.843-3.114h-.102c-.136-.095-.29-.163-.454-.2h.037.022c.182.051.357.124.52.218l-.022-.018zm-7.943-.997l-.026.018h.117l-.435.334a3.73 3.73 0 0 1 .787-.351l.366.018c-.148.047-.291.107-.428.179a1.9 1.9 0 0 1 .918-.133h.022.08.146l.56.056a7.24 7.24 0 0 0-.809.474c-.154 0-.22-.032-.238-.084a1.23 1.23 0 0 0-.146.204l-.208-.032a1 1 0 0 0 .208-.053c-.198 0-.234.025-.223.053l-.157-.018-.293-.032c.086-.054.176-.1.271-.137a6.61 6.61 0 0 0 .915-.081h-.241c-.15 0-.344 0-.541.018h-.059c.044-.046.04-.098-.077-.169l-.055.06-.428-.053a5.23 5.23 0 0 1-.574.063c-.055-.039-.176-.056-.472 0 .095-.091.366-.158.289-.274l.282-.042.289-.035.161.018zm-.973.053h.201c-.114.059-.22.132-.315.218-.194-.042-.563-.084.128-.2l-.015-.018zm-.443.509l-.15.032.15-.032zm-.468.13a.19.19 0 0 1 .066.046l-.366.091-.3.091-.391.105c-.035-.014-.064-.039-.084-.07l.366-.116.724-.13-.015-.018zm-1.573-.274l.326-.067a.57.57 0 0 0-.07.13l-.366.091-.64.165h-.07a.38.38 0 0 1-.062 0c-.121.028-.238.028-.238 0l1.134-.302-.015-.018zm-.849.211l-.22.088v-.032l.22-.056zm-.15-.586v-.028l.322-.116c-.088.091-.172.221-.307.161l-.015-.018zm.571-.112c-.07.028-.212.084-.212 0l.095-.088.282-.102a.35.35 0 0 1-.15.207l-.015-.018zm-.64.109c-.106.116-.238.176-.388.351l.037-.207.351-.144zm-.366.14c-.146.26-.549.327-.878.33h.026l.853-.312V2.27zm-.922.288c-.044.053-.19.126.04.046.051.021.121.021.106.081-.021.023-.048.041-.077.052s-.062.015-.093.011-.062-.014-.088-.031-.048-.04-.063-.067l.176-.091zm-3.49 2.152l-.3.39.366-.418c.136-.124.279-.241.428-.351.297-.236.611-.452.94-.646l1.01-.558-.157.832a.37.37 0 0 0 0 .063l-.051.028-.289.179c-.033-.056-.077-.109-.073-.154 0 .035 0 .025-.059.046-.051-.081.113-.091.037-.179a.26.26 0 0 0-.113.126c.033-.13-.252-.067-.344 0-.11.246-.53.488-.765.702 0-.025.04-.081 0-.095-.324.223-.621.479-.885.765l.044.074-.117.105c-.135-.053-.252-.077-.296.06 0 .039.062-.13.135 0 .029.284-.329-.088-.366.077l.183.161c0 .018 0 .039-.022.063l-.11.105c-.084-.042-.227-.084-.201-.186a.1.1 0 0 0-.059.028l.428-.516c.227-.305.461-.516.637-.702zM2.761 6.757c.026-.119 0-.172 0-.33a8.16 8.16 0 0 1 .948-1.176c.244-.265.512-.508.801-.727.479-.404.9-.635 1.383-.997l-.845.878-.157.193a.15.15 0 0 0-.056.039c-.015.017-.026.037-.032.059s-.006.045-.001.067.016.042.031.06l-.11.088c-.154-.186-.241.028-.413-.088a.18.18 0 0 1 .088.06l-.124.035c.146 0 .165.204.132.256s-.084.095-.124.035v-.084c-.121 0 0 .256-.172.214-.044-.039-.037-.081-.059-.112.048.193-.029.246-.044.435l-.121-.239c.117.284-.124.404-.366.432.048 0 .095 0 .117.06-.029.116-.22.053-.285-.074.084.214-.413.183-.296.467l.048.109-.644 1.001a3.88 3.88 0 0 0 .304-.66zm0 .309v.042c0 .176-.19.334-.252.495 0-.016-.005-.032-.016-.045s-.026-.022-.043-.025l.326-.467h-.015zm1.101 18.727c-.117-.383-.198-.467-.282-.534s-.176-.112-.267-.421l.421.393c.036.036.067.076.091.119.143.253.146.425.051.442h-.015zm3.293 3.511c0-.025.073 0 .139.039-.278-.186-.252-.288-.476-.558.073-.211.406.211.673.263a2.55 2.55 0 0 1-.585-.425h.095l-.088-.077-.187-.172-.256-.26c-.315-.14.344.439.296.534a2.41 2.41 0 0 1-.209-.137l-.205-.14-.366-.407-.245-.32.084.056c-.042-.034-.075-.077-.097-.125a.34.34 0 0 1-.031-.153.5.5 0 0 1-.154-.056l-.157-.27 1.24.808c-.198 0-.461-.176-.366.109.366.218.984.298 1.427.639-.077-.018-.044.021-.121 0a2.12 2.12 0 0 1 .801.298c.169.113.352.207.545.277-.003.017-.012.033-.026.046-.002.018-.002.035 0 .053h.015.059c.077.211.344.333.622.446.07.06.172 0 .26-.032l.274-.081.209-.042.07.063.662.091a4.64 4.64 0 0 1-.677.295c-.282.077-.512.155-.498.288-.12.029-.242.043-.366.042-.051-.039-.07-.06-.077-.081s0-.084-.22-.26c-.029-.112.139-.084.293-.063l-.26-.144a6.3 6.3 0 0 1-.571-.351l-.56-.386-.245-.19c-.102.046.11.288.267.491s.307.351-.084.235c-.205-.053-.377.19-.874-.344h-.033zm6.008.702c.015-.006.029-.014.04-.025a.38.38 0 0 0-.077 0l-.124-.035.132-.126h.029l.161.021a.55.55 0 0 1-.121.13c.026 0 .052.006.075.019s.043.03.056.052l-.172-.035zm.732.253l-.406.063.139-.13.04-.042.366.088-.139.021zm1.581.225l.201.021c-.23.091-.249.06-.187-.01l-.015-.01zM26.313 3.77l1.098.646a.93.93 0 0 0 .366.095c.165.022.321.088.45.19.451.305.865.659 1.233 1.053-.351-.355-.373-.274-.446-.298.157.151.443.453.732.79l.831.916h0l-.143-.07.263.351.271.351.282.428c.201.288.373.59.501.818h0l.216.383c-.241-.158-.512-.723-.856-1.239a6.23 6.23 0 0 0-.501-.72c-.105-.161-.246-.298-.413-.4a2.82 2.82 0 0 0 .143.19h0l.304.428c.113.154.216.316.289.439h0l.121.2-.238-.319-.56-.671-.6-.635-.067-.07-.187-.183-.021-.019.074.065c.601.512.201-.195-.454-.709l-.083-.063c-.078.021-.161.013-.234-.021a3.71 3.71 0 0 1 .432.534l.593.899c0 .081-.084.004-.124-.035.377.499.732 1.352 1.035 1.72.077.204.161.709 0 .555a.75.75 0 0 1 .15.281c-.099.06-.113-.221-.208-.197.011.042.014.075.019.097l.009.021c-.135-.039-.294.194-.485-.229l-.045-.11c.168-.334.194.414.428.176-.077-.207-.179-.151-.223-.151-.092-.263-.018-.295.051-.295-.135-.07-.161-.446-.366-.52-.263-.484.223-.067.059-.39h0l-.366-.053c.011-.007-.249-.534-.249-.534-.271-.341-.362-.249-.479-.158s-.212.154-.578-.169c.22.014.231-.442 0-.832.176.197.637.474.765.825-.066-.544.388.558.487.207-.138-.094-.255-.213-.344-.351a2.01 2.01 0 0 1-.274-.439h0l.084.07c-.179-.298-.582-.319-.798-.737-.176-.165-.08-.204 0-.204-.165-.119-.322-.211-.238-.232h0l.289-.067a7.85 7.85 0 0 0-.703-.509c.212.13-.165-.33-.732-.702a4.33 4.33 0 0 0-.556-.397zm-5.229-2.408c-.553-.202-.266-.171.063-.13l.132.016c.174.021.33.035.346.009l.293.105h0l.64.235.911.39.596.116.413.088.187.046c-1.03-.591-.998-.594-.884-.572l.042.008c.092.015.163.007-.223-.279.399.235 1.164.555 1.862.937l.962.6a3.14 3.14 0 0 1 .604.562h0l-.34-.154-.732-.326-.761-.291h0l-.366-.116c.454.211.798.463 1.226.632h0l-.121.288.307.19c-.457-.274-.589-.186-.955-.372a11.98 11.98 0 0 0-2.737-1.404l-.699-.132-.24-.058-1.725-.389c-.256-.172.187-.098.732 0 .423.124.861.197 1.302.218-.273-.093-.553-.165-.838-.214zM17.274 0l.448.006A17.24 17.24 0 0 1 21.45.54c1.259.446-.816-.06.055.291-.717-.26-1.69-.376-1.423-.221.311.081.582.123.819.169h0l.637.119c.139.123-.695-.018-.172.183-.19-.035-.432-.109-.695-.169h0l-.82-.186c-.538-.091-.999-.147-1.068-.046l.891.182.124.031c.329.089-.165.046-.711.001l-.164-.013-.654-.041h-.099c-.057.001-.096.006-.111.015a1.94 1.94 0 0 0-.305-.076L17.64.765l.025.003c1.032.064 1.8.144.619-.146L18.15.589l-.139-.021c-.092-.018-.216-.046-.366-.046-.285-.032-.688-.098-1.098-.098h0l-.596-.032h-1.035l1.01-.039h.907c.644.016 1.284.105 1.906.263l.285-.053h0l.289-.046C17.772.189 16.182.12 14.616.315a11.82 11.82 0 0 1 3.106-.309z" fill="#000" fill-rule="nonzero"/><path d="M16.13 25.258c-5.034 0-9.13-4.096-9.13-9.129S11.096 7 16.13 7s9.13 4.096 9.13 9.128-4.095 9.129-9.13 9.129zm7.297-7.945a10.87 10.87 0 0 0-4.603-.316c.967 2.656 1.36 4.82 1.436 5.269a7.4 7.4 0 0 0 3.167-4.952zm-5.986.026c1.037 2.695 1.467 4.955 1.577 5.604-.888.377-1.864.587-2.887.587-1.708 0-3.283-.583-4.536-1.559.133-.272 1.629-3.164 5.797-4.615a.79.79 0 0 1 .027-.009l.022-.007zm-6.8 3.742c.167-.287 2.196-3.645 6.007-4.876a7.03 7.03 0 0 1 .291-.087 24.07 24.07 0 0 0-.599-1.255c-3.69 1.105-7.271 1.059-7.595 1.052l-.003.226a7.36 7.36 0 0 0 1.9 4.941zm5.088-7.354c-3.457.917-6.501.904-6.832.9.479-2.293 2.025-4.199 4.092-5.174a46.77 46.77 0 0 1 2.74 4.273zm-1.33-4.77a39.36 39.36 0 0 1 2.758 4.326c2.628-.986 3.74-2.48 3.873-2.669-1.305-1.159-3.021-1.862-4.899-1.862a7.37 7.37 0 0 0-1.732.205zm3.325 5.423c2.732-1.115 3.971-2.702 4.127-2.913 1.03 1.258 1.653 2.859 1.669 4.604-.244-.052-2.688-.547-5.147-.238l-.159-.381c-.154-.36-.319-.718-.491-1.071z" fill="#fff"/></svg>