<svg xmlns="http://www.w3.org/2000/svg" width="32" height="32" fill-rule="evenodd" xmlns:v="https://vecta.io/nano"><path d="M31.393 12.57a21.25 21.25 0 0 0-.706-2.274c-.497-1.312-1.152-2.556-1.95-3.702a3.39 3.39 0 0 1 .449.824c.021.108-.102 0-.254-.145-.222-.221-.516-.51-.502-.405a10.1 10.1 0 0 0-1.48-1.977c-.876-.925-1.866-1.73-2.946-2.393l-1.06-.607-.706-.362-.498-.242-.226-.101c.012.035.03.068.053.098A17.5 17.5 0 0 0 15.916 0c0 .105-.406.152.226.282l-.491-.065-1.084-.083c-.399-.011-.795-.025-1.095 0h-.498l.431.083a17.66 17.66 0 0 0-4.221.94c-1.358.49-2.639 1.18-3.804 2.046-1.072.811-2.024 1.776-2.826 2.867-.343.488-.652 1.001-.925 1.533l-.353.723-.268.723C2.042 6.88 2.261 6.977 2.494 6.851c-.549.871-1.013 1.795-1.385 2.758a17.25 17.25 0 0 0-.823 2.997c-.194 1.067-.289 2.15-.286 3.236l.11 1.714.117.882.177.896c-.032-.267-.035-.441 0-.455l.735 2.531a.3.3 0 0 0 0 .058c-.032.333-.032.668 0 1.001.018.18.045.358.081.535a3.9 3.9 0 0 0 .194.557c.071-.155.035-.391.127-.43.061.13.096.271.104.415a1.11 1.11 0 0 1-.061.424c-.027.202-.009.407.052.601a1.37 1.37 0 0 0 .301.519v-.278c.261.322.23.687.17.658.127-.061.251.058.417.257s.353.495.572.788a4.9 4.9 0 0 0 .812.86.84.84 0 0 0 .081.521s0-.155.032-.315a1.15 1.15 0 0 1 0-.116 1.19 1.19 0 0 0 .661.253 2.91 2.91 0 0 0 .314.56 5.47 5.47 0 0 0 .558.607 2.77 2.77 0 0 0 .403.322l-.23.17c.201.296.141-.145.6.362l-.261-.463.138.087a2.39 2.39 0 0 0 .293.159 1.18 1.18 0 0 0 .166.047l.434.499.653.611c.251.217.519.362.77.546-.275-.122-.544-.258-.805-.408-.208-.112-.332-.148-.406.029.13.131.269.252.417.362l.353.271.283.21.064.043h.071l.141-.018.629-.098.431-.072.505-.148-.124.025c.173-.102.354-.191.54-.264l.565-.257c.187-.083.353-.054.487-.166.063-.067.144-.113.233-.13.071 0 .145-.163.215-.173.247.141.494.213.738.336 1.003.38-.561-.405-.155-.296a8.76 8.76 0 0 0 2.674 1.124c1.106.277 2.246.39 3.384.336.955-.045 1.902-.196 2.826-.448.706-.188 1.141-.361 1.18-.275.517-.213 1.002-.501 1.441-.853a6.77 6.77 0 0 0 .632-.582c1.991-1.05 3.673-2.623 4.874-4.559l-.162.235-.353.503-.576.705.092-.181.071-.083a2.62 2.62 0 0 0 .184-.228l.533-.723.706-1.085-.028.094c.198-.336.353-.701.53-1.059s.314-.723.434-1.124c.268-.77.473-1.562.611-2.368a17.46 17.46 0 0 0 .131-4.928 20.63 20.63 0 0 0-.491-2.4zm-3.762-6.215c.198.083.943.9 1.565 1.92.52.85.932 1.765 1.226 2.722l-.283-.683c-.106-.257-.24-.531-.385-.813l-.47-.86-.516-.813c-.675-1.005-1.353-1.674-1.137-1.471zM25.325 4.79c.759.698.215.441.071.249s-.205-.271-.071-.239V4.79zM4.666 6.789c.019.06.044.118.074.174l-.134.061h-.042c-.003.014-.003.029 0 .043-.037.029-.066.067-.085.111s-.027.091-.024.139l.067.036c0 .087.148.192-.117.145l.081.061c-.039.033-.078.047-.163-.061a.47.47 0 0 0 .078.184l-.276-.033c.16-.296.34-.58.54-.85v-.011zm1.385-.828a.63.63 0 0 1-.056.072c-.02-.012-.041-.02-.064-.025l.046.043-.032.043-.057.043c-.046-.145-.007-.34.162-.166v-.011zm1.25-.799a.56.56 0 0 0-.102.119c-.057-.163.021-.134.102-.108v-.011zm.586-.394a1.45 1.45 0 0 0-.353.296v-.155c.117-.061.279-.159.353-.13v-.011zm15.188.289l.657.47c-.124.036-.155.116-.276.199l-.056-.04a1.1 1.1 0 0 0-.202-.465c-.103-.136-.235-.246-.387-.319l.265.155zM3.059 9.663h.035l.021.022c0 .054-.049.083-.117.105.018-.036.053-.076.071-.116l-.011-.011zm7.986-6.898c.155.123-.187.318-.505.521-.003.069-.03.135-.078.184-.053.054-.127.043-.205.036.087-.079.182-.149.283-.21 0-.061-.046-.105-.113-.134-.003-.043-.003-.087 0-.13a.63.63 0 0 0 .201-.112l.417-.155zm15.757 15.545c-.035 0-.07-.006-.102-.018l.071-.213c.009.078.024.155.042.231h-.011zM7.223 26.412l.385.322-.392-.228c.01-.013.017-.028.02-.045s.002-.033-.003-.049h-.011zm18.752-9.935v-.025l.06-.231c.032.137 0 .202-.06.257zM5.03 22.067l.184.416c-.028-.152-.078-.289-.134-.401l-.049-.014zm3.62 4.313l.138.134.254.228-.258-.17h-.021l-.113-.192zM7.015 24.72c.021.036.039.076.057.112l-.18-.235.124.123zm6.683-21.756c.049.022.078.054.074.087h-.085l-.233.047h-.025c-.03-.015-.055-.04-.07-.07s-.02-.066-.015-.099l.12-.036c.078.007.154.028.226.061l-.053.036c.018-.009.037-.015.057-.018l.003-.007zM2.374 15.238c-.042 0-.078 0-.085-.029a.26.26 0 0 1 .085.029.65.65 0 0 0 .106 0l-.032.072c-.024-.024-.05-.046-.078-.065l.004-.007zm.268-2.625l.035.025h-.064c-.173.08.049.094.081.152l-.254-.072c.057-.041.12-.072.187-.09l.014-.014zm-.735 2.263c-.018 0-.042 0-.06-.018l.148-.069c-.025.042-.06.077-.102.101l.014-.014zm24.421 5.723a.53.53 0 0 1-.021-.058c-.001-.014-.001-.029 0-.043l.025-.033c-.01.009-.02.016-.032.022-.015-.037-.024-.076-.025-.116l.102-.401v-.047c.057-.116.103-.237.138-.361.053.018.092.116.127.199-.099.333-.208.6-.314.839zM18.304 2.466l-.187-.087c.008-.025.024-.047.046-.061l.173.047a.13.13 0 0 1-.002.053c-.004.017-.012.034-.023.048h-.007zM6.503 5.918l.049.065c-.039-.006-.075-.022-.106-.047.025-.011.046-.022.057-.018zm-4.292 7.567c.08-.046.174-.062.265-.043-.102.09-.191.022-.265.043-.033.014-.059.04-.074.072.006-.017.015-.033.028-.046s.029-.022.046-.027zm-.396 1.348a3.47 3.47 0 0 1 .064-1.236.43.43 0 0 1 .134.11.44.44 0 0 1 .081.155c.017.057.022.116.015.175s-.025.116-.054.167c-.081.217-.247.441-.24.629zm24.944 4.537c-.049-.134-.106-.242-.177-.112a9.97 9.97 0 0 0 .279-1.005l-.074.557.159-.362c-.046.311-.108.618-.187.922zM22.143 4.002c-.039.016-.073.042-.099.076l.102.127c-.007.028-.025.051-.049.065-.307-.072-.092-.318-.413-.325l.021.202c0-.065 0-.101.049-.087.138-.036.109.09.056.177l-.053.022c-.025-.025-.053-.043-.074-.069-.068-.127-.094-.273-.074-.416.247.069.321.058 0-.145l.565.322c-.012.012-.022.026-.032.04v.011zm-.671-.893a.16.16 0 0 1 0-.04l.124.094-.124-.054zM11.045 2.78l-.424.137c-.039-.036-.042-.072-.187 0l.385-.188a.59.59 0 0 1 .226.04v.011zM6.372 5.961c-.017.028-.032.057-.046.087l-.081-.177c.013.021.03.039.05.052a.17.17 0 0 0 .066.027l.011.011zm-2.37 1.956l.021-.036c.051 0 .102.011.148.033h-.106l-.064.004zM2.84 10.162l.06-.123.046.025c-.095.076-.11.21-.166.293h-.028c.021-.071.047-.139.078-.206l.011.011zm-.781 2.776l-.092.257.198-.018-.205.033.021-.108.078-.163zm.06.325l-.17.145.184-.065-.177.108-.046.029.032-.188c.053-.021.109-.035.166-.04l.011.011zm21.782-7.729h-.046l-.124-.105-.353-.242-.572-.362-.265-.39a.42.42 0 0 0 .173-.09l.049-.036.65.437a2.08 2.08 0 0 0 .477.777l.011.011zm-1.035-1.743c-.185-.127-.355-.276-.505-.445l.417.257c.254.145.576.362.897.589l-.819-.412.011.011zm-4.57-1.775l-.205-.047-.035-.022.261.058-.021.011zm-7.7.723c-.053.037-.108.069-.166.098l-.095-.043.307-.087-.046.033zM9.42 3.16a.07.07 0 0 0 0 .029 2.07 2.07 0 0 1-.226.134c.036-.043.078-.081.124-.112l.102-.051zm-1.264.831l-.247.246c.05-.025.104-.037.159-.036a.49.49 0 0 1-.088.123c.078.025.145.217.223.325-.052.005-.104.005-.155 0-.071-.098-.141-.188-.198-.163 0 .094.021.13.067.152-.09-.017-.184-.013-.272.012s-.171.07-.24.133c-.032 0-.039 0-.021.036-.049.123 0 .137.078.105-.12.362-.59-.249-.788 0 .074.094.131.112.18.202-.032.094-.162-.08-.283-.184l.124-.09a11.26 11.26 0 0 1 1.445-.857l.018-.004zM6.45 5.05l.039.033c0 .058-.056.043-.099 0l.06-.033zm-.092.065c.106.325-.434.174-.184.799-.247-.192-.632-.213-.608-.022.014.068.045.132.09.185a.41.41 0 0 0 .165.119h-.018l.201.184c-.078.051-.29-.148-.353.025a3.03 3.03 0 0 1-.219-.513 9.21 9.21 0 0 1 .908-.774l.018-.004zm-.929.81c.025.065 0 .127 0 .177l-.297.119.279-.293.018-.004zm3.846 24.601a.9.9 0 0 0 .223.043 1.3 1.3 0 0 1-.311.033l-.201-.018.29-.058zm14.407-2.169l-.516.268c-.162.087-.41.192-.632.286l-.106.043a6.4 6.4 0 0 1 1.236-.571l.018-.025zm.226-24.171l.353.282v.033l.032.025-.042-.058.067.054.576.495.314.286.265.268c.035.108-.385-.054-.629-.26l-.184-.155c-.129-.156-.238-.329-.325-.513l.219.174.353.318-.177-.174a3.84 3.84 0 0 0-.399-.362l-.064-.058v-.025c-.042-.038-.086-.072-.134-.101l-.198-.177-.194-.155.166.105zM9.17 2.184l1.766-.582c.339-.161.694-.283 1.06-.362l-.685.419-1.865.466-.671.21-.576.202c-.865.293-1.694.686-2.472 1.171.815-.762 1.788-1.325 2.847-1.645.569-.137.738-.029.597.127v-.007zM3.649 5.553a3.28 3.28 0 0 1 .304-.383c.314-.379.648-.741 1-1.085.378-.39.802-.723 1.109-.987l.544-.398a3.96 3.96 0 0 1 .509-.362c.216-.142.44-.271.671-.387l-.191.105-.406.257-.406.26-.177.13a5.78 5.78 0 0 0-.766.723l-.572.647a20.24 20.24 0 0 1-1.724 1.641l.106-.163zm.625 21.749c.067-.076-.074-.293-.237-.499l-.353-.484c.042-.119.088-.137.152-.105s.053.152.081.228a4.67 4.67 0 0 0 .304.615l-.152-.643a1.11 1.11 0 0 0 .24.152c-.191-.116-.032.409.353.723l-.389.014zm1.529 1.446c-.3-.155-.615-.39-.636-.597l.745.495.06.025c.039.061.085.116.127.173-.1-.019-.199-.045-.297-.076v-.022zm4.39 2.429a2.85 2.85 0 0 1-.774.098 3.24 3.24 0 0 1-.604-.101l-.258-.083c-.077-.087-.146-.181-.205-.282-.152-.271.021-.242.226-.148l.042.018h.046l.099-.029.141-.033.184.025h.569c.383-.01.764-.048 1.141-.116.088 0 .177-.022.261-.036l-.198.116c-.163.098-.333.182-.509.253-.219.083 0 .04.268-.058s.565-.159.53 0a3.41 3.41 0 0 1-.961.387v-.011zm1.212-.629c-.163.152-.353.213-.441.043l.24-.123.06-.043.092-.018.268-.047-.219.188zm4.323.134h.138c.097.032.191.071.283.116a2.47 2.47 0 0 1-.417-.105l-.003-.011zm9.261-2.093c-.089.093-.185.181-.286.26l-.498.343a9.7 9.7 0 0 1-1.3.69 6.51 6.51 0 0 1-.625.249l-.466.159a13.21 13.21 0 0 1-3.532.155c.413-.069.12-.033-.226-.025l-.558-.069h.035c.145-.042.292-.073.441-.094l.463-.101c.353 0 .353 0 .17-.018h-.049l.42-.094c.237.155 1.007 0 1.84-.307l.569-.094a15.05 15.05 0 0 0 1.65-.394l.795-.26c.275-.087.551-.217.844-.362.346-.166.424-.152.314-.029v-.011zm5.496-9.367c-.33 2.11-1.154 4.107-2.402 5.82a13.52 13.52 0 0 1-4.239 3.792c1.734-1.135 2.949-2.39 2.536-2.444-.587.564-1.227 1.068-1.911 1.504l-.311.195.078-.069c.24-.21.526-.528.816-.835a10.59 10.59 0 0 0 .706-.907l.297-.434.353-.206c.114-.068.223-.143.329-.224l.42-.947.389-.85.777-1.645c.141-.286.233-.597.353-.922l.177-.506c.056-.174.095-.362.141-.55.106-.419.184-.846.233-1.276.059-.442.081-.888.067-1.334v-.116c0-.04 0 0 0 .025 0-.278-.035-.542-.067-.788-.021-1.363-.184-2.722.138-.875a10.42 10.42 0 0 0-.12-1.085 13.1 13.1 0 0 0-.261-1.385c-.002-.016-.002-.031 0-.047v-.481l-.025-.546-.021-.253c-.049-.173-.162-.224-.173 0s.159.557.212 1.226a10.44 10.44 0 0 0-.41-1.367l-.258-.723c-.092-.228-.208-.441-.304-.651-.269-.586-1.098-1.699-.699-.911 0-.076.102.043.258.289s.318.64.512 1.085.332.94.487 1.406.216.925.29 1.262c-.071-.029-.17-.26-.29-.596l-.198-.571-.268-.651-.297-.672-.353-.611-.212-.361-.085-.221-.155-.401c-.057-.13.276-.44.466-.033.406.564-.106-.792.003-.474.07-.131.09-.285.057-.43l.65 1.085.932 2.046-.201-.636-.233-.644c-.085-.235-.201-.474-.307-.723-.201-.448-.43-.883-.685-1.301-.108-.196 3.515 6.681 2.808 10.976v-.011zM9.632 31.727c.127-.007.219-.025.233.025-.059.023-.119.041-.18.054-.117.029-.272.051-.427.08h0l-.622.112c-.298.015-.079-.054.19-.125l.149-.038.304-.076h0zm20.005-11.351l.304.21-.109.318c-.067.192-.152.445-.261.691a6.9 6.9 0 0 1-.297.672h0l-.145.296c.156-.351.279-.717.367-1.092.04-.13.054-.266.042-.401-.025-.145-.064-.145.099-.694h0zm1.018-9.226c.021.018.247.459.353.589l.12.578c.06.286.102.578.102.578-.223-.719-.385-1.16-.48-1.417v-.011c-.095-.26-.117-.336-.095-.318z" fill="#000" fill-rule="nonzero"/><path d="M12.191 7.055h7.268c3.32.153 4.982 2.031 5.128 5.128v7.268c-.12 2.624-1.354 4.084-2.988 4.719-1.196.463-2.364.463-5.726.463h-.048l-1.029.005h0 0c-2.772.021-4.785.035-6.306-1.485-1.51-1.51-1.499-3.48-1.483-6.378l.003-.957-.005-1.023c-.02-2.804-.034-4.794 1.484-6.313 1.015-1.015 2.274-1.36 3.702-1.427zm4.422 15.989c3.001.007 4.391.01 5.415-1.014 1.029-1.034 1.028-2.409 1.025-5.6v-.003-.003-.608l-.051-3.563c-.169-3.726-2.752-3.702-6.188-3.671h0 0l-.987.006-.033-.022-3.527.043-.042.001c-3.72.191-3.698 2.644-3.665 6.159l.006 1.036-.008 1.195c-.026 2.343-.043 3.957 1.023 5.018 1.025 1.027 2.411 1.026 5.72 1.024h.505l.809.001zm-5.315-7.227c0-2.499 2.025-4.527 4.527-4.527s4.527 2.025 4.527 4.527-2.025 4.527-4.526 4.527-4.527-2.025-4.527-4.527zm1.588 0a2.94 2.94 0 0 0 2.938 2.938c1.624 0 2.939-1.315 2.938-2.938a2.94 2.94 0 0 0-2.938-2.938 2.94 2.94 0 0 0-2.938 2.938zm7.644-3.647a1.06 1.06 0 0 0 1.058-1.058 1.06 1.06 0 0 0-1.058-1.058 1.06 1.06 0 0 0-1.058 1.058 1.06 1.06 0 0 0 1.058 1.058z" stroke="#fff" stroke-width=".3" fill="#fff"/></svg>