<?xml version="1.0" encoding="utf-8"?>
<!-- Generator: Adobe Illustrator 24.3.0, SVG Export Plug-In . SVG Version: 6.00 Build 0)  -->
<svg version="1.1" id="Layer_1" xmlns="http://www.w3.org/2000/svg" xmlns:xlink="http://www.w3.org/1999/xlink" x="0px" y="0px"
	 viewBox="0 0 841.42 195.15" style="enable-background:new 0 0 841.42 195.15;" xml:space="preserve">
<style type="text/css">
	.st0{stroke:#000000;stroke-miterlimit:10;}
	.st1{fill:#F15A29;}
	.st2{fill:#FFFFFF;}
</style>
<g>
	<g>
		<path class="st0" d="M1.25,159.47V53.3h36.86c8.8,0,16.36,1.42,22.68,4.25c6.32,2.83,11.15,6.85,14.49,12.06
			c3.34,5.21,5.01,11.5,5.01,18.88c0,7.38-1.67,13.7-5.01,18.96c-3.34,5.26-8.17,9.3-14.49,12.13c-6.32,2.83-13.88,4.25-22.68,4.25
			H4.13l2.27-2.43v38.07H1.25z M6.41,121.4l-2.27-2.28h34.28c11.93,0,21.06-2.68,27.38-8.04c6.32-5.36,9.48-12.89,9.48-22.6
			c0-9.71-3.16-17.22-9.48-22.52C59.47,60.65,50.35,58,38.41,58H4.13l2.27-2.43V121.4z"/>
		<path class="st0" d="M107.73,159.47V53.3h36.86c8.8,0,16.36,1.42,22.68,4.25c6.32,2.83,11.15,6.85,14.49,12.06
			c3.34,5.21,5.01,11.5,5.01,18.88c0,7.38-1.67,13.7-5.01,18.96c-3.34,5.26-8.17,9.3-14.49,12.13c-6.32,2.83-13.88,4.25-22.68,4.25
			h-33.98l2.27-2.43v38.07H107.73z M112.89,121.4l-2.27-2.28h34.28c11.93,0,21.06-2.68,27.38-8.04c6.32-5.36,9.48-12.89,9.48-22.6
			c0-9.71-3.16-17.22-9.48-22.52c-6.32-5.31-15.45-7.96-27.38-7.96h-34.28l2.27-2.43V121.4z M182.36,159.47l-27.61-38.53h5.92
			l27.76,38.53H182.36z"/>
		<path class="st0" d="M362.37,154.77h66.59v4.7h-71.75V53.3h69.62V58h-64.46V154.77z M361.46,103.2h58.55v4.7h-58.55V103.2z"/>
		<path class="st0" d="M478.71,159.47V58h-38.98v-4.7h82.97V58h-38.98v101.48H478.71z"/>
		<path class="st0" d="M585.19,160.08c-7.79,0-15.02-1.34-21.69-4.02c-6.67-2.68-12.49-6.45-17.44-11.3
			c-4.96-4.85-8.8-10.54-11.53-17.06c-2.73-6.52-4.1-13.63-4.1-21.31c0-7.68,1.37-14.79,4.1-21.31s6.57-12.21,11.53-17.06
			c4.95-4.85,10.77-8.62,17.44-11.3c6.67-2.68,13.9-4.02,21.69-4.02c7.89,0,15.17,1.34,21.84,4.02c6.67,2.68,12.46,6.45,17.37,11.3
			c4.9,4.85,8.75,10.54,11.53,17.06c2.78,6.52,4.17,13.63,4.17,21.31c0,7.69-1.39,14.79-4.17,21.31
			c-2.78,6.52-6.62,12.21-11.53,17.06c-4.91,4.85-10.69,8.62-17.37,11.3C600.35,158.74,593.07,160.08,585.19,160.08z M585.19,155.38
			c7.08,0,13.65-1.21,19.72-3.64c6.07-2.43,11.35-5.86,15.85-10.31c4.5-4.45,7.99-9.63,10.47-15.55c2.48-5.92,3.72-12.41,3.72-19.49
			c0-7.08-1.24-13.58-3.72-19.49c-2.48-5.92-5.97-11.1-10.47-15.55c-4.5-4.45-9.78-7.89-15.85-10.31
			c-6.07-2.43-12.64-3.64-19.72-3.64c-6.98,0-13.5,1.21-19.57,3.64s-11.35,5.87-15.85,10.31c-4.5,4.45-7.99,9.63-10.47,15.55
			c-2.48,5.92-3.72,12.41-3.72,19.49c0,7.08,1.24,13.58,3.72,19.49c2.48,5.92,5.96,11.1,10.47,15.55c4.5,4.45,9.78,7.89,15.85,10.31
			S578.21,155.38,585.19,155.38z"/>
		<path class="st0" d="M668.15,159.47V53.3h36.86c8.8,0,16.36,1.42,22.68,4.25c6.32,2.83,11.15,6.85,14.49,12.06
			c3.34,5.21,5.01,11.5,5.01,18.88c0,7.38-1.67,13.7-5.01,18.96c-3.34,5.26-8.17,9.3-14.49,12.13c-6.32,2.83-13.88,4.25-22.68,4.25
			h-33.98l2.28-2.43v38.07H668.15z M673.31,121.4l-2.28-2.28h34.28c11.93,0,21.06-2.68,27.38-8.04c6.32-5.36,9.48-12.89,9.48-22.6
			c0-9.71-3.16-17.22-9.48-22.52c-6.32-5.31-15.45-7.96-27.38-7.96h-34.28l2.28-2.43V121.4z M742.78,159.47l-27.61-38.53h5.92
			l27.76,38.53H742.78z"/>
		<path class="st0" d="M803.91,160.08c-7.79,0-15.14-1.39-22.07-4.17c-6.93-2.78-12.21-6.29-15.85-10.54l2.73-3.64
			c3.44,3.84,8.32,7.11,14.64,9.78c6.32,2.68,13.12,4.02,20.4,4.02c7.38,0,13.45-1.01,18.2-3.03c4.75-2.02,8.27-4.73,10.54-8.12
			c2.28-3.39,3.41-7.15,3.41-11.3c0-4.85-1.21-8.75-3.64-11.68c-2.43-2.93-5.64-5.26-9.63-6.98c-4-1.72-8.34-3.13-13.04-4.25
			c-4.7-1.11-9.46-2.3-14.26-3.56c-4.8-1.26-9.2-2.88-13.2-4.85c-4-1.97-7.18-4.7-9.56-8.19c-2.38-3.49-3.56-8.01-3.56-13.58
			c0-4.75,1.26-9.2,3.79-13.35c2.53-4.15,6.47-7.51,11.83-10.09c5.36-2.58,12.23-3.87,20.63-3.87c5.76,0,11.45,0.89,17.06,2.65
			c5.61,1.77,10.39,4.12,14.33,7.05l-2.28,4.1c-4.25-3.13-8.95-5.46-14.11-6.98c-5.16-1.52-10.11-2.27-14.87-2.27
			c-7.08,0-12.97,1.04-17.67,3.11c-4.7,2.07-8.17,4.83-10.39,8.27c-2.23,3.44-3.34,7.23-3.34,11.38c0,4.96,1.21,8.9,3.64,11.83
			c2.43,2.93,5.64,5.26,9.63,6.98c3.99,1.72,8.37,3.14,13.12,4.25c4.75,1.11,9.5,2.3,14.26,3.56c4.75,1.27,9.12,2.91,13.12,4.93
			c3.99,2.02,7.18,4.73,9.56,8.12c2.38,3.39,3.56,7.81,3.56,13.27c0,4.75-1.29,9.2-3.87,13.35c-2.58,4.15-6.62,7.48-12.13,10.01
			C819.4,158.82,812.4,160.08,803.91,160.08z"/>
		<g>
			<path d="M12.65,37.72V5.41H0V0.82h30.52v4.59H17.87v32.32H12.65z"/>
			<path d="M62.73,0.82h5.27v36.9h-5.27V0.82z M41.54,37.72h-5.27V0.82h5.27V37.72z M63.21,21.27H41.01v-4.59h22.19V21.27z"/>
			<path d="M84.35,33.14h21.51v4.59H79.08V0.82h26.04v4.59H84.35V33.14z M83.87,16.74h18.98v4.48H83.87V16.74z"/>
		</g>
	</g>
	<g>
		<g>
			<polygon class="st1" points="187.54,195.15 272.49,26.86 354.73,194.28 272.46,54.65 			"/>
		</g>
		<g>
			<polygon class="st0" points="244.01,65.97 272.49,1.25 300.44,65.68 272.49,15 			"/>
		</g>
		<g>
			<polygon class="st0" points="224.79,158.8 272.49,66.03 318.2,158.8 272.49,79.78 			"/>
		</g>
	</g>
</g>
</svg>
