<svg xmlns="http://www.w3.org/2000/svg" width="32" height="32" fill-rule="evenodd" xmlns:v="https://vecta.io/nano"><path d="M31.892 16.186a4.02 4.02 0 0 0-.148-.603 3.21 3.21 0 0 0 .064.303l.044.303s-.092-.099-.172-.307a1.71 1.71 0 0 1 .024-.455c-.028.076-.092.064-.14-.269.016-.218.052-.433.108-.645l-.112-.03c.032-.205.112-.095.084-.315h.056l-.08-.262c.2.045.08-.584.187-.759-.057-.397-.084-.798-.084-1.199.096-.08.068-.592.076-.922a16.01 16.01 0 0 0-.614-2.276l-.116.057-.084-.193c.028 0 .032-.038.056 0a.36.36 0 0 0-.003-.17c-.015-.056-.042-.108-.081-.152l.239.307a4.67 4.67 0 0 1-.347-.497c-.016-.033-.026-.069-.028-.106-.002.014-.002.028 0 .042L30.7 7.8c.01-.036.031-.069.06-.095-.019-.042-.042-.083-.068-.121.032.006.062.022.084.046.164.354.369.69.61 1.001l.614.831-.399-.888c-.096-.201-.195-.326-.275-.451l-.774-1.221c-.096-.072-.172-.08-.299-.167-.216-.181-.413-.381-.586-.599v-.019c.439.349 0-.125-.116-.269 0 .046 0 .042-.044 0s0-.083.06-.083c-.172-.159-.183-.106-.195-.034l-.092-.083-.12-.11h.044L29 5.33c0-.03.06 0 .088 0a2.17 2.17 0 0 1-.235-.228c.108.023.175 0-.275-.398h-.088a2.44 2.44 0 0 0-.423-.429 2.98 2.98 0 0 1 .654.448 5.37 5.37 0 0 0-1.711-1.24c.032-.118.243.053.371.102-.132-.129-.538-.36-.483-.205-.199-.095-.203-.22-.283-.311 0 .019.12.174 0 .144a4.33 4.33 0 0 0-.905-.652c0-.019 0-.068.052-.064-.327-.027-.172-.224-.554-.379a13.04 13.04 0 0 0-2.082-.732c-.18-.095-.295-.167.187-.019l-.283-.099-.63-.197a7.6 7.6 0 0 0-.63-.178l-.291-.076-.116-.178c-.455-.087-.475-.068.056.087a4.79 4.79 0 0 0-.714-.152l-.925-.129C19.18.361 18.705.32 18.9.202L17.074.13h-.898a9.29 9.29 0 0 0-1.161.08c.698-.106.295-.129-.104-.125s-.798 0-.036-.083a3.13 3.13 0 0 0-.941.121l-.798.205c-.642.068-.399-.133.295-.3l-.399.102-.399.11V.21l-.343.106-.339.129c-.758.125-.2-.114-.965.099l-.124.171-.507.095c.207 0-.319.171-.718.379v-.03c-.117.041-.23.091-.339.148l-.323.156c.586-.357-.594.243-.351.03l-.59.307c-.191.099-.423.235-.866.539l.207-.03c-.566.379-.594.379-.602.341s0-.114-.459.216l.116.038-.495.315-.427.341c-.255.216-.491.45-.706.702l-.602.683a8.48 8.48 0 0 1-.578.664c.399-.535.211-.474.223-.448l-.527.69-.546.823c-.183.281-.323.58-.471.861l-.032-.027c-.004.009-.006.019-.006.028s.002.019.006.028l-.168.345c-.064.049-.128.095-.116.19.006.005.014.008.022.008s.016-.003.022-.008l-.048.133c-.036 0-.064.03-.056.095l-.072-.068c.036.068.1.125 0 .156-.112-.038-.052-.099-.084-.156-.032.046-.068.178.048.186 0 .076-.1.053-.144.068h.1c-.065.071-.125.145-.18.224l-.036.053s-.04 0-.044-.027.028.049 0 .061c-.032.027-.156 0-.172.08a3.83 3.83 0 0 0-.084.413l-.152.345c-.092.233-.165.473-.219.717-.023-.015-.041-.036-.052-.061l-.052.156-.04.156c0 .068.156.08.088.144-.06 0-.032-.038-.104-.049-.104.102 0 .19.068.277l-.124.417-.132.698-.112.569c-.036.148-.048.239-.08.247.068.182-.084.671-.052 1.089l-.044.087.104-.061a5.13 5.13 0 0 0-.032 1.79l.112.853c0 .072 0 .152.028.228-.044-.023-.088 0-.124.262.04-.072.096-.201.132-.209s0 .03 0 .046c-.33.88-.491 1.809-.475 2.742a13.28 13.28 0 0 0 .503 3.414 13.85 13.85 0 0 0 2.19 3.998 11.09 11.09 0 0 0 3.119 2.708v.042c.155.128.299.267.431.417a.95.95 0 0 0 .423.284c-.299-.379-.467-.277-.734-.687l.375.205c-.223-.121-.239-.197-.172-.209.283.284.69.554.866.759-.028-.057-.028-.095 0-.091.185.131.384.243.594.334a3.54 3.54 0 0 1 .558.353c0 .133-.275-.064-.475-.205a1.12 1.12 0 0 0 .303.269l.203.114.435.281c0 .057-.128-.023-.267-.11l-.215-.129c-.017-.012-.036-.02-.057-.025s-.042-.005-.063-.002l.798.467c0 .038.1.019.172.045s.183-.027.299-.03a5.37 5.37 0 0 0 .834-.106c.206-.028.404-.091.586-.186a1.96 1.96 0 0 0 .359-.209l.068-.053h.355.63l.626-.061a4.96 4.96 0 0 0 1.197-.292l.056.087c.255 0 .303-.083.554-.163v.03a5.5 5.5 0 0 0 .913-.281 5.12 5.12 0 0 1 .71-.266l-.024-.11.263-.046c.718.25 1.747.061 2.756.102l-.187-.118a35.3 35.3 0 0 0 4.053-1.032c1.478-.483 2.824-1.272 3.941-2.31l.036.118a5.09 5.09 0 0 0 .399-.47l.399-.486c.251-.216.203-.129.12 0s-.235.288-.14.235c.226-.237.413-.506.554-.797a1.94 1.94 0 0 1 .172-.288l.184-.254.251-.379c.491-.611-.064.281-.271.588.223-.284.399-.641.638-.986.186-.289.351-.589.495-.899l.068-.061.255-.44.172-.307.072-.144c.038-.05.082-.096.132-.136l.048-.178.199-.201.192-.212c.044-.121.231-.486.363-.899.132-.347.212-.709.239-1.077.072-.083.319-1.043.175-.292l.04-.159c0-.106.068-.25.088-.432l.08-.622c.028-.243.02-.478.024-.724.015-.421-.008-.842-.068-1.259zM27.987 4.314c.036.046.08.087.036.102-.075-.038-.146-.084-.211-.137a.35.35 0 0 0 .175.034zM7.193 27.501a9.43 9.43 0 0 1-.798-.565l-.04-.034.638.379-.06.03.55.266.303.227-.594-.303zm.076-1.517l-.443-.3-.423-.315s.052 0 .172.068c-.69-.467-1.073-1.081-1.364-1.293 0-.027 0-.057-.028-.083.239.091.076-.182.427-.061.479.265.303.319.291.379a1.32 1.32 0 0 0 .447.235c-.335-.099-.475-.398-.291-.398.032.063.078.119.136.163l.846 1.043.275.284-.399-.292c-.164-.027.634.614.355.569zm-1.887-2.42c0 .083-.128 0-.259-.091l-.064-.167c.048-.023.064-.057-.056-.156l-.056-.144c.032 0 .064.027.104.049-.044-.049-.088-.034-.128-.072h.036a4.12 4.12 0 0 1-.056-.535l.913 1.453c-.08.019-.187 0-.399-.182.263.061.02-.114-.036-.174v.019zM27.098 9.082l.375.311a1.46 1.46 0 0 1 .148.186c.048.084 0 .091-.036.106s-.159.061 0 .379c-.041-.016-.077-.042-.104-.076a3.5 3.5 0 0 1-.295-.482c.06 0 .072-.136.172.038-.036-.129-.144-.3-.259-.322.096.281-.331-.353-.323-.106l-.096-.277c.036.053.088.03.128.118.002-.011.002-.023 0-.034l.283.356.008-.197zm-9.856-4.282c-.068 0-.036.034-.06.053a7.92 7.92 0 0 1 2.673.205h.036l.096.019h-.1.1c0 .027-.064.038-.084.076l.108.038a1.78 1.78 0 0 1 .235.091l.331.144-.104-.118c.083.019.167.033.251.042a.92.92 0 0 1 .08.095c-.024 0 0 .14.036.159s.072.266.108.266v-.118c.028.042.056.027.08.068.475.436.746 1.1 1.141 1.661-.06-.083.148-.163.148-.072-.042.056-.059.125-.048.193l-1.54-.69h.052v-.023h-.036l-.399-.156c-.855-.326-1.75-.545-2.665-.652-.152.021-.305.034-.459.038h0-.052c.036-.061.048-.102.112-.102 0-.197-.164.03-.255.072 0 0 .024-.034.036-.046s-.056.03-.08.034c-.024-.057.072-.072.084-.125l-.072-.023c-.028 0-.052.03-.036-.019s.08-.114.116-.156l-.128.102c.036-.057 0-.129.06-.156h-.12l.044-.133c-.036 0-.044.038 0 .068-.028-.046-.255.163-.136-.083-.124.072-.136 0-.267.053.128-.095-.036-.182.072-.212-.032-.072-.092.064-.14.076-.003-.043.005-.086.023-.126s.046-.074.081-.102l-.068.046v-.027l-.068.061c-.02-.083.036-.133 0-.167l-.048.114v-.08c0 .057-.04.072-.076.072v-.027h-.048c.064-.061-.028-.038 0-.114-.032-.019-.032 0-.1 0v.083c-.104.046.036-.121-.032-.144l-.024.091c-.048-.178-.187.049-.227-.068.044 0 .064-.125.056-.099-.068.019-.164-.03-.255.068-.002-.018-.002-.035 0-.053a4.53 4.53 0 0 1 1.568-.197v-.004zm-3.909.941l.052.08s0 .053-.032.034H13.3c.017-.014.028-.032.034-.052s.005-.042-.002-.061zm.706.057c.047-.034.081-.08.1-.133a.41.41 0 0 0 0 .171h-.128s.032-.019.048 0l-.02-.038zm6.929 3.494l.14.068-.14-.068zm-5.927-3.004l-.128.034.128-.034zm-1.815-.432h-.112c.036-.023.056 0 .104 0h.008zm2.421-.869a.41.41 0 0 0 0-.102c.124-.021.251-.021.375 0l-.375.102zm.957 20.532s-.04-.042-.072-.064 0-.027-.048-.045 0 0 .068 0l-.159-.046v-.03a5.05 5.05 0 0 1 .862 0l-.235.114c-.143-.005-.285.022-.415.08v-.008zm7.727-1.081l.076.068c-.243.166-.512.294-.798.379-.298.075-.59.17-.874.284l-.052-.087-.076.144-.156.038.072-.125c.024 0 .06-.027.076-.019v-.083l.231-.049c.12-.158.228-.324.323-.497.122.004.244-.024.351-.08 0-.049-.1-.053-.168-.087l.148-.171c.003.015.003.03 0 .046.164-.125.431 0 .399-.171l.287.08-.12-.038c0-.068.184-.197.207-.247a.44.44 0 0 1 .186-.144c.075-.031.157-.041.237-.031-.044 0-.124-.042-.14-.087l.096-.064c.08.049.183-.023.263-.072a7.39 7.39 0 0 1-.303.891c-.096-.03-.052.087-.267.129v-.008zm3.789-13.504a3.1 3.1 0 0 1-.323-.231c0-.099.024-.144.08-.125 0 .167.044.118.112.148a.45.45 0 0 1-.06-.182c.359.531-.223-.474.116 0l.211.478-.136-.087zm-1.536-2.276c0-.042-.064-.114-.1-.178l.223.254a.51.51 0 0 1-.124-.061v-.015zm-.451-.652h-.044l-.271-.338a.35.35 0 0 1 .044-.057c.13.106.228.244.283.398l-.012-.004zm-9.067-6.832a1.62 1.62 0 0 1-.299.159.33.33 0 0 1 0-.072c.084.068.1-.148.311-.083l-.012-.004zm13.71 6.907c0 .064.08.083.12.163 0 .186-.168.076-.215-.152h.028l-.132-.118c.027-.021.046-.048.056-.08l.144.186zM8.976 2.466c.455-.247.965-.505.622-.417a2.44 2.44 0 0 1 .898-.341c-.399.212-.227.186.032.125s.614-.121.562-.061c.303-.14-.706.121-.299-.068a4.73 4.73 0 0 1 1.197-.235l-.208.08.399-.072.399-.068c.116-.106-.798.08-.072-.14.307-.065.619-.109.933-.133-.339.159-.056.235-.682.379.511-.144 2.202-.357 1.5-.402l.323-.03.319-.023c-.399-.034-1.552 0-.259-.159v.027l.447-.087.451-.076.399.061c0-.03.132-.083.467-.072.088.046.399.068.399.121.973.027.902-.019 1.033-.061h.068a2.71 2.71 0 0 1-.574.269l-.291.03.032-.019-.04.019c-.104.049-.255.076-.295.099-.035-.011-.073-.011-.108 0 .048.023.144.034.128.08-.445-.021-.891.026-1.32.14l-.279.076c-.254.009-.508.036-.758.08.014-.004.029-.004.043 0s.027.012.036.023l-.335-.027-.375-.042-.363-.019c-.504-.041-1.011.036-1.476.224-.184-.046.088-.106.183-.193a2.61 2.61 0 0 1-.961.258 2.84 2.84 0 0 0-.898.216l.028.076c-.584.137-1.134.38-1.619.717-.491.167-.116-.083.315-.353zm-.885.721a1.77 1.77 0 0 1 .562-.345l-.73.501h-.028l.195-.156z" fill="#000" fill-rule="nonzero"/><path d="M6.3 16.5c0 2.93 2.252 5.2 4.905 5.2s4.905-2.27 4.905-5.2-2.252-5.2-4.905-5.2S6.3 13.571 6.3 16.5zm-1.3 0c0 3.59 2.778 6.5 6.205 6.5s6.205-2.91 6.205-6.5-2.778-6.5-6.205-6.5S5 12.91 5 16.5zm15.079 3.739c.488.962.926 1.08 1.034 1.08s.546-.118 1.034-1.08c.451-.89.768-2.21.768-3.739s-.317-2.849-.768-3.739c-.488-.962-.926-1.08-1.034-1.08s-.546.117-1.034 1.08c-.451.89-.768 2.21-.768 3.739s.317 2.849.768 3.739zM18.011 16.5c0 3.379 1.389 6.119 3.102 6.119s3.102-2.739 3.102-6.119-1.389-6.119-3.102-6.119-3.102 2.739-3.102 6.119zm7.222 4.303l.027.104c.181.676.406 1.075.649 1.075s.468-.399.649-1.075l.027-.104c.253-1.004.415-2.558.415-4.303s-.162-3.299-.415-4.303l-.027-.104c-.181-.676-.406-1.075-.649-1.075s-.468.399-.649 1.075l-.027.104c-.253 1.004-.415 2.558-.415 4.303s.162 3.299.415 4.303z" stroke="#fff" stroke-width=".3" fill="#fff"/></svg>