<?xml version="1.0" encoding="UTF-8"?>
<svg width="42px" height="58px" viewBox="0 0 42 58" version="1.1" xmlns="http://www.w3.org/2000/svg" xmlns:xlink="http://www.w3.org/1999/xlink">
    <title>quite-white</title>
    <g id="Homepages-assets" stroke="none" stroke-width="1" fill="none" fill-rule="evenodd" opacity="0.4">
        <g id="Home" transform="translate(-425.000000, -4085.000000)" fill="#FFFFFF" fill-rule="nonzero">
            <g id="our-clients-love-us" transform="translate(160.000000, 3861.000000)">
                <g id="Group-42" transform="translate(1.000000, 192.000000)">
                    <g id="quite-white" transform="translate(264.000000, 32.000000)">
                        <path d="M1.64197944,36.7533038 L5.01235411,15.6780227 L5.01235411,8.73855114 L2.67901857,5.31166911 L6.2222248,0 L20.3086538,6.93944202 L20.3086538,8.73855114 C17.60084,24.1595696 15.8435898,37.5814979 15.0370027,49.0044051 L14.864191,48.9187469 C15.0370027,50.1753307 15.2674845,51.4604016 15.5555371,52.7740581 L14.6913793,58 C13.308687,58 12.4732648,55.6868329 12.1852122,51.0605974 L11.3209549,51.0605974 L11.3209549,54.4874203 L7.86420424,54.4874203 L6.2222248,45.834557 L5.35802719,47.5480177 L4.49382957,47.5480177 C2.47737179,44.5209005 0.979424624,40.4372 0,35.2969164 L1.64197944,36.7533038 Z M22.9876326,17.905433 L26.7036804,16.9630936 L26.7036804,10.0235925 L24.3704244,7.28213417 L27.913561,0.942393543 L42,3.68389621 L42,5.39734708 C37.1604775,25.0448362 35.4033267,39.0093982 36.7284483,47.2910429 L36.5555371,47.2910429 C36.7284483,48.4904556 36.9588307,49.6898683 37.2469827,50.8892809 L36.3827255,56.4579543 C35.0000331,56.8577586 34.164611,54.8015663 33.8765583,50.2895746 L33.0124005,50.5465493 L33.0124005,53.9734708 L29.5555703,54.9158101 L27.135809,52.0886936 L26.2716512,54.1447873 L25.4073939,54.401762 C23.3909262,51.9458641 22.1523099,46.5199216 21.6913462,38.1241316 L22.9876326,17.905433 Z" id="Shape"></path>
                    </g>
                </g>
            </g>
        </g>
    </g>
</svg>