<?xml version="1.0" encoding="utf-8"?>
<!-- Generator: Adobe Illustrator 24.3.0, SVG Export Plug-In . SVG Version: 6.00 Build 0)  -->
<svg version="1.1" id="Layer_1" xmlns="http://www.w3.org/2000/svg" xmlns:xlink="http://www.w3.org/1999/xlink" x="0px" y="0px"
	 viewBox="0 0 1399.4 519.32" style="enable-background:new 0 0 1399.4 519.32;" xml:space="preserve">
<style type="text/css">
	.st0{clip-path:url(#SVGID_2_);}
	.st1{fill:url(#SVGID_3_);}
	.st2{opacity:0.5;}
	.st3{opacity:0.3;}
	.st4{fill:#BBBDBF;}
	.st5{filter:url(#Adobe_OpacityMaskFilter);}
	.st6{fill:url(#SVGID_5_);}
	.st7{opacity:0.5;mask:url(#SVGID_4_);}
	.st8{opacity:0.1;}
	.st9{fill:#8C4515;}
	.st10{opacity:0.05;}
	.st11{opacity:0.2;}
	.st12{opacity:0.8;}
	.st13{opacity:0.6;}
	.st14{filter:url(#Adobe_OpacityMaskFilter_1_);}
	.st15{fill:url(#SVGID_7_);}
	.st16{opacity:0.15;mask:url(#SVGID_6_);fill:#8C4515;}
	.st17{filter:url(#Adobe_OpacityMaskFilter_2_);}
	.st18{fill:url(#SVGID_9_);}
	.st19{mask:url(#SVGID_8_);fill:#EE8700;}
	.st20{filter:url(#Adobe_OpacityMaskFilter_3_);}
	.st21{fill:url(#SVGID_11_);}
	.st22{mask:url(#SVGID_10_);fill:#CC4E32;}
	.st23{filter:url(#Adobe_OpacityMaskFilter_4_);}
	.st24{fill:url(#SVGID_13_);}
	.st25{mask:url(#SVGID_12_);fill:#EE8700;}
	.st26{filter:url(#Adobe_OpacityMaskFilter_5_);}
	.st27{fill:url(#SVGID_15_);}
	.st28{mask:url(#SVGID_14_);fill:#EE8700;}
	.st29{filter:url(#Adobe_OpacityMaskFilter_6_);}
	.st30{fill:url(#SVGID_17_);}
	.st31{mask:url(#SVGID_16_);fill:#EE8700;}
	.st32{filter:url(#Adobe_OpacityMaskFilter_7_);}
	.st33{fill:url(#SVGID_19_);}
	.st34{mask:url(#SVGID_18_);fill:#E34F00;}
	.st35{filter:url(#Adobe_OpacityMaskFilter_8_);}
	.st36{fill:url(#SVGID_21_);}
	.st37{mask:url(#SVGID_20_);fill:#EE8700;}
	.st38{filter:url(#Adobe_OpacityMaskFilter_9_);}
	.st39{fill:url(#SVGID_23_);}
	.st40{mask:url(#SVGID_22_);fill:#CC4E32;}
	.st41{filter:url(#Adobe_OpacityMaskFilter_10_);}
	.st42{fill:url(#SVGID_25_);}
	.st43{opacity:0.75;mask:url(#SVGID_24_);fill:#CC4E32;}
	.st44{filter:url(#Adobe_OpacityMaskFilter_11_);}
	.st45{fill:url(#SVGID_27_);}
	.st46{mask:url(#SVGID_26_);fill:#FFFFFF;}
	.st47{stroke:#000000;stroke-miterlimit:10;}
	.st48{clip-path:url(#SVGID_29_);}
	.st49{fill:url(#SVGID_30_);}
	.st50{filter:url(#Adobe_OpacityMaskFilter_12_);}
	.st51{fill:url(#SVGID_32_);}
	.st52{mask:url(#SVGID_31_);}
	.st53{filter:url(#Adobe_OpacityMaskFilter_13_);}
	.st54{fill:url(#SVGID_34_);}
	.st55{opacity:0.75;mask:url(#SVGID_33_);fill:#8C4515;}
	.st56{filter:url(#Adobe_OpacityMaskFilter_14_);}
	.st57{fill:url(#SVGID_36_);}
	.st58{mask:url(#SVGID_35_);fill:#EE8700;}
	.st59{filter:url(#Adobe_OpacityMaskFilter_15_);}
	.st60{fill:url(#SVGID_38_);}
	.st61{mask:url(#SVGID_37_);fill:#CC4E32;}
	.st62{filter:url(#Adobe_OpacityMaskFilter_16_);}
	.st63{fill:url(#SVGID_40_);}
	.st64{mask:url(#SVGID_39_);fill:#EE8700;}
	.st65{filter:url(#Adobe_OpacityMaskFilter_17_);}
	.st66{fill:url(#SVGID_42_);}
	.st67{mask:url(#SVGID_41_);fill:#EE8700;}
	.st68{filter:url(#Adobe_OpacityMaskFilter_18_);}
	.st69{fill:url(#SVGID_44_);}
	.st70{mask:url(#SVGID_43_);fill:#EE8700;}
	.st71{filter:url(#Adobe_OpacityMaskFilter_19_);}
	.st72{fill:url(#SVGID_46_);}
	.st73{mask:url(#SVGID_45_);fill:#E34F00;}
	.st74{filter:url(#Adobe_OpacityMaskFilter_20_);}
	.st75{fill:url(#SVGID_48_);}
	.st76{mask:url(#SVGID_47_);fill:#EE8700;}
	.st77{filter:url(#Adobe_OpacityMaskFilter_21_);}
	.st78{fill:url(#SVGID_50_);}
	.st79{mask:url(#SVGID_49_);fill:#CC4E32;}
	.st80{filter:url(#Adobe_OpacityMaskFilter_22_);}
	.st81{fill:url(#SVGID_52_);}
	.st82{opacity:0.75;mask:url(#SVGID_51_);fill:#CC4E32;}
	.st83{filter:url(#Adobe_OpacityMaskFilter_23_);}
	.st84{fill:url(#SVGID_54_);}
	.st85{mask:url(#SVGID_53_);fill:#FFFFFF;}
	.st86{fill:#FFFFFF;}
	.st87{fill:#F15A29;}
	.st88{fill:url(#SVGID_55_);}
	.st89{clip-path:url(#SVGID_57_);}
	.st90{opacity:0;fill:#F15A29;}
	.st91{opacity:0.0323;fill:#F15A29;}
	.st92{opacity:0.0645;fill:#F15A29;}
	.st93{opacity:0.0968;fill:#F15A29;}
	.st94{opacity:0.129;fill:#F15A29;}
	.st95{opacity:0.1613;fill:#F15A29;}
	.st96{opacity:0.1935;fill:#F15A29;}
	.st97{opacity:0.2258;fill:#F15A29;}
	.st98{opacity:0.2581;fill:#F15A29;}
	.st99{opacity:0.2903;fill:#F15A29;}
	.st100{opacity:0.3226;fill:#F15A29;}
	.st101{opacity:0.3548;fill:#F15A29;}
	.st102{opacity:0.3871;fill:#F15A29;}
	.st103{opacity:0.4194;fill:#F15A29;}
	.st104{opacity:0.4516;fill:#F15A29;}
	.st105{opacity:0.4839;fill:#F15A29;}
	.st106{opacity:0.5161;fill:#F15A29;}
	.st107{opacity:0.5484;fill:#F15A29;}
	.st108{opacity:0.5806;fill:#F15A29;}
	.st109{opacity:0.6129;fill:#F15A29;}
	.st110{opacity:0.6452;fill:#F15A29;}
	.st111{opacity:0.6774;fill:#F15A29;}
	.st112{opacity:0.7097;fill:#F15A29;}
	.st113{opacity:0.7419;fill:#F15A29;}
	.st114{opacity:0.7742;fill:#F15A29;}
	.st115{opacity:0.8065;fill:#F15A29;}
	.st116{opacity:0.8387;fill:#F15A29;}
	.st117{opacity:0.871;fill:#F15A29;}
	.st118{opacity:0.9032;fill:#F15A29;}
	.st119{opacity:0.9355;fill:#F15A29;}
	.st120{opacity:0.9677;fill:#F15A29;}
	.st121{opacity:0.2;fill:url(#SVGID_58_);}
	.st122{opacity:0.5;fill:url(#SVGID_59_);}
	.st123{opacity:0.1;fill:#EFD7BD;}
	.st124{opacity:0.2;fill:#EFD7BD;}
	.st125{opacity:0.4;fill:#EFD7BD;}
	.st126{opacity:0.4;}
	.st127{fill:#EFD7BD;}
	.st128{opacity:0.15;fill:#C4A395;}
	.st129{opacity:0.1;fill:#C4A395;}
	.st130{fill:#C4A395;}
	.st131{opacity:0;fill:#F2D1A5;}
	.st132{opacity:0.0161;fill:#F2D1A5;}
	.st133{opacity:0.0323;fill:#F2D1A5;}
	.st134{opacity:0.0484;fill:#F2D1A5;}
	.st135{opacity:0.0645;fill:#F2D1A5;}
	.st136{opacity:0.0806;fill:#F2D1A5;}
	.st137{opacity:0.0968;fill:#F2D1A5;}
	.st138{opacity:0.1129;fill:#F2D1A5;}
	.st139{opacity:0.129;fill:#F2D1A5;}
	.st140{opacity:0.1452;fill:#F2D1A5;}
	.st141{opacity:0.1613;fill:#F2D1A5;}
	.st142{opacity:0.1774;fill:#F2D1A5;}
	.st143{opacity:0.1935;fill:#F2D1A5;}
	.st144{opacity:0.2097;fill:#F2D1A5;}
	.st145{opacity:0.2258;fill:#F2D1A5;}
	.st146{opacity:0.2419;fill:#F2D1A5;}
	.st147{opacity:0.2581;fill:#F2D1A5;}
	.st148{opacity:0.2742;fill:#F2D1A5;}
	.st149{opacity:0.2903;fill:#F2D1A5;}
	.st150{opacity:0.3065;fill:#F2D1A5;}
	.st151{opacity:0.3226;fill:#F2D1A5;}
	.st152{opacity:0.3387;fill:#F2D1A5;}
	.st153{opacity:0.3548;fill:#F2D1A5;}
	.st154{opacity:0.371;fill:#F2D1A5;}
	.st155{opacity:0.3871;fill:#F2D1A5;}
	.st156{opacity:0.4032;fill:#F2D1A5;}
	.st157{opacity:0.4194;fill:#F2D1A5;}
	.st158{opacity:0.4355;fill:#F2D1A5;}
	.st159{opacity:0.4516;fill:#F2D1A5;}
	.st160{opacity:0.4677;fill:#F2D1A5;}
	.st161{opacity:0.4839;fill:#F2D1A5;}
	.st162{opacity:0.5;fill:#F2D1A5;}
	.st163{opacity:0.0129;fill:#F2D1A5;}
	.st164{opacity:0.0258;fill:#F2D1A5;}
	.st165{opacity:0.0387;fill:#F2D1A5;}
	.st166{opacity:0.0516;fill:#F2D1A5;}
	.st167{opacity:0.0774;fill:#F2D1A5;}
	.st168{opacity:0.0903;fill:#F2D1A5;}
	.st169{opacity:0.1032;fill:#F2D1A5;}
	.st170{opacity:0.1161;fill:#F2D1A5;}
	.st171{opacity:0.1419;fill:#F2D1A5;}
	.st172{opacity:0.1548;fill:#F2D1A5;}
	.st173{opacity:0.1677;fill:#F2D1A5;}
	.st174{opacity:0.1806;fill:#F2D1A5;}
	.st175{opacity:0.2065;fill:#F2D1A5;}
	.st176{opacity:0.2194;fill:#F2D1A5;}
	.st177{opacity:0.2323;fill:#F2D1A5;}
	.st178{opacity:0.2452;fill:#F2D1A5;}
	.st179{opacity:0.271;fill:#F2D1A5;}
	.st180{opacity:0.2839;fill:#F2D1A5;}
	.st181{opacity:0.2968;fill:#F2D1A5;}
	.st182{opacity:0.3097;fill:#F2D1A5;}
	.st183{opacity:0.3355;fill:#F2D1A5;}
	.st184{opacity:0.3484;fill:#F2D1A5;}
	.st185{opacity:0.3613;fill:#F2D1A5;}
	.st186{opacity:0.3742;fill:#F2D1A5;}
	.st187{opacity:0.4;fill:#F2D1A5;}
	.st188{opacity:9.677419e-03;fill:#F2D1A5;}
	.st189{opacity:0.0194;fill:#F2D1A5;}
	.st190{opacity:0.029;fill:#F2D1A5;}
	.st191{opacity:0.0581;fill:#F2D1A5;}
	.st192{opacity:0.0677;fill:#F2D1A5;}
	.st193{opacity:0.0871;fill:#F2D1A5;}
	.st194{opacity:0.1065;fill:#F2D1A5;}
	.st195{opacity:0.1258;fill:#F2D1A5;}
	.st196{opacity:0.1355;fill:#F2D1A5;}
	.st197{opacity:0.1645;fill:#F2D1A5;}
	.st198{opacity:0.1742;fill:#F2D1A5;}
	.st199{opacity:0.1839;fill:#F2D1A5;}
	.st200{opacity:0.2032;fill:#F2D1A5;}
	.st201{opacity:0.2129;fill:#F2D1A5;}
	.st202{opacity:0.2226;fill:#F2D1A5;}
	.st203{opacity:0.2516;fill:#F2D1A5;}
	.st204{opacity:0.2613;fill:#F2D1A5;}
	.st205{opacity:0.2806;fill:#F2D1A5;}
	.st206{opacity:0.3;fill:#F2D1A5;}
	.st207{opacity:8.064516e-03;fill:#F2D1A5;}
	.st208{opacity:0.0242;fill:#F2D1A5;}
	.st209{opacity:0.0403;fill:#F2D1A5;}
	.st210{opacity:0.0565;fill:#F2D1A5;}
	.st211{opacity:0.0726;fill:#F2D1A5;}
	.st212{opacity:0.0887;fill:#F2D1A5;}
	.st213{opacity:0.1048;fill:#F2D1A5;}
	.st214{opacity:0.121;fill:#F2D1A5;}
	.st215{opacity:0.1371;fill:#F2D1A5;}
	.st216{opacity:0.1532;fill:#F2D1A5;}
	.st217{opacity:0.1694;fill:#F2D1A5;}
	.st218{opacity:0.1855;fill:#F2D1A5;}
	.st219{opacity:0.2016;fill:#F2D1A5;}
	.st220{opacity:0.2177;fill:#F2D1A5;}
	.st221{opacity:0.2339;fill:#F2D1A5;}
	.st222{opacity:0.25;fill:#F2D1A5;}
	.st223{opacity:4.838710e-03;fill:#F2D1A5;}
	.st224{opacity:0.0145;fill:#F2D1A5;}
	.st225{opacity:0.0339;fill:#F2D1A5;}
	.st226{opacity:0.0435;fill:#F2D1A5;}
	.st227{opacity:0.0532;fill:#F2D1A5;}
	.st228{opacity:0.0629;fill:#F2D1A5;}
	.st229{opacity:0.0823;fill:#F2D1A5;}
	.st230{opacity:0.0919;fill:#F2D1A5;}
	.st231{opacity:0.1016;fill:#F2D1A5;}
	.st232{opacity:0.1113;fill:#F2D1A5;}
	.st233{opacity:0.1306;fill:#F2D1A5;}
	.st234{opacity:0.1403;fill:#F2D1A5;}
	.st235{opacity:0.15;fill:#F2D1A5;}
	.st236{opacity:3.225806e-03;fill:#F2D1A5;}
	.st237{opacity:6.451613e-03;fill:#F2D1A5;}
	.st238{opacity:0.0226;fill:#F2D1A5;}
	.st239{opacity:0.0355;fill:#F2D1A5;}
	.st240{opacity:0.0419;fill:#F2D1A5;}
	.st241{opacity:0.0452;fill:#F2D1A5;}
	.st242{opacity:0.0548;fill:#F2D1A5;}
	.st243{opacity:0.0613;fill:#F2D1A5;}
	.st244{opacity:0.071;fill:#F2D1A5;}
	.st245{opacity:0.0742;fill:#F2D1A5;}
	.st246{opacity:0.0839;fill:#F2D1A5;}
	.st247{opacity:0.0935;fill:#F2D1A5;}
	.st248{opacity:0.1;fill:#F2D1A5;}
	.st249{opacity:0.1097;fill:#F2D1A5;}
	.st250{opacity:0.1226;fill:#F2D1A5;}
	.st251{opacity:0.1484;fill:#F2D1A5;}
	.st252{opacity:0.1871;fill:#F2D1A5;}
	.st253{opacity:0.2;fill:#F2D1A5;}
	.st254{opacity:0.4;fill:#EFD3A5;}
	.st255{opacity:0.3;fill:#EFD3A5;}
	.st256{opacity:0.2;fill:#EFD3A5;}
	.st257{opacity:0.8;fill:url(#SVGID_60_);}
	.st258{opacity:0.4;fill:url(#SVGID_61_);}
	.st259{opacity:0.5;fill:url(#SVGID_62_);}
	.st260{opacity:0.8;fill:url(#SVGID_63_);}
	.st261{opacity:0.6;fill:url(#SVGID_64_);}
	.st262{opacity:0.6;fill:url(#SVGID_65_);}
	.st263{opacity:0;fill:#FFFFFF;}
	.st264{opacity:0.0161;fill:#FFFFFF;}
	.st265{opacity:0.0323;fill:#FFFFFF;}
	.st266{opacity:0.0484;fill:#FFFFFF;}
	.st267{opacity:0.0645;fill:#FFFFFF;}
	.st268{opacity:0.0806;fill:#FFFFFF;}
	.st269{opacity:0.0968;fill:#FFFFFF;}
	.st270{opacity:0.1129;fill:#FFFFFF;}
	.st271{opacity:0.129;fill:#FFFFFF;}
	.st272{opacity:0.1452;fill:#FFFFFF;}
	.st273{opacity:0.1613;fill:#FFFFFF;}
	.st274{opacity:0.1774;fill:#FFFFFF;}
	.st275{opacity:0.1935;fill:#FFFFFF;}
	.st276{opacity:0.2097;fill:#FFFFFF;}
	.st277{opacity:0.2258;fill:#FFFFFF;}
	.st278{opacity:0.2419;fill:#FFFFFF;}
	.st279{opacity:0.2581;fill:#FFFFFF;}
	.st280{opacity:0.2742;fill:#FFFFFF;}
	.st281{opacity:0.2903;fill:#FFFFFF;}
	.st282{opacity:0.3065;fill:#FFFFFF;}
	.st283{opacity:0.3226;fill:#FFFFFF;}
	.st284{opacity:0.3387;fill:#FFFFFF;}
	.st285{opacity:0.3548;fill:#FFFFFF;}
	.st286{opacity:0.371;fill:#FFFFFF;}
	.st287{opacity:0.3871;fill:#FFFFFF;}
	.st288{opacity:0.4032;fill:#FFFFFF;}
	.st289{opacity:0.4194;fill:#FFFFFF;}
	.st290{opacity:0.4355;fill:#FFFFFF;}
	.st291{opacity:0.4516;fill:#FFFFFF;}
	.st292{opacity:0.4677;fill:#FFFFFF;}
	.st293{opacity:0.4839;fill:#FFFFFF;}
	.st294{opacity:0.5;fill:#FFFFFF;}
	.st295{opacity:0.5161;fill:#FFFFFF;}
	.st296{opacity:0.5484;fill:#FFFFFF;}
	.st297{opacity:0.5806;fill:#FFFFFF;}
	.st298{opacity:0.6129;fill:#FFFFFF;}
	.st299{opacity:0.6452;fill:#FFFFFF;}
	.st300{opacity:0.6774;fill:#FFFFFF;}
	.st301{opacity:0.7097;fill:#FFFFFF;}
	.st302{opacity:0.7419;fill:#FFFFFF;}
	.st303{opacity:0.7742;fill:#FFFFFF;}
	.st304{opacity:0.8065;fill:#FFFFFF;}
	.st305{opacity:0.8387;fill:#FFFFFF;}
	.st306{opacity:0.871;fill:#FFFFFF;}
	.st307{opacity:0.9032;fill:#FFFFFF;}
	.st308{opacity:0.9355;fill:#FFFFFF;}
	.st309{opacity:0.9677;fill:#FFFFFF;}
	.st310{filter:url(#Adobe_OpacityMaskFilter_24_);}
	.st311{fill:url(#SVGID_67_);}
	.st312{mask:url(#SVGID_66_);}
	.st313{fill:#8C8C8C;}
	.st314{filter:url(#Adobe_OpacityMaskFilter_25_);}
	.st315{fill:url(#SVGID_69_);}
	.st316{mask:url(#SVGID_68_);}
</style>
<defs>
	<filter id="Adobe_OpacityMaskFilter" filterUnits="userSpaceOnUse" x="24.04" y="44.34" width="1362.82" height="437.49">
		<feColorMatrix  type="matrix" values="1 0 0 0 0  0 1 0 0 0  0 0 1 0 0  0 0 0 1 0"/>
	</filter>
</defs>
<mask maskUnits="userSpaceOnUse" x="24.04" y="44.34" width="1362.82" height="437.49" id="SVGID_2_">
	<g class="st5">
		<linearGradient id="SVGID_3_" gradientUnits="userSpaceOnUse" x1="725.0092" y1="18.4169" x2="725.0092" y2="419.2859">
			<stop  offset="0.6374" style="stop-color:#FFFFFF"/>
			<stop  offset="0.6726" style="stop-color:#F9F9F9"/>
			<stop  offset="0.7176" style="stop-color:#EAEAEA"/>
			<stop  offset="0.7679" style="stop-color:#CFCFCF"/>
			<stop  offset="0.8221" style="stop-color:#ABABAB"/>
			<stop  offset="0.8794" style="stop-color:#7C7C7C"/>
			<stop  offset="0.9393" style="stop-color:#424242"/>
			<stop  offset="1" style="stop-color:#000000"/>
		</linearGradient>
		<rect x="40.14" y="18.42" class="st1" width="1369.73" height="400.87"/>
	</g>
</mask>
<g style="mask:url(#SVGID_2_);">
	<g class="st8">
		<path d="M904.72,287.78c-1.69-2.2-31.23-35.88-31.23-35.88l62.47,9.85L904.72,287.78z"/>
	</g>
	<g class="st10">
		<polygon points="993.97,291.07 1027.19,236.88 1048.25,276.17 		"/>
	</g>
	<g class="st10">
		<polygon points="1078.54,203.25 1147.04,246.99 1131.72,208.31 		"/>
	</g>
	<g class="st11">
		<polygon points="1225.95,226.06 1273.84,253.92 1243.46,207.06 		"/>
	</g>
	<g class="st8">
		<polygon points="1188.76,351.07 1232.96,389.15 1284.38,327 		"/>
	</g>
	<g class="st11">
		<polygon points="779.73,318.77 802.74,289.75 836.35,317.46 		"/>
	</g>
	<g class="st11">
		<polygon points="925.9,349.18 942.68,330.78 968.89,361.89 		"/>
	</g>
	<g class="st8">
		<polygon points="1072.55,315.32 1109.69,308.37 1048.25,276.17 		"/>
	</g>
	<g class="st8">
		<polygon points="1167.81,206.03 1154.3,173.11 1209.14,154.12 		"/>
	</g>
	<g>
		<path d="M971.88,361.34c-0.31-1.65-1.9-2.74-3.54-2.43c-1.65,0.31-2.74,1.9-2.43,3.54c0.31,1.65,1.9,2.74,3.54,2.43
			C971.1,364.57,972.19,362.98,971.88,361.34z"/>
	</g>
	<g>
		<path d="M910.69,286.66c-0.62-3.3-3.79-5.47-7.09-4.86c-3.3,0.62-5.47,3.79-4.86,7.09c0.62,3.3,3.79,5.47,7.09,4.86
			S911.31,289.96,910.69,286.66z"/>
	</g>
	<g>
		<ellipse transform="matrix(0.9498 -0.3128 0.3128 0.9498 3.776 369.7524)" cx="1154.3" cy="173.11" rx="6.08" ry="6.08"/>
	</g>
	<g>
		<path d="M996.96,290.51c-0.31-1.65-1.9-2.74-3.54-2.43c-1.65,0.31-2.74,1.9-2.43,3.54s1.9,2.74,3.54,2.43
			C996.18,293.75,997.26,292.16,996.96,290.51z"/>
	</g>
	<g>
		<path d="M1191.74,350.51c-0.31-1.65-1.9-2.74-3.54-2.43s-2.74,1.9-2.43,3.54c0.31,1.65,1.9,2.74,3.54,2.43
			C1190.96,353.74,1192.05,352.16,1191.74,350.51z"/>
	</g>
	<g>
		<circle cx="1147.04" cy="246.99" r="3.04"/>
	</g>
	<g>
		<path d="M1289.16,326.11c-0.49-2.64-3.03-4.38-5.67-3.88c-2.64,0.49-4.38,3.03-3.88,5.67c0.49,2.64,3.03,4.38,5.67,3.88
			C1287.92,331.29,1289.65,328.75,1289.16,326.11z"/>
	</g>
	<g>
		<circle cx="1027.19" cy="236.88" r="1.82"/>
	</g>
	<g>
		<path d="M1170.8,205.47c-0.31-1.65-1.9-2.74-3.54-2.43c-1.65,0.31-2.74,1.9-2.43,3.54c0.31,1.65,1.9,2.74,3.54,2.43
			C1170.02,208.7,1171.11,207.12,1170.8,205.47z"/>
	</g>
	<g>
		<path d="M1048.13,273.13c-1.68,0.06-2.98,1.48-2.92,3.15c0.06,1.68,1.48,2.98,3.15,2.92c1.68-0.06,2.98-1.48,2.92-3.15
			C1051.22,274.37,1049.81,273.07,1048.13,273.13z"/>
	</g>
	<g>
		<path d="M1019.01,321.05c-2.35,0.09-4.18,2.07-4.09,4.41c0.09,2.35,2.07,4.18,4.41,4.09c2.35-0.09,4.18-2.07,4.09-4.41
			S1021.36,320.96,1019.01,321.05z"/>
	</g>
	<g>
		<path d="M876.92,341.24c-1.01,0.04-1.79,0.89-1.75,1.89c0.04,1.01,0.89,1.79,1.89,1.75c1.01-0.04,1.79-0.89,1.75-1.89
			C878.77,341.99,877.92,341.21,876.92,341.24z"/>
	</g>
	<g>
		<path d="M873.37,248.86c-1.68,0.06-2.98,1.48-2.92,3.15c0.06,1.68,1.48,2.98,3.15,2.92c1.68-0.06,2.98-1.48,2.92-3.15
			C876.46,250.1,875.04,248.79,873.37,248.86z"/>
	</g>
	<g>
		<path d="M684.27,370.23c-1.68,0.06-2.98,1.48-2.92,3.15s1.48,2.98,3.15,2.92c1.68-0.06,2.98-1.48,2.92-3.15
			C687.36,371.48,685.95,370.17,684.27,370.23z"/>
	</g>
	<g>
		<path d="M1105.79,363.49c-0.31-1.65-1.9-2.74-3.54-2.43c-1.65,0.31-2.74,1.9-2.43,3.54s1.9,2.74,3.54,2.43
			C1105.01,366.73,1106.09,365.14,1105.79,363.49z"/>
	</g>
	<g>
		<path d="M1281.5,423.96c-0.31-1.65-1.9-2.74-3.54-2.43c-1.65,0.31-2.74,1.9-2.43,3.54s1.9,2.74,3.54,2.43
			C1280.72,427.2,1281.81,425.61,1281.5,423.96z"/>
	</g>
	<g>
		<circle cx="1154.44" cy="303.09" r="1.82"/>
	</g>
	<g>
		<path d="M1228.94,225.5c-0.31-1.65-1.9-2.74-3.54-2.43c-1.65,0.31-2.74,1.9-2.43,3.54c0.31,1.65,1.9,2.74,3.54,2.43
			C1228.16,228.74,1229.24,227.15,1228.94,225.5z"/>
	</g>
	<g>
		<path d="M805.72,289.19c-0.31-1.65-1.9-2.74-3.54-2.43c-1.65,0.31-2.74,1.9-2.43,3.54c0.31,1.65,1.9,2.74,3.54,2.43
			C804.95,292.42,806.03,290.84,805.72,289.19z"/>
	</g>
	<g>
		<path d="M724.03,295.2c-0.31-1.65-1.9-2.74-3.54-2.43c-1.65,0.31-2.74,1.9-2.43,3.54s1.9,2.74,3.54,2.43
			C723.25,298.43,724.33,296.84,724.03,295.2z"/>
	</g>
	<g>
		<path d="M753.9,335.96c-0.19-0.99-1.14-1.64-2.13-1.46s-1.64,1.14-1.46,2.13s1.14,1.64,2.13,1.46S754.09,336.95,753.9,335.96z"/>
	</g>
	<g>
		<path d="M782.72,318.21c-0.31-1.65-1.9-2.74-3.54-2.43c-1.65,0.31-2.74,1.9-2.43,3.54c0.31,1.65,1.9,2.74,3.54,2.43
			C781.94,321.45,783.03,319.86,782.72,318.21z"/>
	</g>
	<g>
		<path d="M817.67,362.98c-0.43-2.31-2.65-3.83-4.96-3.4c-2.31,0.43-3.83,2.65-3.4,4.96s2.65,3.83,4.96,3.4
			C816.58,367.51,818.1,365.29,817.67,362.98z"/>
	</g>
	<g>
		<path d="M839.34,316.9c-0.31-1.65-1.9-2.74-3.54-2.43c-1.65,0.31-2.74,1.9-2.43,3.54c0.31,1.65,1.9,2.74,3.54,2.43
			C838.56,320.13,839.65,318.55,839.34,316.9z"/>
	</g>
	<g>
		<path d="M938.94,261.19c-0.31-1.65-1.9-2.74-3.54-2.43c-1.65,0.31-2.74,1.9-2.43,3.54c0.31,1.65,1.9,2.74,3.54,2.43
			C938.16,264.42,939.24,262.84,938.94,261.19z"/>
	</g>
	<g>
		<path d="M945.66,330.22c-0.31-1.65-1.9-2.74-3.54-2.43c-1.65,0.31-2.74,1.9-2.43,3.54c0.31,1.65,1.9,2.74,3.54,2.43
			C944.89,333.46,945.97,331.87,945.66,330.22z"/>
	</g>
	<g>
		<circle cx="1057.49" cy="366.34" r="3.04"/>
	</g>
	<g>
		<path d="M1176.14,425.74c-0.19-0.99-1.14-1.64-2.13-1.46c-0.99,0.19-1.64,1.14-1.46,2.13s1.14,1.64,2.13,1.46
			C1175.68,427.68,1176.33,426.73,1176.14,425.74z"/>
	</g>
	<g>
		<path d="M1013.18,389.22c-0.19-0.99-1.14-1.64-2.13-1.46s-1.64,1.14-1.46,2.13c0.18,0.99,1.14,1.64,2.13,1.46
			S1013.37,390.21,1013.18,389.22z"/>
	</g>
	<g>
		<circle cx="902.01" cy="363.09" r="1.82"/>
	</g>
	<g>
		<circle cx="1161.83" cy="152.33" r="1.82"/>
	</g>
	<g>
		<circle cx="942.63" cy="216.74" r="1.82"/>
	</g>
	<g>
		<path d="M816.69,260.87c-0.18-0.99-1.14-1.64-2.13-1.46s-1.64,1.14-1.46,2.13c0.18,0.99,1.14,1.64,2.13,1.46
			C816.23,262.81,816.88,261.86,816.69,260.87z"/>
	</g>
	<g>
		<path d="M715.61,256.17c-0.19-0.99-1.14-1.64-2.13-1.46c-0.99,0.19-1.64,1.14-1.46,2.13c0.18,0.99,1.14,1.64,2.13,1.46
			C715.14,258.11,715.79,257.16,715.61,256.17z"/>
	</g>
	<g>
		<path d="M1007.5,139.7c-0.18-0.99-1.14-1.64-2.13-1.46c-0.99,0.18-1.64,1.14-1.46,2.13c0.19,0.99,1.14,1.64,2.13,1.46
			C1007.03,141.64,1007.69,140.68,1007.5,139.7z"/>
	</g>
	<g>
		<path d="M1278.67,125.55c-0.19-0.99-1.14-1.64-2.13-1.46c-0.99,0.19-1.64,1.14-1.46,2.13c0.18,0.99,1.14,1.64,2.13,1.46
			C1278.2,127.49,1278.86,126.54,1278.67,125.55z"/>
	</g>
	<g>
		<path d="M1085.59,389.83c-0.19-0.99-1.14-1.64-2.13-1.46c-0.99,0.19-1.64,1.14-1.46,2.13c0.18,0.99,1.14,1.64,2.13,1.46
			C1085.12,391.77,1085.77,390.82,1085.59,389.83z"/>
	</g>
	<g>
		<path d="M1235.39,415.32c-0.18-0.99-1.14-1.64-2.13-1.46c-0.99,0.19-1.64,1.14-1.46,2.13c0.19,0.99,1.14,1.64,2.13,1.46
			C1234.92,417.26,1235.58,416.31,1235.39,415.32z"/>
	</g>
	<g>
		<path d="M1146.99,475.42c-0.12-0.66-0.76-1.09-1.42-0.97c-0.66,0.12-1.09,0.76-0.97,1.42c0.12,0.66,0.76,1.09,1.42,0.97
			C1146.68,476.71,1147.11,476.08,1146.99,475.42z"/>
	</g>
	<g>
		<path d="M1320.4,437.74c-0.12-0.66-0.76-1.09-1.42-0.97c-0.66,0.12-1.09,0.76-0.97,1.42c0.12,0.66,0.76,1.09,1.42,0.97
			C1320.09,439.03,1320.52,438.4,1320.4,437.74z"/>
	</g>
	<g>
		<path d="M1256.37,169.34c-0.12-0.66-0.76-1.09-1.42-0.97c-0.66,0.12-1.09,0.76-0.97,1.42c0.12,0.66,0.76,1.09,1.42,0.97
			C1256.06,170.64,1256.49,170,1256.37,169.34z"/>
	</g>
	<g>
		<path d="M1225,325.85c-0.12-0.66-0.76-1.09-1.42-0.97c-0.66,0.12-1.09,0.76-0.97,1.42c0.12,0.66,0.76,1.09,1.42,0.97
			C1224.69,327.14,1225.13,326.51,1225,325.85z"/>
	</g>
	<g>
		<path d="M838.85,363.52c-0.12-0.66-0.76-1.09-1.42-0.97c-0.66,0.12-1.09,0.76-0.97,1.42c0.12,0.66,0.76,1.09,1.42,0.97
			C838.54,364.81,838.98,364.17,838.85,363.52z"/>
	</g>
	<g>
		<path d="M1022.22,309.15c-0.12-0.66-0.76-1.09-1.42-0.97c-0.66,0.12-1.09,0.76-0.97,1.42c0.12,0.66,0.76,1.09,1.42,0.97
			C1021.91,310.45,1022.34,309.81,1022.22,309.15z"/>
	</g>
	<g>
		<path d="M1218.38,443.46c-0.06-0.33-0.38-0.55-0.71-0.49s-0.55,0.38-0.49,0.71c0.06,0.33,0.38,0.55,0.71,0.49
			C1218.23,444.11,1218.45,443.79,1218.38,443.46z"/>
	</g>
	<g>
		<path d="M1108.07,396.27c-0.06-0.33-0.38-0.55-0.71-0.49c-0.33,0.06-0.55,0.38-0.49,0.71c0.06,0.33,0.38,0.55,0.71,0.49
			C1107.91,396.92,1108.13,396.6,1108.07,396.27z"/>
	</g>
	<g>
		<path d="M953.46,399.06c-0.06-0.33-0.38-0.55-0.71-0.49c-0.33,0.06-0.55,0.38-0.49,0.71c0.06,0.33,0.38,0.55,0.71,0.49
			C953.31,399.71,953.52,399.39,953.46,399.06z"/>
	</g>
	<g>
		<path d="M778.64,412.72c-0.06-0.33-0.38-0.55-0.71-0.49c-0.33,0.06-0.55,0.38-0.49,0.71c0.06,0.33,0.38,0.55,0.71,0.49
			S778.7,413.05,778.64,412.72z"/>
	</g>
	<g>
		<path d="M780.62,460.14c-0.06-0.33-0.38-0.55-0.71-0.49c-0.33,0.06-0.55,0.38-0.49,0.71c0.06,0.33,0.38,0.55,0.71,0.49
			C780.46,460.79,780.68,460.47,780.62,460.14z"/>
	</g>
	<g>
		<path d="M808.98,420.09c-0.06-0.33-0.38-0.55-0.71-0.49c-0.33,0.06-0.55,0.38-0.49,0.71c0.06,0.33,0.38,0.55,0.71,0.49
			C808.82,420.74,809.04,420.42,808.98,420.09z"/>
	</g>
	<g>
		<path d="M1034.2,414.99c-0.06-0.33-0.38-0.55-0.71-0.49c-0.33,0.06-0.55,0.38-0.49,0.71c0.06,0.33,0.38,0.55,0.71,0.49
			C1034.04,415.64,1034.26,415.32,1034.2,414.99z"/>
	</g>
	<g>
		<path d="M508.45,217.93c-0.06-0.33-0.38-0.55-0.71-0.49c-0.33,0.06-0.55,0.38-0.49,0.71c0.06,0.33,0.38,0.55,0.71,0.49
			C508.3,218.58,508.51,218.26,508.45,217.93z"/>
	</g>
	<g>
		<path d="M1150.84,431.62c-0.06-0.33-0.38-0.55-0.71-0.49c-0.33,0.06-0.55,0.38-0.49,0.71c0.06,0.33,0.38,0.55,0.71,0.49
			C1150.68,432.26,1150.9,431.95,1150.84,431.62z"/>
	</g>
	<g>
		<path d="M1113.02,430.06c-0.06-0.33-0.38-0.55-0.71-0.49c-0.33,0.06-0.55,0.38-0.49,0.71c0.06,0.33,0.38,0.55,0.71,0.49
			C1112.86,430.7,1113.08,430.39,1113.02,430.06z"/>
	</g>
	<g>
		<path d="M1281.9,481.12c-0.06-0.33-0.38-0.55-0.71-0.49c-0.33,0.06-0.55,0.38-0.49,0.71c0.06,0.33,0.38,0.55,0.71,0.49
			C1281.74,481.77,1281.96,481.45,1281.9,481.12z"/>
	</g>
	<g>
		<path d="M1264.56,453.91c-0.06-0.33-0.38-0.55-0.71-0.49c-0.33,0.06-0.55,0.38-0.49,0.71c0.06,0.33,0.38,0.55,0.71,0.49
			C1264.41,454.56,1264.62,454.24,1264.56,453.91z"/>
	</g>
	<g>
		<path d="M1094.56,163.71c-0.06-0.33-0.38-0.55-0.71-0.49c-0.33,0.06-0.55,0.38-0.49,0.71c0.06,0.33,0.38,0.55,0.71,0.49
			C1094.4,164.36,1094.62,164.04,1094.56,163.71z"/>
	</g>
	<g>
		<path d="M1047.22,147.48c-0.06-0.33-0.38-0.55-0.71-0.49c-0.33,0.06-0.55,0.38-0.49,0.71c0.06,0.33,0.38,0.55,0.71,0.49
			C1047.06,148.12,1047.28,147.81,1047.22,147.48z"/>
	</g>
	<g>
		<path d="M1272.65,73.96c-0.06-0.33-0.38-0.55-0.71-0.49s-0.55,0.38-0.49,0.71c0.06,0.33,0.38,0.55,0.71,0.49
			C1272.5,74.61,1272.71,74.29,1272.65,73.96z"/>
	</g>
	<g>
		<path d="M867.42,404.31c-0.06-0.33-0.38-0.55-0.71-0.49c-0.33,0.06-0.55,0.38-0.49,0.71c0.06,0.33,0.38,0.55,0.71,0.49
			C867.27,404.95,867.48,404.64,867.42,404.31z"/>
	</g>
	<g>
		<path d="M1113.43,118.28c-0.06-0.33-0.38-0.55-0.71-0.49c-0.33,0.06-0.55,0.38-0.49,0.71c0.06,0.33,0.38,0.55,0.71,0.49
			S1113.49,118.61,1113.43,118.28z"/>
	</g>
	<g>
		<path d="M1004.51,195.49c-0.06-0.33-0.38-0.55-0.71-0.49c-0.33,0.06-0.55,0.38-0.49,0.71c0.06,0.33,0.38,0.55,0.71,0.49
			C1004.35,196.14,1004.57,195.82,1004.51,195.49z"/>
	</g>
	<g>
		<path d="M983.64,149.82c-0.06-0.33-0.38-0.55-0.71-0.49c-0.33,0.06-0.55,0.38-0.49,0.71c0.06,0.33,0.38,0.55,0.71,0.49
			C983.48,150.47,983.7,150.15,983.64,149.82z"/>
	</g>
	<g>
		<path d="M1165.23,106.35c-0.06-0.33-0.38-0.55-0.71-0.49c-0.33,0.06-0.55,0.38-0.49,0.71c0.06,0.33,0.38,0.55,0.71,0.49
			S1165.29,106.68,1165.23,106.35z"/>
	</g>
	<g>
		<path d="M854.79,252.31c-0.06-0.33-0.38-0.55-0.71-0.49c-0.33,0.06-0.55,0.38-0.49,0.71c0.06,0.33,0.38,0.55,0.71,0.49
			C854.64,252.96,854.86,252.64,854.79,252.31z"/>
	</g>
	<g>
		<path d="M882.42,219.79c-0.06-0.33-0.38-0.55-0.71-0.49c-0.33,0.06-0.55,0.38-0.49,0.71c0.06,0.33,0.38,0.55,0.71,0.49
			C882.26,220.43,882.48,220.11,882.42,219.79z"/>
	</g>
	<g>
		<path d="M765.04,281.66c0.29-0.16,0.4-0.53,0.23-0.83c-0.16-0.29-0.53-0.4-0.83-0.23c-0.29,0.16-0.4,0.53-0.23,0.83
			S764.74,281.83,765.04,281.66z"/>
	</g>
	<g>
		<path d="M777.68,259.1c0.29-0.16,0.4-0.53,0.23-0.83c-0.16-0.29-0.53-0.4-0.83-0.23c-0.29,0.16-0.4,0.53-0.23,0.83
			C777.01,259.16,777.38,259.27,777.68,259.1z"/>
	</g>
	<g>
		<path d="M740.66,368c0.29-0.16,0.4-0.53,0.23-0.83c-0.16-0.29-0.53-0.4-0.83-0.23c-0.29,0.16-0.4,0.53-0.23,0.83
			C740,368.06,740.37,368.17,740.66,368z"/>
	</g>
	<g>
		<path d="M677.14,321.69c0.29-0.16,0.4-0.53,0.23-0.83c-0.16-0.29-0.53-0.4-0.83-0.23c-0.29,0.16-0.4,0.53-0.23,0.83
			C676.47,321.75,676.84,321.86,677.14,321.69z"/>
	</g>
	<g>
		<path d="M1236.27,133.78c0.29-0.16,0.4-0.53,0.23-0.83s-0.53-0.4-0.83-0.23c-0.29,0.16-0.4,0.53-0.23,0.83
			C1235.61,133.84,1235.98,133.94,1236.27,133.78z"/>
	</g>
	<g>
		<path d="M980.21,393.93c-0.12-0.66-0.76-1.09-1.42-0.97c-0.66,0.12-1.09,0.76-0.97,1.42s0.76,1.09,1.42,0.97
			C979.9,395.22,980.33,394.59,980.21,393.93z"/>
	</g>
	<g>
		<path d="M1157.46,378.37c-0.19-0.99-1.14-1.64-2.13-1.46c-0.99,0.19-1.64,1.14-1.46,2.13s1.14,1.64,2.13,1.46
			S1157.64,379.36,1157.46,378.37z"/>
	</g>
	<g>
		<path d="M805.67,385.23c-0.19-0.99-1.14-1.64-2.13-1.46c-0.99,0.19-1.64,1.14-1.46,2.13c0.19,0.99,1.14,1.64,2.13,1.46
			C805.2,387.17,805.86,386.22,805.67,385.23z"/>
	</g>
	<g>
		<path d="M927.69,348.85c-0.18-0.99-1.14-1.64-2.13-1.46s-1.64,1.14-1.46,2.13c0.19,0.99,1.14,1.64,2.13,1.46
			C927.22,350.79,927.87,349.83,927.69,348.85z"/>
	</g>
	<g>
		<circle cx="757.02" cy="400.27" r="1.82"/>
	</g>
	<g>
		<path d="M974.06,226.04c-1.01,0.04-1.79,0.89-1.75,1.89c0.04,1.01,0.89,1.79,1.89,1.75c1.01-0.04,1.79-0.89,1.75-1.89
			C975.92,226.79,975.07,226.01,974.06,226.04z"/>
	</g>
	<g>
		<ellipse transform="matrix(0.6794 -0.7337 0.7337 0.6794 209.947 897.1638)" cx="1131.72" cy="208.31" rx="1.82" ry="1.82"/>
	</g>
	<g>
		<ellipse transform="matrix(0.6794 -0.7337 0.7337 0.6794 121.5273 1106.7351)" cx="1327.35" cy="414.29" rx="1.82" ry="1.82"/>
	</g>
	<g>
		<path d="M1318.52,361.32c-0.31-1.65-1.9-2.74-3.54-2.43c-1.65,0.31-2.74,1.9-2.43,3.54c0.31,1.65,1.9,2.74,3.54,2.43
			C1317.74,364.56,1318.82,362.97,1318.52,361.32z"/>
	</g>
	<g>
		<path d="M1276.83,253.36c-0.31-1.65-1.9-2.74-3.54-2.43c-1.65,0.31-2.74,1.9-2.43,3.54s1.9,2.74,3.54,2.43
			C1276.05,256.6,1277.13,255.01,1276.83,253.36z"/>
	</g>
	<g>
		<path d="M1081.53,202.69c-0.31-1.65-1.9-2.74-3.54-2.43c-1.65,0.31-2.74,1.9-2.43,3.54c0.31,1.65,1.9,2.74,3.54,2.43
			C1080.75,205.93,1081.84,204.34,1081.53,202.69z"/>
	</g>
	<g>
		<path d="M1112.68,307.81c-0.31-1.65-1.9-2.74-3.54-2.43c-1.65,0.31-2.74,1.9-2.43,3.54c0.31,1.65,1.9,2.74,3.54,2.43
			C1111.9,311.05,1112.99,309.46,1112.68,307.81z"/>
	</g>
	<g>
		<circle cx="1033.33" cy="188.28" r="3.04"/>
	</g>
	<g>
		<path d="M1212.13,153.56c-0.31-1.65-1.9-2.74-3.54-2.43c-1.65,0.31-2.74,1.9-2.43,3.54c0.31,1.65,1.9,2.74,3.54,2.43
			C1211.35,156.79,1212.43,155.21,1212.13,153.56z"/>
	</g>
	<g>
		<path d="M1235.95,388.6c-0.31-1.65-1.9-2.74-3.54-2.43c-1.65,0.31-2.74,1.9-2.43,3.54c0.31,1.65,1.9,2.74,3.54,2.43
			C1235.17,391.83,1236.26,390.24,1235.95,388.6z"/>
	</g>
	<g>
		<path d="M1234.74,273.07c-0.31-1.65-1.9-2.74-3.54-2.43c-1.65,0.31-2.74,1.9-2.43,3.54c0.31,1.65,1.9,2.74,3.54,2.43
			C1233.96,276.31,1235.05,274.72,1234.74,273.07z"/>
	</g>
	<g class="st3">
		<path d="M1102.25,364.02l47.77-33.49l-40.38-21.81l-45.47,8.5l-6.58,51.01l-11.16-47.69l-27.11,5.07l-50.6,36.83l-13.47-40.96
			l-12.61,9.76l-37.82-43.12l-28.68,23.89l1.21,31.49l-30.01-7.5l-33.79,28.15l-61.42-27.48l-68.48,37.39l37.09-78.45l0.08-0.18
			l82.66-6.08l-23.16,29.22l66.84,16.7l28.28-23.56l-2.33-60.76l31.78,36.23l31.23-26.01l19.47,59.19l38.13-29.52l33.62-54.83
			l19.6,83.75l16.63-3.11l6.85-53.1l-22.87,13.41l31.65-76.18l-7.94,61.49l96.51-56.62l58.77,20.25l-55.57,60.04l12.69,20.99
			l47.9-33.58l0.38-0.27l26.32,84.95l25.76-31.14l-10.51-72.86l-65.55-101.11l178.58,119.13l0.3,0.2l-71.03,89.79l-37.4,63.29
			l-20.43-65.91l-25.07,30.3l-49.46-81.83l-32.16,22.55l37.83,20.43l-14.56,75.83L1102.25,364.02z M1150.68,330.89l-47.34,33.19
			l70.78,61.36l14.25-74.19L1150.68,330.89z M1210.31,155.3l63.81,98.43l0.04,0.06l10.55,73.16l0.02,0.15l-26.23,31.71l20.11,64.88
			l36.65-62.02l70.61-89.25L1210.31,155.3z M1231.57,274.18l-47.55,33.34l48.99,81.06l24.75-29.91L1231.57,274.18z M813.43,363.37
			l33.09-27.56l-67.38-16.83L802,290.14l-80.73,5.94l-36.12,76.4L751.95,336l0.15-0.08L813.43,363.37z M1047.09,320.42l10.31,44.03
			l6.08-47.09L1047.09,320.42z M1027.05,237.76l-32.79,53.49l-0.03,0.05l-38.42,29.74l13.26,40.31l49.97-36.37l27.23-5.09
			L1027.05,237.76z M847.98,335.47l28.66,7.16l-1.16-30.07L847.98,335.47z M935.78,262.32l-30.45,25.37l37.39,42.63l12.3-9.52
			L935.78,262.32z M1170.5,286.46l-16.27,17.57l-7.74-58.6l24.12,39.91l54.73-59.14l-57.5-19.81l-96.7,56.73l-6.89,53.4l45.37-8.48
			l0.12-0.02l40.89,22.08l32.48-22.77L1170.5,286.46z M873.86,252.83l2.24,58.33l28.27-23.55L873.86,252.83z M1147.59,248.55
			l7.13,53.97l15.42-16.66L1147.59,248.55z M1077.88,205.71l-28.93,69.65l21.58-12.66L1077.88,205.71z"/>
	</g>
	<g>
		<path d="M720.04,295l60.44,23.7l-28.45,18.05L720.04,295z M722.05,296.51l30.14,39.34l26.8-17.01L722.05,296.51z"/>
	</g>
	<g>
		<rect x="779.73" y="317.78" transform="matrix(0.9997 -0.0232 0.0232 0.9997 -7.1743 18.8636)" width="56.63" height="0.68"/>
	</g>
	<g class="st12">
		<polygon points="757.06,400.64 757.21,400.55 813.63,364.07 877.78,343.16 836.8,317.34 873.78,252.06 873.19,251.73 
			835.9,317.57 836.17,317.74 876.2,342.97 813.34,363.45 813.31,363.48 756.98,399.89 684.51,372.95 684.27,373.59 		"/>
	</g>
	<g>
		<rect x="754.23" y="336.21" transform="matrix(0.9971 -0.0761 0.0761 0.9971 -25.8493 58.5182)" width="0.68" height="64.16"/>
	</g>
	<g class="st13">
		<path d="M779.46,318.97l0.54-0.41l33.42,44.55l22.5-45.57l-33.79-27.86l71.29-38.15l62.58,9.87l0.05,0.01l32.56,16.46l58.48-41.34
			l120.52,10.17l-37.6,61.78l-7,56.56l-54.92-88.48l-53.56,14.71l24.89,33.8l38.88,41.65l-89.18-4.48l-0.11,0.32l-0.31-0.37
			l-42.84-12.67L877,343.41l-1.47,0.27l92.46-65.36l-32.15-16.25l-62.3-9.83l-70.2,37.56l33.43,27.56l-23.22,47.04L779.46,318.97z
			 M969.36,361.58l87.31,4.38l-37.77-40.47l-24.83-33.71L969.36,361.58z M879.18,343l46.82,5.86l41.92,12.39l-25.36-30.1L879.18,343
			z M968.67,278.66l-90.23,63.79l64.17-12l0.19-0.04l25.96,30.81l24.78-69.99L968.67,278.66z M1027.28,237.23l-57.99,40.99
			l24.71,12.49l54.15-14.87l0.24-0.07l54.18,87.28l6.78-54.73l0.01-0.07l37.1-60.97L1027.28,237.23z"/>
	</g>
	<g class="st13">
		<polygon points="1174.53,426.36 1233.53,389.2 1188.86,350.71 1188.7,350.73 1102.75,363.72 1057.4,366.01 1057.34,366.04 
			1011.41,389.16 969.08,361.61 968.71,362.18 1011.37,389.94 1011.54,389.85 1057.58,366.67 1102.82,364.39 1188.65,351.42 
			1232.4,389.11 1174.17,425.79 		"/>
	</g>
	<g>
		<rect x="921.84" y="339.64" transform="matrix(0.6739 -0.7389 0.7389 0.6739 53.5105 801.1876)" width="24.9" height="0.68"/>
	</g>
	<g>
		<path d="M973.91,227.61l0.12-0.11l54.72,9.3l-94.11,25.64L973.91,227.61z M974.24,228.23l-36.98,32.82l88.37-24.08L974.24,228.23z
			"/>
	</g>
	<g>
		<path d="M1327.01,414.3l0.67-0.03c-0.07-1.83-11.35-50.4-11.83-52.47l-0.66,0.15C1319.26,379.44,1326.96,412.89,1327.01,414.3z"/>
	</g>
	<g>
		<polygon points="1146.73,247.12 1147.36,246.87 1132.2,208.62 1168.3,206.33 1154.61,172.98 1153.99,173.24 1167.32,205.72 
			1131.23,208 		"/>
	</g>
	<g>
		<path d="M1225.62,226.12l0.66-0.12c-0.55-2.96-16.15-69.14-16.81-71.96l-0.66,0.15C1208.97,154.88,1225.07,223.18,1225.62,226.12z
			"/>
	</g>
	<g class="st12">
		<polygon points="1188.48,351.26 1189.03,350.87 1154.64,302.92 1154.44,302.95 1109.76,308.02 1048.5,275.92 1027.54,236.82 
			1033.61,188.73 1078.51,203.59 1131.89,208.67 1154.52,173.39 1208.15,154.82 1167.51,205.87 1146.4,247.51 1225.66,226.48 
			1231.44,273.79 1284.14,327.24 1284.62,326.77 1232.08,273.48 1226.24,225.63 1147.69,246.48 1168.1,206.21 1210.13,153.42 
			1154.08,172.83 1131.55,207.96 1078.61,202.92 1033.04,187.83 1026.84,236.95 1048,276.42 1048.09,276.47 1109.63,308.72 
			1154.32,303.64 		"/>
	</g>
	<g>
		<polygon points="1048.35,276.49 1147.85,247.11 1078.54,202.85 1027,236.6 1027.37,237.17 1078.54,203.65 1146.24,246.88 
			1048.15,275.84 		"/>
	</g>
	<g class="st3">
		<polygon points="873.56,252.22 974.27,228.18 1033.45,188.61 1151.72,173.77 1078.42,202.94 1078.67,203.56 1156.88,172.44 
			1033.2,187.96 1033.14,188 974,227.55 873.41,251.56 		"/>
	</g>
	<g>
		<polygon points="1278.43,424.88 1327.58,414.58 1362.8,347.3 1362.2,346.99 1327.13,413.99 1278.6,424.16 1233.67,389.28 
			1316.12,362.04 1284.5,326.62 1284.3,326.68 1189.43,350.55 1232,273.89 1274.57,253.95 1226.48,225.98 1307.01,138.65 
			1306.52,138.19 1225.42,226.14 1273.11,253.89 1231.51,273.37 1231.46,273.47 1188.08,351.58 1188.84,351.39 1284.27,327.38 
			1314.94,361.72 1232.26,389.03 		"/>
	</g>
	<g>
		<path d="M1146.72,247.13l86.07,26.46l-78.59,30.15L1146.72,247.13z M1147.53,248.09l7.23,54.72l75.96-29.14L1147.53,248.09z"/>
	</g>
	<g>
		<polygon points="1284.57,327.28 1349.27,283.67 1274.26,253.73 1303.64,166.79 1303,166.58 1273.42,254.12 1347.83,283.82 
			1284.19,326.72 		"/>
	</g>
	<g class="st2">
		
			<rect x="1256.15" y="108.42" transform="matrix(0.0352 -0.9994 0.9994 0.0352 1056.6149 1406.0319)" width="0.68" height="94.75"/>
	</g>
	<g class="st8">
		<path d="M494.75,338.44c1.08,2.55,21.27,42.55,21.27,42.55L458,355.83L494.75,338.44z"/>
	</g>
	<g class="st10">
		<polygon points="409.15,312.94 363.44,357.1 352.87,313.8 		"/>
	</g>
	<g class="st10">
		<polygon points="305.31,376.83 249.92,317.35 255.08,358.63 		"/>
	</g>
	<g class="st11">
		<polygon points="168.28,317.89 128.88,278.94 146.58,331.9 		"/>
	</g>
	<g class="st8">
		<polygon points="235.55,206.15 202.27,158.22 136.94,205.55 		"/>
	</g>
	<g class="st11">
		<polygon points="623.51,339.67 593.98,362.02 568.36,326.79 		"/>
	</g>
	<g class="st11">
		<polygon points="489.59,273.69 468.74,287.31 451.14,250.63 		"/>
	</g>
	<g class="st8">
		<polygon points="339.13,269.82 301.43,267.26 352.87,313.8 		"/>
	</g>
	<g class="st8">
		<polygon points="219.57,351.82 224.42,387.07 166.58,391.75 		"/>
	</g>
	<g>
		<path d="M448.11,250.43c-0.11,1.67,1.15,3.12,2.82,3.24c1.67,0.11,3.12-1.15,3.24-2.82c0.11-1.67-1.15-3.12-2.82-3.24
			C449.67,247.49,448.22,248.75,448.11,250.43z"/>
	</g>
	<g>
		<path d="M488.68,338.03c-0.23,3.35,2.3,6.25,5.65,6.47c3.35,0.23,6.25-2.3,6.47-5.65c0.23-3.35-2.3-6.25-5.65-6.47
			C491.81,332.15,488.91,334.68,488.68,338.03z"/>
	</g>
	<g>
		<path d="M218.36,386.66c-0.23,3.35,2.3,6.25,5.65,6.47c3.35,0.23,6.25-2.3,6.47-5.65c0.23-3.35-2.3-6.25-5.65-6.47
			C221.49,380.78,218.59,383.31,218.36,386.66z"/>
	</g>
	<g>
		<path d="M406.12,312.73c-0.11,1.67,1.15,3.12,2.82,3.24c1.67,0.11,3.12-1.15,3.24-2.82c0.11-1.67-1.15-3.12-2.82-3.24
			C407.68,309.79,406.23,311.06,406.12,312.73z"/>
	</g>
	<g>
		<path d="M232.52,205.95c-0.11,1.67,1.15,3.12,2.82,3.24c1.67,0.11,3.12-1.15,3.24-2.82c0.11-1.67-1.15-3.12-2.82-3.24
			C234.08,203.01,232.63,204.27,232.52,205.95z"/>
	</g>
	<g>
		<path d="M246.89,317.14c-0.11,1.67,1.15,3.12,2.82,3.24c1.67,0.11,3.12-1.15,3.24-2.82c0.11-1.67-1.15-3.12-2.82-3.24
			C248.45,314.2,247,315.47,246.89,317.14z"/>
	</g>
	<g>
		<path d="M132.09,205.22c-0.18,2.68,1.84,5,4.52,5.18c2.68,0.18,5-1.84,5.18-4.52c0.18-2.68-1.84-5-4.52-5.18
			C134.59,200.51,132.27,202.54,132.09,205.22z"/>
	</g>
	<g>
		<path d="M361.62,356.98c-0.07,1,0.69,1.87,1.69,1.94c1,0.07,1.87-0.69,1.94-1.69c0.07-1-0.69-1.87-1.69-1.94
			C362.56,355.21,361.69,355.97,361.62,356.98z"/>
	</g>
	<g>
		<path d="M216.54,351.62c-0.11,1.67,1.15,3.12,2.82,3.24c1.67,0.11,3.12-1.15,3.24-2.82c0.11-1.67-1.15-3.12-2.82-3.24
			C218.1,348.68,216.65,349.94,216.54,351.62z"/>
	</g>
	<g>
		<path d="M352.22,316.77c1.64,0.36,3.26-0.68,3.61-2.32c0.36-1.64-0.68-3.26-2.32-3.61c-1.64-0.36-3.26,0.68-3.61,2.32
			C349.54,314.79,350.58,316.41,352.22,316.77z"/>
	</g>
	<g>
		<path d="M392.39,277.65c2.29,0.5,4.56-0.96,5.06-3.25c0.5-2.29-0.96-4.56-3.25-5.06c-2.29-0.5-4.56,0.96-5.06,3.25
			C388.64,274.89,390.1,277.15,392.39,277.65z"/>
	</g>
	<g>
		<path d="M535.03,293.62c0.98,0.21,1.95-0.41,2.17-1.39c0.21-0.98-0.41-1.95-1.39-2.17c-0.98-0.21-1.95,0.41-2.17,1.39
			C533.42,292.43,534.05,293.4,535.03,293.62z"/>
	</g>
	<g>
		<path d="M515.37,383.96c1.64,0.36,3.26-0.68,3.61-2.32c0.36-1.64-0.68-3.26-2.32-3.61c-1.64-0.36-3.26,0.68-3.61,2.32
			C512.69,381.99,513.73,383.6,515.37,383.96z"/>
	</g>
	<g>
		<path d="M720.39,298.72c1.64,0.36,3.26-0.68,3.61-2.32c0.36-1.64-0.68-3.26-2.32-3.61s-3.26,0.68-3.61,2.32
			C717.72,296.75,718.76,298.37,720.39,298.72z"/>
	</g>
	<g>
		<path d="M318.99,214.86c-0.11,1.67,1.15,3.12,2.82,3.24c1.67,0.11,3.12-1.15,3.24-2.82c0.11-1.67-1.15-3.12-2.82-3.24
			C320.55,211.93,319.1,213.19,318.99,214.86z"/>
	</g>
	<g>
		<path d="M163.97,112.39c-0.11,1.67,1.15,3.12,2.82,3.24c1.67,0.11,3.12-1.15,3.24-2.82c0.11-1.67-1.15-3.12-2.82-3.24
			S164.08,110.71,163.97,112.39z"/>
	</g>
	<g>
		<path d="M254.96,261.06c-0.07,1,0.69,1.87,1.69,1.94c1,0.07,1.87-0.69,1.94-1.69c0.07-1-0.69-1.87-1.69-1.94
			C255.9,259.29,255.03,260.05,254.96,261.06z"/>
	</g>
	<g>
		<path d="M165.25,317.69c-0.11,1.67,1.15,3.12,2.82,3.24c1.67,0.11,3.12-1.15,3.24-2.82c0.11-1.67-1.15-3.12-2.82-3.24
			C166.82,314.75,165.37,316.01,165.25,317.69z"/>
	</g>
	<g>
		<path d="M590.95,361.82c-0.11,1.67,1.15,3.12,2.82,3.24c1.67,0.11,3.12-1.15,3.24-2.82c0.11-1.67-1.15-3.12-2.82-3.24
			C592.51,358.88,591.06,360.14,590.95,361.82z"/>
	</g>
	<g>
		<ellipse transform="matrix(0.5643 -0.8256 0.8256 0.5643 13.1184 684.0713)" cx="654.64" cy="329.61" rx="1.82" ry="1.82"/>
	</g>
	<g>
		<path d="M620.48,339.47c-0.11,1.67,1.15,3.12,2.82,3.24c1.67,0.11,3.12-1.15,3.24-2.82c0.11-1.67-1.15-3.12-2.82-3.24
			C622.04,336.53,620.59,337.79,620.48,339.47z"/>
	</g>
	<g>
		<path d="M597.83,287.39c-0.16,2.34,1.61,4.37,3.95,4.53c2.34,0.16,4.37-1.61,4.53-3.95c0.16-2.34-1.61-4.37-3.95-4.53
			C600.02,283.27,597.99,285.04,597.83,287.39z"/>
	</g>
	<g>
		<path d="M565.33,326.59c-0.11,1.67,1.15,3.12,2.82,3.24c1.67,0.11,3.12-1.15,3.24-2.82c0.11-1.67-1.15-3.12-2.82-3.24
			C566.89,323.65,565.44,324.91,565.33,326.59z"/>
	</g>
	<g>
		<path d="M454.97,355.63c-0.11,1.67,1.15,3.12,2.82,3.24c1.67,0.11,3.12-1.15,3.24-2.82c0.11-1.67-1.15-3.12-2.82-3.24
			C456.53,352.69,455.08,353.95,454.97,355.63z"/>
	</g>
	<g>
		<path d="M465.71,287.1c-0.11,1.67,1.15,3.12,2.82,3.24c1.67,0.11,3.12-1.15,3.24-2.82c0.11-1.67-1.15-3.12-2.82-3.24
			C467.27,284.17,465.82,285.43,465.71,287.1z"/>
	</g>
	<g>
		<path d="M363.43,223.97c-0.11,1.67,1.15,3.12,2.82,3.24c1.67,0.11,3.12-1.15,3.24-2.82c0.11-1.67-1.15-3.12-2.82-3.24
			C364.99,221.03,363.55,222.3,363.43,223.97z"/>
	</g>
	<g>
		<path d="M266.43,137c-0.07,1,0.69,1.87,1.69,1.94c1,0.07,1.87-0.69,1.94-1.69c0.07-1-0.69-1.87-1.69-1.94
			C267.37,135.24,266.5,136,266.43,137z"/>
	</g>
	<g>
		<path d="M415.08,213.11c-0.07,1,0.69,1.87,1.69,1.94c1,0.07,1.87-0.69,1.94-1.69s-0.69-1.87-1.69-1.94
			C416.02,211.34,415.15,212.1,415.08,213.11z"/>
	</g>
	<g>
		<path d="M514.37,266.07c-0.07,1,0.69,1.87,1.69,1.94c1,0.07,1.87-0.69,1.94-1.69c0.07-1-0.69-1.87-1.7-1.94
			C515.31,264.3,514.44,265.06,514.37,266.07z"/>
	</g>
	<g>
		<path d="M210.12,405.19c-0.07,1,0.69,1.87,1.69,1.94c1,0.07,1.87-0.69,1.94-1.69c0.07-1-0.69-1.87-1.69-1.94
			S210.19,404.18,210.12,405.19z"/>
	</g>
	<g>
		<path d="M438.46,397.62c-0.07,1,0.69,1.87,1.69,1.94c1,0.07,1.87-0.69,1.94-1.69c0.07-1-0.69-1.87-1.69-1.94
			C439.39,395.85,438.53,396.61,438.46,397.62z"/>
	</g>
	<g>
		<path d="M573.25,386.5c-0.07,1,0.69,1.87,1.69,1.94c1,0.07,1.87-0.69,1.94-1.69c0.07-1-0.69-1.87-1.69-1.94
			C574.19,384.73,573.32,385.49,573.25,386.5z"/>
	</g>
	<g>
		<path d="M716,426.15c-0.07,1,0.69,1.87,1.69,1.94c1,0.07,1.87-0.69,1.94-1.69c0.07-1-0.69-1.87-1.7-1.94
			C716.93,424.38,716.07,425.14,716,426.15z"/>
	</g>
	<g>
		<path d="M345.13,194.41c-0.07,1,0.69,1.87,1.69,1.94c1,0.07,1.87-0.69,1.94-1.69c0.07-1-0.69-1.87-1.69-1.94
			C346.07,192.65,345.2,193.41,345.13,194.41z"/>
	</g>
	<g>
		<path d="M206.46,132.28c-0.07,1,0.69,1.87,1.69,1.94c1,0.07,1.87-0.69,1.94-1.69c0.07-1-0.69-1.87-1.69-1.94
			C207.39,130.52,206.52,131.28,206.46,132.28z"/>
	</g>
	<g>
		<path d="M307.08,96.19c-0.05,0.67,0.46,1.25,1.13,1.29c0.67,0.05,1.25-0.46,1.29-1.13c0.05-0.67-0.46-1.25-1.13-1.29
			C307.7,95.02,307.12,95.52,307.08,96.19z"/>
	</g>
	<g>
		<path d="M129.75,89.32c-0.05,0.67,0.46,1.25,1.13,1.29c0.67,0.05,1.25-0.46,1.29-1.13c0.05-0.67-0.46-1.25-1.13-1.29
			C130.38,88.14,129.8,88.65,129.75,89.32z"/>
	</g>
	<g>
		<path d="M124.65,365.2c-0.05,0.67,0.46,1.25,1.13,1.29c0.67,0.05,1.25-0.46,1.29-1.13c0.05-0.67-0.46-1.25-1.13-1.29
			C125.27,364.03,124.7,364.53,124.65,365.2z"/>
	</g>
	<g>
		<path d="M194.15,221.51c-0.05,0.67,0.46,1.25,1.13,1.29c0.67,0.05,1.25-0.46,1.29-1.13c0.05-0.67-0.46-1.25-1.13-1.29
			C194.77,220.33,194.19,220.84,194.15,221.51z"/>
	</g>
	<g>
		<circle cx="578.66" cy="281.65" r="1.21"/>
	</g>
	<g>
		<path d="M386.32,288.36c-0.05,0.67,0.46,1.25,1.13,1.29c0.67,0.05,1.25-0.46,1.29-1.13c0.05-0.67-0.46-1.25-1.13-1.29
			C386.94,287.19,386.36,287.7,386.32,288.36z"/>
	</g>
	<g>
		<path d="M229.96,109.28c-0.02,0.33,0.23,0.62,0.56,0.65c0.33,0.02,0.62-0.23,0.65-0.56c0.02-0.33-0.23-0.62-0.56-0.65
			C230.27,108.69,229.98,108.95,229.96,109.28z"/>
	</g>
	<g>
		<path d="M324.97,182.56c-0.02,0.33,0.23,0.62,0.56,0.65c0.33,0.02,0.62-0.23,0.65-0.56c0.02-0.33-0.23-0.62-0.56-0.65
			C325.28,181.97,324.99,182.22,324.97,182.56z"/>
	</g>
	<g>
		<path d="M475.37,218.5c-0.02,0.33,0.23,0.62,0.56,0.65c0.33,0.02,0.62-0.23,0.65-0.56c0.02-0.33-0.23-0.62-0.56-0.65
			C475.68,217.91,475.39,218.17,475.37,218.5z"/>
	</g>
	<g>
		<path d="M648.06,248.98c-0.02,0.33,0.23,0.62,0.56,0.65c0.33,0.02,0.62-0.23,0.65-0.56c0.02-0.33-0.23-0.62-0.56-0.65
			C648.37,248.39,648.08,248.64,648.06,248.98z"/>
	</g>
	<g>
		<path d="M658,202.57c-0.02,0.33,0.23,0.62,0.56,0.65c0.33,0.02,0.62-0.23,0.65-0.56c0.02-0.33-0.23-0.62-0.56-0.65
			C658.31,201.99,658.02,202.24,658,202.57z"/>
	</g>
	<g>
		<path d="M705.14,257.34c-0.02,0.33,0.23,0.62,0.56,0.65c0.33,0.02,0.62-0.23,0.65-0.56c0.02-0.33-0.23-0.62-0.56-0.65
			C705.45,256.76,705.16,257.01,705.14,257.34z"/>
	</g>
	<g>
		<path d="M620.52,234.26c-0.02,0.33,0.23,0.62,0.56,0.65c0.33,0.02,0.62-0.23,0.65-0.56c0.02-0.33-0.23-0.62-0.56-0.65
			C620.83,233.67,620.54,233.93,620.52,234.26z"/>
	</g>
	<g>
		<path d="M401.18,182.89c-0.02,0.33,0.23,0.62,0.56,0.65c0.33,0.02,0.62-0.23,0.65-0.56c0.02-0.33-0.23-0.62-0.56-0.65
			C401.49,182.3,401.2,182.56,401.18,182.89z"/>
	</g>
	<g>
		<path d="M292.4,137.64c-0.02,0.33,0.23,0.62,0.56,0.65c0.33,0.02,0.62-0.23,0.65-0.56c0.02-0.33-0.23-0.62-0.56-0.65
			C292.71,137.05,292.42,137.3,292.4,137.64z"/>
	</g>
	<g>
		<path d="M114.56,44.91c-0.02,0.33,0.23,0.62,0.56,0.65c0.33,0.02,0.62-0.23,0.65-0.56c0.02-0.33-0.23-0.62-0.56-0.65
			C114.87,44.32,114.58,44.58,114.56,44.91z"/>
	</g>
	<g>
		<path d="M328.63,148.6c-0.02,0.33,0.23,0.62,0.56,0.65c0.33,0.02,0.62-0.23,0.65-0.56c0.02-0.33-0.23-0.62-0.56-0.65
			C328.94,148.02,328.65,148.27,328.63,148.6z"/>
	</g>
	<g>
		<path d="M177.88,56.94c-0.02,0.33,0.23,0.62,0.56,0.65c0.33,0.02,0.62-0.23,0.65-0.56c0.02-0.33-0.23-0.62-0.56-0.65
			C178.19,56.36,177.9,56.61,177.88,56.94z"/>
	</g>
	<g>
		<path d="M187.86,87.62c-0.02,0.33,0.23,0.62,0.56,0.65c0.33,0.02,0.62-0.23,0.65-0.56c0.02-0.33-0.23-0.62-0.56-0.65
			S187.88,87.28,187.86,87.62z"/>
	</g>
	<g>
		<path d="M279.92,411.1c-0.02,0.33,0.23,0.62,0.56,0.65c0.33,0.02,0.62-0.23,0.65-0.56c0.02-0.33-0.23-0.62-0.56-0.65
			C280.23,410.52,279.94,410.77,279.92,411.1z"/>
	</g>
	<g>
		<path d="M559.99,234.93c-0.02,0.33,0.23,0.62,0.56,0.65c0.33,0.02,0.62-0.23,0.65-0.56c0.02-0.33-0.23-0.62-0.56-0.65
			C560.3,234.35,560.01,234.6,559.99,234.93z"/>
	</g>
	<g>
		<path d="M375.05,402.85c-0.02,0.33,0.23,0.62,0.56,0.65c0.33,0.02,0.62-0.23,0.65-0.56c0.02-0.33-0.23-0.62-0.56-0.65
			C375.37,402.26,375.08,402.51,375.05,402.85z"/>
	</g>
	<g>
		<path d="M534.22,385.26c-0.02,0.33,0.23,0.62,0.56,0.65c0.33,0.02,0.62-0.23,0.65-0.56c0.02-0.33-0.23-0.62-0.56-0.65
			C534.53,384.67,534.24,384.92,534.22,385.26z"/>
	</g>
	<g>
		<path d="M628.46,379.28c-0.32,0.09-0.52,0.42-0.43,0.74c0.09,0.32,0.42,0.52,0.74,0.43c0.32-0.09,0.52-0.42,0.43-0.74
			C629.12,379.38,628.79,379.19,628.46,379.28z"/>
	</g>
	<g>
		<path d="M684.12,408.93c-0.32,0.09-0.52,0.42-0.43,0.74c0.09,0.32,0.42,0.52,0.74,0.43c0.32-0.09,0.52-0.42,0.43-0.74
			C684.77,409.04,684.44,408.84,684.12,408.93z"/>
	</g>
	<g>
		<path d="M826.9,215.22c-0.32,0.09-0.52,0.42-0.43,0.74c0.09,0.32,0.42,0.52,0.74,0.43c0.32-0.09,0.52-0.42,0.43-0.74
			C827.56,215.33,827.23,215.14,826.9,215.22z"/>
	</g>
	<g>
		<path d="M673.65,301.77c-0.32,0.09-0.52,0.42-0.43,0.74c0.09,0.32,0.42,0.52,0.74,0.43c0.32-0.09,0.52-0.42,0.43-0.74
			C674.31,301.88,673.97,301.69,673.65,301.77z"/>
	</g>
	<g>
		<path d="M723.58,362.49c-0.32,0.09-0.52,0.42-0.43,0.74c0.09,0.32,0.42,0.52,0.74,0.43c0.32-0.09,0.52-0.42,0.43-0.74
			C724.24,362.6,723.9,362.41,723.58,362.49z"/>
	</g>
	<g>
		<path d="M135.22,404.66c-0.32,0.09-0.52,0.42-0.43,0.74c0.09,0.32,0.42,0.52,0.74,0.43c0.32-0.09,0.52-0.42,0.43-0.74
			C135.88,404.77,135.55,404.57,135.22,404.66z"/>
	</g>
	<g>
		<path d="M448.19,216.78c-0.05,0.67,0.46,1.25,1.13,1.29c0.67,0.05,1.25-0.46,1.29-1.13c0.05-0.67-0.46-1.25-1.13-1.29
			C448.81,215.61,448.23,216.12,448.19,216.78z"/>
	</g>
	<g>
		<path d="M272.68,187.54c-0.07,1,0.69,1.87,1.69,1.94c1,0.07,1.87-0.69,1.94-1.69c0.07-1-0.69-1.87-1.69-1.94
			C273.62,185.77,272.75,186.53,272.68,187.54z"/>
	</g>
	<g>
		<path d="M615.01,268.84c-0.07,1,0.69,1.87,1.69,1.94c1,0.07,1.87-0.69,1.94-1.69c0.07-1-0.69-1.87-1.69-1.94
			C615.95,267.08,615.08,267.84,615.01,268.84z"/>
	</g>
	<g>
		<path d="M487.77,273.57c-0.07,1,0.69,1.87,1.69,1.94c1,0.07,1.87-0.69,1.94-1.69c0.07-1-0.69-1.87-1.69-1.94
			C488.71,271.8,487.84,272.56,487.77,273.57z"/>
	</g>
	<g>
		<path d="M664.05,266.32c-0.07,1,0.69,1.87,1.69,1.94c1,0.07,1.87-0.69,1.94-1.69c0.07-1-0.69-1.87-1.69-1.94
			C664.99,264.56,664.12,265.32,664.05,266.32z"/>
	</g>
	<g>
		<ellipse transform="matrix(0.4298 -0.9029 0.9029 0.4298 -107.0545 588.6633)" cx="412.56" cy="379.09" rx="1.82" ry="1.82"/>
	</g>
	<g>
		<path d="M254.7,360.41c0.98,0.21,1.95-0.41,2.17-1.39c0.21-0.98-0.41-1.95-1.39-2.17c-0.98-0.21-1.95,0.41-2.17,1.39
			S253.71,360.2,254.7,360.41z"/>
	</g>
	<g>
		<path d="M116.77,112.07c0.98,0.21,1.95-0.41,2.17-1.39s-0.41-1.95-1.39-2.17c-0.98-0.21-1.95,0.41-2.17,1.39
			C115.16,110.89,115.79,111.86,116.77,112.07z"/>
	</g>
	<g>
		<path d="M112.47,163.78c-0.11,1.67,1.15,3.12,2.82,3.24s3.12-1.15,3.24-2.82c0.11-1.67-1.15-3.12-2.82-3.24
			C114.03,160.84,112.59,162.11,112.47,163.78z"/>
	</g>
	<g>
		<path d="M125.85,278.74c-0.11,1.67,1.15,3.12,2.82,3.24c1.67,0.11,3.12-1.15,3.24-2.82c0.11-1.67-1.15-3.12-2.82-3.24
			C127.41,275.8,125.96,277.06,125.85,278.74z"/>
	</g>
	<g>
		<path d="M302.28,376.62c-0.11,1.67,1.15,3.12,2.82,3.24c1.67,0.11,3.12-1.15,3.24-2.82c0.11-1.67-1.15-3.12-2.82-3.24
			C303.84,373.68,302.39,374.95,302.28,376.62z"/>
	</g>
	<g>
		<path d="M298.4,267.05c-0.11,1.67,1.15,3.12,2.82,3.24c1.67,0.11,3.12-1.15,3.24-2.82c0.11-1.67-1.15-3.12-2.82-3.24
			C299.96,264.11,298.51,265.38,298.4,267.05z"/>
	</g>
	<g>
		<path d="M342.32,402.42c-0.11,1.67,1.15,3.12,2.82,3.24c1.67,0.11,3.12-1.15,3.24-2.82c0.11-1.67-1.15-3.12-2.82-3.24
			C343.88,399.48,342.43,400.75,342.32,402.42z"/>
	</g>
	<g>
		<path d="M163.54,391.55c-0.11,1.67,1.15,3.12,2.82,3.24c1.67,0.11,3.12-1.15,3.24-2.82c0.11-1.67-1.15-3.12-2.82-3.24
			C165.11,388.61,163.66,389.87,163.54,391.55z"/>
	</g>
	<g>
		<path d="M199.24,158.02c-0.11,1.67,1.15,3.12,2.82,3.24c1.67,0.11,3.12-1.15,3.24-2.82c0.11-1.67-1.15-3.12-2.82-3.24
			C200.8,155.08,199.35,156.34,199.24,158.02z"/>
	</g>
	<g>
		<path d="M171.52,270.17c-0.11,1.67,1.15,3.12,2.82,3.24c1.67,0.11,3.12-1.15,3.24-2.82c0.11-1.67-1.15-3.12-2.82-3.24
			C173.09,267.23,171.64,268.5,171.52,270.17z"/>
	</g>
	<g class="st3">
		<path d="M24.28,233.2l-0.24-0.27l91.23-69.18l52.04-51.93l3.3,68.93l31.85-23.07l27.43,91.6l36.78-13.79l-31.52-29.24l32.81-69.25
			l0.25-0.53l54.35,78.78l-54.62,20.49l33.65,31.21l46.15,3.13l19.13-47.74l-1.11,48.96l27.52,1.87l57.77-22.84l0.43-0.17
			l2.81,43.03l14.65-6.3l25.84,51.21l33.74-15.96l6.7-30.79l27.18,14.76l39.56-18.72l0.19-0.09l52.56,41.93l66.21-33.76l0.31,0.6
			l-66.4,33.85l-0.19,0.1l-52.57-41.94l-38.93,18.42l60.57,32.89l0.46,0.25l-29.28,22.17l89.59,11.14l-0.08,0.67l-91.24-11.35
			l29.77-22.54l-60.54-32.88l-33.27,15.74l-12.93,59.41l-21.71-43.02l-36.74,17.38l-4.06-62.18l-44.3,19.05l-45.67,44.12l-0.59,0.57
			l1.96-86l-16.88-1.15l-19.91,49.7l25.49-7.27l-49.69,65.85l23.06-57.55l-107.6,30.69l-51.84-34.3l68.81-44.24l-7.04-23.49
			l-55.2,20.7l-4.25-88.83l-32.73,23.71l-8.04,73.17l38.19,114.29L24.28,233.2z M166.7,113.37l-50.99,50.89l-90.68,68.77
			l140.71,157.29l-37.18-111.26l-0.02-0.07l8.09-73.62l33.33-24.14L166.7,113.37z M495.04,338.68l20.85,41.31l12.41-57.04
			L495.04,338.68z M327.93,321.26l-21.37,53.34l45.43-60.21L327.93,321.26z M450.83,251.12l-57.41,22.7l-0.07,0.03l-27.64-1.88
			l-1.92,84.32l45.16-43.63l44.63-19.19L450.83,251.12z M347.45,270.72l-46.17-3.14l-34.07-31.6l-37.14,13.93l6.99,23.35
			l20.14-12.95l-7.15,58.67l-13.38-44.67L168.9,317.9l50.72,33.56l107.81-30.75L347.45,270.72z M468.58,287.75l-14.29,6.14
			l4.01,61.43l35.83-16.95L468.58,287.75z M535.65,292.35l-6.4,29.4l32.36-15.31L535.65,292.35z M237.27,273.94l12.51,41.76
			l6.59-54.04L237.27,273.94z M202.08,158.77l-31.44,22.77l4.23,88.35l54.38-20.39L202.08,158.77z M348.42,270.11l16.63,1.13
			l1.03-45.21L348.42,270.11z M268.3,137.8l-32.34,68.27l31.41,29.13l54.13-20.3L268.3,137.8z"/>
	</g>
	<g>
		<path d="M622.66,339.59l32.11-10.38l30.69,45.04L622.66,339.59z M624.35,339.75l58.96,32.54l-28.81-42.28L624.35,339.75z"/>
	</g>
	<g>
		<rect x="595.6" y="304.92" transform="matrix(0.2279 -0.9737 0.9737 0.2279 135.6547 837.5385)" width="0.68" height="56.63"/>
	</g>
	<g class="st12">
		<polygon points="516.26,381.23 568.83,326.8 568.61,326.56 536.15,292.13 602.14,288.01 665.84,266.81 720.88,296.05 
			721.2,295.46 665.9,266.08 665.77,266.12 602.01,287.34 534.68,291.55 567.89,326.79 515.77,380.76 		"/>
	</g>
	<g>
		<rect x="628.18" y="297.69" transform="matrix(0.1751 -0.9845 0.9845 0.1751 251.2209 895.8938)" width="64.16" height="0.68"/>
	</g>
	<g class="st13">
		<path d="M457.86,356.14l-0.05-0.02l-27.41-24.07l-66.96,25.41l-114.15-39.97l51.85-50.42l20.92-53.01l31.06,99.4l55.54-0.85
			L393,273.66l-27.23-50.05L451,250.23l0.19-0.28l0.21,0.44l38.32,22.98l45.78,18.13l1.49,0.1l-105.86,40.17l27.06,23.77
			l57.87,25.09l77.36-18.82l-25.32-34.82l-0.16-0.22l34.25-39.74l21.64,52.51l-0.62,0.26l-21.23-51.49l-33.18,38.5l25.76,35.42
			l-78.45,19.09l-0.11,0.03L457.86,356.14z M409.03,313.28l-56.4,0.86l-30.64-98.06l-20.24,51.3l-0.03,0.07l-51.17,49.76
			l112.89,39.53l66.39-25.19L409.03,313.28z M468.72,287.65l-0.2-0.01l-17.43-36.32l-41.49,61.57l20.95,18.4l103.31-39.2
			L468.72,287.65z M367.16,224.75l26.45,48.62l15.61,38.85l41.38-61.4L367.16,224.75z M468.96,286.99l64.32,4.37l-43.87-17.38
			l-37.49-22.48L468.96,286.99z"/>
	</g>
	<g class="st13">
		<polygon points="450.89,250.86 451.38,250.4 417.02,212.86 366.46,223.83 322.09,214.74 235.74,205.83 202.8,158.4 268.35,137.45 
			268.14,136.81 201.73,158.04 235.36,206.47 235.51,206.49 321.99,215.41 366.46,224.52 366.53,224.51 416.78,213.6 		"/>
	</g>
	<g>
		<rect x="466.71" y="280.16" transform="matrix(0.8372 -0.5469 0.5469 0.8372 -75.3954 307.7417)" width="24.9" height="0.67"/>
	</g>
	<g>
		<path d="M361.91,356.78l97.53-1.3l-46.87,23.99L361.91,356.78z M364.97,357.42l47.57,21.3l44.01-22.53L364.97,357.42z"/>
	</g>
	<g>
		<path d="M115.84,163.99c0.44-17.95,1.35-52.25,1.65-53.63l-0.66-0.14c-0.39,1.79-1.61,51.64-1.66,53.76L115.84,163.99z"/>
	</g>
	<g>
		<polygon points="224.09,387.12 224.76,387.03 219.96,352.24 255.48,359.05 250.25,317.3 249.58,317.39 254.69,358.21 
			219.17,351.4 		"/>
	</g>
	<g>
		<path d="M166.24,391.75l0.67,0.01c0.02-0.71,1.5-70.86,1.71-73.84l-0.67-0.05C167.74,320.87,166.3,388.85,166.24,391.75z"/>
	</g>
	<g class="st12">
		<polygon points="345.51,403.13 345.66,402.75 363.79,357.12 363.77,357.02 353.17,313.62 353.09,313.55 301.58,266.94 
			257.03,260.68 235.86,206.03 235.23,206.27 256.55,261.29 301.28,267.58 352.56,313.98 363.09,357.07 345.19,402.12 
			305.42,376.51 255.01,358.25 224.28,386.75 167.71,391.32 219.8,352.07 219.82,352.04 250.67,317 168.67,317.55 174.9,270.31 
			174.85,270.21 137.23,205.38 136.65,205.72 174.21,270.45 167.9,318.23 249.17,317.69 219.34,351.57 165.44,392.18 224.57,387.4 
			255.16,359.02 305.16,377.13 		"/>
	</g>
	<g>
		<polygon points="305.21,377.22 305.42,377.15 363.55,357.42 363.33,356.78 305.41,376.44 250.67,317.66 352.88,314.14 
			352.86,313.46 249.17,317.03 		"/>
	</g>
	<g class="st3">
		<polygon points="345.38,402.97 345.46,402.94 412.61,379.43 516.01,381.33 516.02,380.65 412.5,378.76 412.44,378.77 
			345.31,402.28 227.09,387.08 305.35,377.16 305.27,376.49 221.76,387.07 		"/>
	</g>
	<g>
		<polygon points="68.31,382.83 168.82,317.95 168.52,317.65 129.57,279.16 174.72,270.69 174.8,270.61 236.33,205.82 
			137.15,205.21 116.04,164.29 202.92,158.52 167.17,112.26 167.02,112.26 117.01,109.95 116.91,110.06 66.09,166.29 66.59,166.74 
			117.3,110.63 166.83,112.92 201.61,157.93 114.97,163.68 136.73,205.88 136.94,205.88 234.77,206.49 174.39,270.06 128.18,278.73 
			167.75,317.84 67.94,382.26 		"/>
	</g>
	<g>
		<path d="M173.54,270.15l83.63-9.55l-6.85,56.17l-0.06,0.52L173.54,270.15z M175.56,270.6l74.16,45.57l6.68-54.79L175.56,270.6z"/>
	</g>
	<g>
		<polygon points="78.81,356.22 129.34,278.86 129.08,278.67 64.71,231.5 137.05,205.86 136.83,205.23 63.28,231.29 128.42,279.03 
			78.24,355.85 		"/>
	</g>
	<g class="st2">
		<rect x="120.82" y="330.91" transform="matrix(0.2843 -0.9587 0.9587 0.2843 -275.9674 386.8996)" width="0.68" height="94.75"/>
	</g>
</g>
</svg>
